<svg id="visual" viewBox="0 0 900 600" width="900" height="600" xmlns="http://www.w3.org/2000/svg" xmlns:xlink="http://www.w3.org/1999/xlink" version="1.1"><path d="M0 549L6.5 544.5C13 540 26 531 39 524.5C52 518 65 514 78 518.8C91 523.7 104 537.3 117.2 542.5C130.3 547.7 143.7 544.3 156.8 539.7C170 535 183 529 196 522.8C209 516.7 222 510.3 235 506.8C248 503.3 261 502.7 274 509.3C287 516 300 530 313 534.3C326 538.7 339 533.3 352 529C365 524.7 378 521.3 391 521.3C404 521.3 417 524.7 430.2 527.8C443.3 531 456.7 534 469.8 532.3C483 530.7 496 524.3 509 518.5C522 512.7 535 507.3 548 505.5C561 503.7 574 505.3 587 508C600 510.7 613 514.3 626 514.8C639 515.3 652 512.7 665 511.7C678 510.7 691 511.3 704 510.8C717 510.3 730 508.7 743.2 507.8C756.3 507 769.7 507 782.8 513.3C796 519.7 809 532.3 822 539.3C835 546.3 848 547.7 861 540.3C874 533 887 517 893.5 509L900 501L900 601L893.5 601C887 601 874 601 861 601C848 601 835 601 822 601C809 601 796 601 782.8 601C769.7 601 756.3 601 743.2 601C730 601 717 601 704 601C691 601 678 601 665 601C652 601 639 601 626 601C613 601 600 601 587 601C574 601 561 601 548 601C535 601 522 601 509 601C496 601 483 601 469.8 601C456.7 601 443.3 601 430.2 601C417 601 404 601 391 601C378 601 365 601 352 601C339 601 326 601 313 601C300 601 287 601 274 601C261 601 248 601 235 601C222 601 209 601 196 601C183 601 170 601 156.8 601C143.7 601 130.3 601 117.2 601C104 601 91 601 78 601C65 601 52 601 39 601C26 601 13 601 6.5 601L0 601Z" fill="#32a192"></path><path d="M0 579L6.5 573.8C13 568.7 26 558.3 39 558.2C52 558 65 568 78 571.7C91 575.3 104 572.7 117.2 568C130.3 563.3 143.7 556.7 156.8 554.7C170 552.7 183 555.3 196 558.5C209 561.7 222 565.3 235 565.7C248 566 261 563 274 561C287 559 300 558 313 560.3C326 562.7 339 568.3 352 570.2C365 572 378 570 391 570.3C404 570.7 417 573.3 430.2 571.8C443.3 570.3 456.7 564.7 469.8 565.7C483 566.7 496 574.3 509 576.5C522 578.7 535 575.3 548 570C561 564.7 574 557.3 587 552.7C600 548 613 546 626 549.7C639 553.3 652 562.7 665 569C678 575.3 691 578.7 704 573.7C717 568.7 730 555.3 743.2 551C756.3 546.7 769.7 551.3 782.8 550.2C796 549 809 542 822 539.3C835 536.7 848 538.3 861 541.8C874 545.3 887 550.7 893.5 553.3L900 556L900 601L893.5 601C887 601 874 601 861 601C848 601 835 601 822 601C809 601 796 601 782.8 601C769.7 601 756.3 601 743.2 601C730 601 717 601 704 601C691 601 678 601 665 601C652 601 639 601 626 601C613 601 600 601 587 601C574 601 561 601 548 601C535 601 522 601 509 601C496 601 483 601 469.8 601C456.7 601 443.3 601 430.2 601C417 601 404 601 391 601C378 601 365 601 352 601C339 601 326 601 313 601C300 601 287 601 274 601C261 601 248 601 235 601C222 601 209 601 196 601C183 601 170 601 156.8 601C143.7 601 130.3 601 117.2 601C104 601 91 601 78 601C65 601 52 601 39 601C26 601 13 601 6.5 601L0 601Z" fill="#24c776"></path></svg>