<svg version="1.2" xmlns="http://www.w3.org/2000/svg" viewBox="0 0 1257 793" width="1257" height="793">
	<title>repair_appliance_02-ai</title>
	<style>
		.s0 { fill: #67646d } 
		.s1 { fill: #7e7789 } 
		.s2 { fill: #e4dfea } 
		.s3 { fill: #827d89 } 
		.s4 { fill: #a09aa8 } 
		.s5 { fill: #e7e2ed } 
		.s6 { fill: #3eb5e5 } 
		.s7 { fill: #80e1ff } 
		.s8 { fill: #754938 } 
		.s9 { fill: #ffa77b } 
		.s10 { fill: #dd7458 } 
		.s11 { fill: #ffffff } 
		.s12 { fill: #b3a1a1 } 
		.s13 { fill: #351f1c } 
		.s14 { fill: #491a1a } 
		.s15 { fill: #382724 } 
		.s16 { fill: #fffdfd } 
		.s17 { fill: #fffbf3 } 
		.s18 { fill: #2156a3 } 
		.s19 { fill: #092957 } 
		.s20 { fill: #141d1e } 
		.s21 { fill: #304142 } 
		.s22 { fill: #080c0c } 
		.s23 { fill: #2c2f35 } 
		.s24 { fill: #ffae0b } 
		.s25 { fill: #b3670d } 
		.s26 { fill: #b3b7b8 } 
		.s27 { fill: #383b44 } 
		.s28 { fill: #929596 } 
		.s29 { fill: #c5c8c9 } 
		.s30 { fill: #3a0c09 } 
		.s31 { fill: #d80f00 } 
		.s32 { fill: #ffae8a } 
		.s33 { fill: #262358 } 
		.s34 { fill: #16163a } 
		.s35 { fill: #ff2d0b } 
		.s36 { fill: #60170e } 
		.s37 { fill: #b2ae86 } 
		.s38 { fill: #fff7b0 } 
	</style>
	<g id="Layer 1">
		<g id="&lt;Group&gt;">
			<g id="&lt;Group&gt;">
				<g id="&lt;Group&gt;">
					<g id="&lt;Group&gt;">
						<g id="&lt;Group&gt;">
							<path id="&lt;Path&gt;" class="s0" d="m36.3 706.9l-6.1-27.9h20.9v27.9z"/>
						</g>
						<g id="&lt;Group&gt;">
							<path id="&lt;Path&gt;" class="s0" d="m100.1 707.9l-6.1-28 20.9 0.1v27.9z"/>
						</g>
					</g>
					<g id="&lt;Group&gt;">
						<g id="&lt;Group&gt;">
							<path id="&lt;Path&gt;" class="s0" d="m197.9 707l-6.1-27.9h20.9v27.9z"/>
						</g>
						<g id="&lt;Group&gt;">
							<path id="&lt;Path&gt;" class="s0" d="m261.7 707.9l-6.1-27.9h20.9v27.9z"/>
						</g>
					</g>
					<g id="&lt;Group&gt;">
						<path id="&lt;Path&gt;" class="s1" d="m242.1 46.8l-0.2 629.3c0 8.1-4.2 14.7-9.3 14.7l-206.2-0.1c-5.2 0-9.3-6.6-9.3-14.6l0.2-629.4c0-8.1 4.2-14.6 9.3-14.6h206.2c5.1 0 9.3 6.6 9.3 14.7z"/>
					</g>
					<g id="&lt;Group&gt;">
						<path id="&lt;Path&gt;" class="s2" d="m290.4 46.8l-0.2 629.4c0 8-3.7 14.6-8.3 14.6l-183.2-0.1c-4.5 0-8.2-6.5-8.2-14.6l0.2-629.4c0-8.1 3.7-14.6 8.3-14.6l183.1 0.1c4.6 0 8.3 6.5 8.3 14.6z"/>
					</g>
					<g id="&lt;Group&gt;">
						<g id="&lt;Group&gt;">
							<path id="&lt;Path&gt;" class="s0" d="m114.7 463.3c0 2.6-2.1 4.6-4.6 4.6-2.6 0-4.7-2-4.7-4.6l0.1-124.4c0-2.5 2-4.6 4.6-4.6 2.6 0 4.6 2.1 4.6 4.6z"/>
						</g>
						<g id="&lt;Group&gt;">
							<path id="&lt;Path&gt;" class="s3" d="m124 465.5h-15.8v-8.3h15.8c2.7 0 5.1-3.6 5.1-7.8v-96.6c0-4.1-2.3-7.8-5.1-7.8h-15.8v-8.3h15.8c7.5 0 13.5 7.2 13.5 16.1v96.6c0 8.9-6.1 16.1-13.5 16.1z"/>
						</g>
					</g>
					<g id="&lt;Group&gt;">
						<g id="&lt;Group&gt;">
							<path id="&lt;Path&gt;" class="s0" d="m114.6 624.8c0 2.6-2 4.7-4.6 4.7-2.6 0-4.6-2.1-4.6-4.7v-124.4c0-2.5 2.1-4.6 4.6-4.6 2.6 0 4.7 2.1 4.7 4.6z"/>
						</g>
						<g id="&lt;Group&gt;">
							<path id="&lt;Path&gt;" class="s3" d="m123.9 627.1h-15.8v-8.4h15.8c2.8 0 5.1-3.6 5.1-7.7l0.1-96.7c0-4.1-2.4-7.7-5.1-7.7h-15.8v-8.4h15.8c7.4 0 13.4 7.2 13.4 16.1v96.7c0 8.8-6 16.1-13.5 16.1z"/>
						</g>
					</g>
					<g id="&lt;Group&gt;">
						<path id="&lt;Path&gt;" class="s1" d="m290.4 46.8v9.2l-273.1-0.1v-9.2c0-8.1 4.2-14.6 9.3-14.6l255.5 0.1c4.6 0 8.3 6.5 8.3 14.6z"/>
					</g>
					<g id="&lt;Group&gt;" style="opacity: .3;mix-blend-mode: multiply">
						<path id="&lt;Path&gt;" class="s3" d="m90.7 46.7v9.3l-73.4-0.1v-9.2c0-8.1 3.6-14.6 8.1-14.6h58.1c4 0 7.2 6.5 7.2 14.6z"/>
					</g>
					<g id="&lt;Group&gt;">
						<path id="&lt;Path&gt;" class="s3" d="m172.4 79.3l58.5 0.1v8.3h-58.5z"/>
					</g>
					<g id="&lt;Group&gt;">
						<g id="&lt;Group&gt;">
							<path id="&lt;Compound Path&gt;" fill-rule="evenodd" class="s4" d="m270.9 684.2l-162.5-0.1c-6.2 0-11.2-4.7-11.2-10.5l0.2-598.1c0-5.8 5-10.6 11.2-10.6l162.5 0.1c6.2 0 11.2 4.7 11.2 10.5l-0.2 598.1c0 5.9-5 10.6-11.2 10.6zm-162.3-615.6c-4.1 0-7.5 3.1-7.5 6.9l-0.2 598.1c0 3.7 3.4 6.8 7.5 6.8l162.5 0.1c4.1 0 7.5-3.1 7.5-6.9l0.2-598.1c0-3.7-3.4-6.8-7.5-6.8z"/>
						</g>
					</g>
					<g id="&lt;Group&gt;">
						<g id="&lt;Group&gt;">
							<path id="&lt;Path&gt;" class="s5" d="m17.2 475.1l273 0.1v3h-273z"/>
						</g>
						<g id="&lt;Group&gt;">
							<path id="&lt;Path&gt;" class="s3" d="m17.2 477.9l273 0.1v4.6l-273-0.1z"/>
						</g>
					</g>
				</g>
				<g id="&lt;Group&gt;">
					<g id="&lt;Group&gt;">
						<g id="&lt;Group&gt;">
							<path id="&lt;Path&gt;" class="s6" d="m407.9 745.1c-12.8 2.9-30.6-1.6-43.9-1.6-16.3 0-29.7 5.8-46 1.5-15.7-4.1-23.2-7.5-40.8-4.9-21.6 3.3-20.9 0-38.6-8.1-6.8-3.1-26.2-7-34.4-0.4-1.2 1-2.1 2.2-2.8 3.7-4.2 9.8 11.3 11.4 20 14.5 3.3 1.2 5.6 2.7 5.5 4.9 2.4 13.1-64.8 4.9-94.4 0.4-13.3-2-29.4-7.7-17.3-21.2 8.8-9.8 30.8-5.5 40.7-17.3-11-12-43.3-1.8-42.5-11.5-1.3-4.3 4.2-7 11.2-9.1 7.1-2.2 15.8-3.7 20.3-5.3l34.3 0.1c10.5 8.5 27.6 2.4 42.1 4.6 19.8 2.9 16.6 15.1 38.5 15.4 19.1 0.3 37-4.6 55.9 1.4 20 6.4 30.6 7.4 52.1 6.4 11-0.6 35.6 3.7 48.9 9.6 11.8 5.2 14.7 11.6-8.8 16.9z"/>
						</g>
						<g id="&lt;Group&gt;">
							<path id="&lt;Path&gt;" class="s7" d="m132.5 749.6c-12-0.9-19.8-7.3-6.6-14.8 7.8-4.4 18-5.1 26.3-7.4-5.7 2.2-40.1 16.2-19.7 22.2z"/>
						</g>
						<g id="&lt;Group&gt;">
							<g id="&lt;Group&gt;">
								<path id="&lt;Path&gt;" class="s7" d="m314.1 735.1q0.8 0.8 1.6 1.5-0.3-0.3-0.6-0.5z"/>
								<path id="&lt;Path&gt;" class="s7" d="m382.2 740c-11.8-2.2-22.3-3.1-34.5-1.2-9.9 1.5-23.2 4.8-32-2.2 5 2.9 24.6-1.3 32.2-2.4 11-1.6 25-0.5 34.3 5.8z"/>
							</g>
						</g>
						<g id="&lt;Group&gt;">
							<path id="&lt;Path&gt;" class="s7" d="m287.1 733c-12.1 1.8-26.5 6.9-36.6-2.7h1.9c4.8 8.3 26.5-2.3 34.7 2.7z"/>
						</g>
						<g id="&lt;Group&gt;">
							<path id="&lt;Path&gt;" class="s7" d="m192.3 730.1q0.1-0.1 0.1-0.1 0 0.1 0 0.1-0.6 0.6-0.1 0z"/>
							<path id="&lt;Path&gt;" class="s7" d="m231.2 717c-9.1 10.6-28.5 1.3-38.8 13 6.2-13.2 19-10.6 27.5-17.8 12-10.1-12-10.3-18.6-12.8h1c7.7 0 41.6 3.1 28.9 17.6z"/>
						</g>
					</g>
					<g id="&lt;Group&gt;" style="opacity: .5;mix-blend-mode: multiply">
						<path id="&lt;Path&gt;" class="s6" d="m132.5 755.1c-13.3-2-29.4-7.7-17.3-21.2 8.8-9.8 30.8-5.5 40.7-17.3-11-12-43.3-1.8-42.5-11.5-1.3-4.3 4.2-7 11.2-9.1-0.3 3 2.9 5.7 12.1 7.3 9.9 1.7 36.9 2.7 42.7 13.2 8.3 14.9-25.2 16.6-22.7 28.4 2.5 11.8 30.6 11.4 38.8 10.4 5.1-0.5 15.8-3.7 25.9-5.5 3.3 1.2 5.6 2.7 5.5 4.9 2.4 13.1-64.8 4.9-94.4 0.4z"/>
					</g>
					<g id="&lt;Group&gt;" style="opacity: .5;mix-blend-mode: multiply">
						<path id="&lt;Path&gt;" class="s6" d="m407.9 745.1c-12.8 2.9-30.6-1.6-43.9-1.6-16.3 0-29.7 5.8-46 1.5-15.7-4.1-23.2-7.5-40.8-4.9-21.6 3.3-20.9 0-38.6-8.1-6.8-3.1-26.2-7-34.4-0.4l-0.9-0.4c15.5-9.4 24.7-13.6 43.3-11.5 15.1 1.7 26 6.7 41.3 3.6 17.1-3.4 26.9-0.3 41.9 6.8 15.6 7.3 30.3 3.2 47 4.1 10.1 0.5 25.5 7.4 34.7 2.2 4.2-2.4 5.6-5.3 5.2-8.2 11.8 5.2 14.7 11.6-8.8 16.9z"/>
					</g>
				</g>
			</g>
			<g id="&lt;Group&gt;">
				<g id="&lt;Group&gt;" style="opacity: .5;mix-blend-mode: multiply">
					<ellipse id="&lt;Path&gt;" class="s8" cx="570.1" cy="765.1" rx="179.4" ry="4.9"/>
				</g>
				<g id="&lt;Group&gt;">
					<g id="&lt;Group&gt;">
						<path id="&lt;Path&gt;" class="s9" d="m638.6 447q0 0.1-0.1 0.3c-1.6 8.3-4.6 17-5.6 25.3q-0.2 1.5-0.3 3c-4.6 1-9.9 2.8-14.5 3.1q-0.4 0-0.8 0 0-2.6-0.1-5.1c-1.5-25-10.9-48.4-18.9-72.4-4.3-13-5.1-23.9-4-32.8 0.5-4.2 1.5-8.1 2.8-11.5 1-2.6 2.1-5 3.4-7.1q6.4-11.1 15.1-15.7c8.3 2 14.5 16.2 18.8 26.6 4.3 10.5 6.6 21.5 7.5 32.8q0.4 4.9 0.6 9.8c0.3 14.3-1.2 29.6-3.9 43.7z"/>
					</g>
					<path id="&lt;Path&gt;" class="s10" d="m598.3 401.2c-4.3-13-5.1-23.9-4-32.8h7.4c1.1 3.2-0.7 11.3-0.1 16 0.6 5.8 1.7 11.1 3.8 16.5 3.9 10.5 8.2 20.8 10.7 31.5q5.5 23.3 1 40c-1.7-24.6-10.9-47.6-18.8-71.2z"/>
					<g id="&lt;Group&gt;">
						<path id="&lt;Path&gt;" class="s9" d="m396.2 467.3c9.8-25.1 9.8-52 11.5-78.9 1.3-20.3 7.9-33.3 15.5-41.5 1.9-2.1 3.8-3.9 5.8-5.4q10.1-7.8 19.9-8.9c6.9 5 7.4 20.6 7.4 31.8 0 11.3-2 22.4-5.3 33.2q-1.4 4.7-3.2 9.3c-5.1 13.4-12.2 26.9-20 39q-0.1 0.1-0.1 0.3c-5.3 8-12.3 15.7-16.2 24-4.9-0.8-10.8-1.2-15.3-2.9z"/>
						<g id="&lt;Group&gt;">
							<path id="&lt;Path&gt;" class="s10" d="m430.3 438.5c7.9-21.6 15.2-43.4 14.1-66.4-0.6-12.3-0.3-26.7-14.5-30.4q-0.4-0.1-0.9-0.2 10.1-7.8 19.9-8.9c6.9 5 7.4 20.6 7.4 31.8 0 11.3-2 22.4-5.3 33.2q-1.3 4-2.8 7.9c-5.3 14.2-12.9 28.6-21.2 41.4q0 0.1-0.1 0.2 1.8-4.3 3.4-8.6z"/>
						</g>
					</g>
					<g id="&lt;Group&gt;">
						<g id="&lt;Group&gt;">
							<path id="&lt;Path&gt;" class="s11" d="m475.4 327.7c-2.9 2.3-3.6 20.5-4.7 26-1.4 7-2.7 27.5-10.3 29.4-3.7 0.9-16.1-6.5-27.1-14.1-10.2-7.2-19.3-14.5-19.1-15.6 0.2-1.6 6.7-63.6 21-89.3l31 49z"/>
						</g>
						<g id="&lt;Group&gt;">
							<path id="&lt;Path&gt;" class="s12" d="m475.4 327.7c-2.9 2.3-3.6 20.5-4.7 26-1.4 7-2.7 27.5-10.3 29.4-3.7 0.9-16.1-6.5-27.1-14.1 7.4-3.7 13.3-10 15.5-19.1 2.4-10.1 1-20.9-0.5-30.9-0.9-5.4-5.8-17.1-3.9-20.7l21.8 14.8z"/>
						</g>
					</g>
					<g id="&lt;Group&gt;">
						<g id="&lt;Group&gt;">
							<path id="&lt;Path&gt;" class="s11" d="m435.9 264.2q0.8-1.7 1.9-3c1.5-1.9 3.1-3.4 4.8-4.7q2.2-1.7 4.5-3 2.6-1.3 5.2-2.2c9.3-3.4 19.2-3.7 26-7.5l51-7.4c2.6 1.2 8 2.7 14.3 4.6 2.6 0.8 5.4 1.6 8.2 2.5q0.3 0.1 0.7 0.2c3.5 1.1 7.2 2.4 10.9 3.8 6.8 2.6 13.6 5.8 19.6 9.6 16.7 10.5 7.8 28.2 6.7 36.1-5.5 41-35.7 123.1-32.6 161.7q0.1 0.4 0.1 0.8c-6.3 1.1-19 1.8-33.6 2-27.2 0.4-53.2-0.5-63.9-3.9-2-5.5-3.9-12.1-5.5-19.4-9.6-42.8-12.3-109.5-15.2-123-2.9-13.9-8.7-35.5-3.1-47.2z"/>
						</g>
						<g id="&lt;Group&gt;">
							<path id="&lt;Path&gt;" class="s13" d="m474.3 156.1q0 1.2 0 2.5-0.1-1.2 0-2.5z"/>
						</g>
						<g id="&lt;Group&gt;">
							<path id="&lt;Path&gt;" class="s9" d="m479.7 253.2c0.4-0.9-1.7-3.7-1.3-4.6 0.7-2.1 3.5-6.5 4.6-8.8 2.1-4.2-0.2-5.6 4.7-5.5q0.3 0 0.3-0.2 0-0.1 0-0.1c-0.1-0.4-0.4-1-0.6-1.6q-0.1-0.3-0.1-0.5c-0.8-6.3-0.7-15.1-4.3-19.4q-0.1-0.1-0.2-0.2l17.4-19.5c-1.2 2.8 5 13.9 6.8 17.4q0 0.1 0 0.1c2.1 3.6 8.5-35.1 10.9-31 1.9 3.2 4 45.3 12.6 59.3 2.3 3.7-5.7 11.4-7 15.6-2.2 7.1-22 20.1-30 18.2-5.8-1.4-17.4-11-13.8-19.2z"/>
							<path id="&lt;Path&gt;" class="s10" d="m487.7 234.3c0.2 0 0.3-0.1 0.3-0.2q0-0.1 0-0.1c-0.1-0.4-0.4-1-0.6-1.6q-0.1-0.3-0.1-0.5c1.4 0.5 2.3 0.9 2.3 0.9-1.3-6.2-2.5-15.5-6.6-20.3q-0.1-0.1-0.2-0.2l17.4-19.5c-1.2 2.8 5 13.9 6.8 17.4q0 0.1 0 0.1c2 4 8-11.5 10.4-7.5-0.8 32.6-22.7 49.2-34.5 38.8-0.4-4.6-0.1-7.4 4.8-7.3z"/>
						</g>
						<g id="&lt;Group&gt;">
							<path id="&lt;Path&gt;" class="s12" d="m483 239.8q-3.5 16.9 11.3 34c-5.5-1.1-21.9 1.3-27.1 4.8-5.9-12.8 8.8-39.2 15.8-38.8z"/>
						</g>
						<g id="&lt;Group&gt;">
							<path id="&lt;Path&gt;" class="s12" d="m526.6 229.1q5.9 1.4 16.2 12 3.5 33.1-2.8 41.4c-7.3-8.8-35.9-7.3-46.8-9.3q14.8-8 18.2-13.2 10.8-16.1 15.2-30.9z"/>
						</g>
						<g id="&lt;Group&gt;">
							<path id="&lt;Path&gt;" class="s12" d="m491.1 272.3l6.7 0.1c-0.6 1.2-1.8 5.8-1.8 20.8v0.1c0 9.9 0.2 18.2 1.1 26.5l-6.4 0.7c-0.9-8.7-1.1-17.1-1.1-27.2v-0.1c0-2.1 0-7.8 0.4-13.2 0.3-3.2 0.6-5.7 1.1-7.7z"/>
						</g>
						<g id="&lt;Group&gt;">
							<path id="&lt;Path&gt;" class="s12" d="m488.8 439.3c21.6-0.7 37.4-9.4 52.4-24.3 20.6-20.5 28.5-59.4 37.1-86.6 3-9.8 6.6-22.3 8.7-35.2h2.7c-5.5 41-32.3 110.6-29.1 149.2 0 0.3-3.4 13-3.4 13.3-6.3 1.1-19 1.8-33.6 2-27.2 0.4-53.2-0.5-63.9-3.9-2-5.5-3.9-12.1-5.5-19.4 11.9 3.6 24.1 5.3 34.6 4.9z"/>
						</g>
						<g id="&lt;Group&gt;">
							<path id="&lt;Path&gt;" class="s14" d="m441 149.8l7.2 2.1c0.9 2.9 2.5 5.3 3.1 8.2 0.7 3.4 0.1 7.4 0.5 10.8 0.8 7 2.8 14.6 3 21.5-4.4-6-8.6-12.1-11.9-18.6-3.2-6.5-3.1-14.7-1.9-24z"/>
							<g id="&lt;Group&gt;">
								<path id="&lt;Path&gt;" class="s9" d="m449.6 179.7c3.7-3.3 8.8 13.5 7.1 19.4-1.8 5.9-8.3 1.1-11.7-7.5-1.8-4.7 0.9-8.6 4.6-11.9z"/>
								<path id="&lt;Path&gt;" class="s10" d="m455.5 194.9c-1.1-4-2.9-7.4-4.5-6-1.6 1.4-2.9 3-3.5 4.7q-0.4-0.8-0.8-1.8c-1.4-3.4 0.7-6.3 3.4-8.8 2.3-2.1 5.4 6.5 5.4 11.9z"/>
							</g>
							<path id="&lt;Path&gt;" class="s9" d="m514.9 208c-0.7 2.7-1.4 5-1.9 6.5-2 6.2-5.9 13-11.2 18.1-4 3.8-9 6.7-14.6 7.4-4.2 0.6-14.4-4.2-22.9-14.7-2.5-3-4.7-6.5-6.7-10.4q-0.8-1.7-1.5-3.4c-7.6-17.9-3-20.8-5.3-33-1.4-7.3-7.6-25.4 1.6-37 10.6-13.4 32.4-10.9 39.7-7.2 2.8 1.4 10 2.4 12 4.1 16.3 14.4 12.8 31.1 13.3 36.9 1.2 13.8-0.6 25.3-2.5 32.7z"/>
							<path id="&lt;Path&gt;" class="s14" d="m480.7 163.9l1.4-0.5q0.7-0.2 1.6-0.4c3.7-0.7 9.4-0.6 14.8 1.6q-0.3 2.6-0.5 5.2c-3.9-1.2-8.4-1.1-11.8-0.5-1 0.2-1.7 0.4-2.1 0.6l-1.8 0.7z"/>
							<path id="&lt;Path&gt;" class="s14" d="m450.1 174.3c3.3-4.3 7.6-6.7 10.7-7.4q0.8-0.2 1.4-0.2l1.2-0.1 1.2 6.9-1.6-0.1c-0.3 0-0.9 0.1-1.7 0.3-2.4 0.6-5.4 1.9-7.7 4q-1.7-1.8-3.5-3.4z"/>
							<path id="&lt;Path&gt;" class="s10" d="m480 197.5l1.1 0.2c-2.7 4.4-10.2 5.5-12.8 0.4 3.9 0.7 9.1 0.1 11.7-0.6z"/>
							<g id="&lt;Group&gt;">
								<path id="&lt;Path&gt;" class="s11" d="m488.7 173.5c3.4-1.3 6.8 0.5 8.4 1.2 0.8 0.3-1.1 6.6-4.5 7.8-3.4 1.3-8.4-4.7-8-5.7 0.1-0.5 0.7-2.1 4.1-3.3z"/>
								<g id="&lt;Group&gt;">
									<path id="&lt;Path&gt;" class="s15" d="m492.1 182.5c-1.5 0.4-3.2-1.3-3.8-3.8-0.7-2.5 0-4.8 1.5-5.2 1.5-0.4 3.2 1.3 3.8 3.8 0.6 2.5 0 4.8-1.5 5.2z"/>
									<path id="&lt;Path&gt;" class="s16" d="m491.9 178.5c-0.4 0.1-0.8-0.4-1-1-0.1-0.7 0-1.3 0.4-1.4 0.4-0.1 0.9 0.4 1 1 0.2 0.7 0 1.3-0.4 1.4z"/>
									<path id="&lt;Path&gt;" class="s15" d="m497.1 174.7q-7.6-1.2-12.5 2.1 0.3-3.1 4.5-4.3 4.1-1.2 8 2.2z"/>
								</g>
							</g>
							<path id="&lt;Path&gt;" class="s14" d="m504.5 228.1q-1.1 2.4-2.7 4.5c-4 3.8-9 6.7-14.6 7.4-4.2 0.6-14.4-4.2-22.9-14.7-2.5-3-4.7-6.5-6.7-10.4 3.9-6.8 16.4-10.7 20.4-11.9 5.8-1.7 23-6.8 27.6-1.3 4.2 5.2 1.4 21-1.1 26.4z"/>
							<g id="&lt;Group&gt;">
								<path id="&lt;Path&gt;" class="s11" d="m458.6 180.2c2.8-1.2 5.8 0.6 7.2 1.3 0.8 0.4-0.2 6.4-2.9 7.6-2.8 1.2-7.6-4.7-7.4-5.7 0.1-0.5 0.4-2 3.1-3.2z"/>
								<g id="&lt;Group&gt;">
									<path id="&lt;Path&gt;" class="s15" d="m462.8 189c-1.1 0.5-2.9-1-3.9-3.4-1-2.4-0.9-4.7 0.3-5.2 1.1-0.5 2.9 1 3.9 3.4 1 2.3 0.8 4.7-0.3 5.2z"/>
									<path id="&lt;Path&gt;" class="s16" d="m461.9 185c-0.3 0.2-0.8-0.2-1-0.8-0.3-0.6-0.2-1.2 0.1-1.4 0.3-0.1 0.7 0.3 1 0.9 0.2 0.6 0.2 1.2-0.1 1.3z"/>
									<path id="&lt;Path&gt;" class="s15" d="m465.8 181.5q-6.5-1.3-10.3 1.9 0-3 3.3-4.1 3.4-1.1 7 2.2z"/>
								</g>
							</g>
							<g id="&lt;Group&gt;">
								<path id="&lt;Path&gt;" class="s10" d="m497 204.1c0.5 6.8-3.7 16.9-10.9 19.8q-12.3 4.9-21.2-10c7.4-0.3 27.5-6.4 32.1-9.8z"/>
								<g id="&lt;Group&gt;">
									<path id="&lt;Path&gt;" class="s17" d="m494.7 205.4c-5 9.2-11.7 13.2-21.6 14.1-1.1-1.5-1.9-3.9-2.2-5.3q15.4-3.6 23.8-8.8z"/>
								</g>
							</g>
							<path id="&lt;Path&gt;" class="s14" d="m476 121.4c5-0.4 16.2 0.2 20.7 10.1 12.7-5.9 15.6 3.6 17.3 14.6 1.8 11.1 8.5 19.2 3.4 29.1l-5.8 4.3c0.5-5-1.9-27.5-17.1-28.6-13.5 5-55 19.4-57.7-0.3-1.8-13.3 15.6-27.5 39.2-29.2z"/>
							<g id="&lt;Group&gt;">
								<path id="&lt;Path&gt;" class="s9" d="m526.7 181.7c-4.1 8.9-12.5 14.3-14.9 8.5-2.5-5.8 3.8-23.1 8.7-20.1 4.8 3 8.6 6.7 6.2 11.6z"/>
								<path id="&lt;Path&gt;" class="s10" d="m519.9 173.5c3.6 2.2 6.3 4.9 4.7 8.6q-0.5 0.9-1 1.8c-0.8-1.7-2.6-3.1-4.7-4.4-2.1-1.3-4.4 2.3-5.8 6.4 0-5.4 3.8-14.3 6.8-12.4z"/>
							</g>
							<g id="&lt;Group&gt;">
								<g id="&lt;Group&gt;">
									<path id="&lt;Path&gt;" class="s18" d="m467.3 111.2c11.6-1.6 36.5 0 48.2 8.5 1.9 1.3 3.5 2.7 4.9 4.2 7.2 7.5 6.4 14.6 5.9 20.9-0.5 6-4.3 12.9-7 18.5-1.9-1.3-9.5-4.5-18.9-8.2q-19-7.4-47.2-9c-3.6-10.4-2.2-32.8 14.1-34.9z"/>
								</g>
								<path id="&lt;Path&gt;" class="s19" d="m428.5 131.2q41.4-21.8 80.3 27.3c-20.8-8.3-53.2-1.4-68.7 1.8-7.5 1.5-34.5-17-11.6-29.1z"/>
								<path id="&lt;Path&gt;" class="s19" d="m516.2 121.3q-0.3-0.8-0.7-1.6c1.9 1.3 3.5 2.7 4.9 4.2 7.2 7.5 6.4 14.6 5.9 20.9-0.5 6-4.3 12.9-7 18.5-1.9-1.3-9.5-4.5-18.9-8.2 9.4-6.7 20-22 15.8-33.8z"/>
							</g>
						</g>
						<g id="&lt;Group&gt;">
							<g id="&lt;Group&gt;">
								<g id="&lt;Group&gt;">
									<path id="&lt;Path&gt;" class="s9" d="m555.8 749.7c-3.6 0.2-5.2-0.4-8.7-0.2 0.2-8-2.6-28.7-3.8-29.9l14.7 1.4c0 10 0.1 19.5-2.2 28.7z"/>
									<path id="&lt;Path&gt;" class="s20" d="m557.4 743.3c0.8 3.6 2.9 18.3 2.8 19.4l-29.1 0.3c-1.9-1 7.2-9.4 10.4-12.2 2.4-2.1 3.3-7 4-7.6z"/>
									<path id="&lt;Path&gt;" class="s21" d="m561 761.8l-29.2-0.7c0.3-0.4 1-3.5 1.7-4.7 0.9-1.7 1.9-3 3.5-4 3.3-1.9 7.5-1.7 11.3-1.7 2.9 0 7.3 0.3 9.7 2.1 3 2.4 1.8 6.1 3 9z"/>
									<path id="&lt;Path&gt;" class="s22" d="m530.5 763.1q-0.1-0.4-0.1-0.8c0-1.5 1-2.7 2.4-2.7h26.5c1.3 0 2.4 1.2 2.4 2.7q0 0.4-0.1 0.8z"/>
								</g>
								<g id="&lt;Group&gt;">
									<path id="&lt;Path&gt;" class="s18" d="m521.9 442q4 0.1 8.5-0.1 4-0.1 8.3-0.4 11.4-0.8 23-6.1c1.6 8.7 1.8 25.3 1.2 44.8-1.4 45.7-6.8 107.3-6.4 120.4 0.1 1.4 0.2 2.3 0.3 2.7 1.4 5.5 9.2 13.5 10.6 27.6 0.8 8.3-6.4 90.8-9.3 104l-14.6-0.2c-2.3-13.2-8-42.7-13.8-75-1.8-10.4-3.7-21.1-5.5-31.6-1.2-7.3-2.6-23.8-4.2-31.1-15.1-69.4-21.5-119.4-24.2-142.9-1.1-9.5-1.5-14.7-1.8-15q9.7 2.8 27.9 2.9z"/>
								</g>
								<path id="&lt;Path&gt;" class="s19" d="m558.1 734.9l-14.6-0.2c-2.3-13.2-8-42.7-13.8-75 9.3 2.6 18.6 1.3 27-8.3 11.5-13 1.9-33.2-0.6-48.1l0.4-2.7c0.1 1.4 0.2 2.3 0.3 2.7 1.4 5.5 9.2 13.5 10.6 27.6 0.8 8.3-6.4 90.8-9.3 104z"/>
							</g>
							<path id="&lt;Path&gt;" class="s9" d="m464 747.4c-3.6-0.4-5-1.3-8.5-1.8 1.7-7.8 2.7-28.6 1.8-30.1l14.1 4.1c-1.8 9.8-3.5 19.1-7.4 27.8z"/>
							<g id="&lt;Group&gt;">
								<path id="&lt;Path&gt;" class="s18" d="m469 733.3l-14.3-2.9c0.1-13.4 0-43.5 0.3-76.3 0.1-10.6 0.2-21.4 0.4-32.1 0.1-7.3 1.7-23.8 1.5-31.3-2.8-99.9-2.2-155.1-2.7-156.3l68.3 3.1c-0.1 29.9-27.4 145-30.3 163.5-0.2 1.4-0.3 2.3-0.3 2.7 0.4 5.6 6.6 14.9 5.4 29.1-0.7 8.3-23 88.1-28.3 100.5z"/>
							</g>
							<path id="&lt;Path&gt;" class="s19" d="m469 733.3l-14.3-2.9c0.1-13.4 0-43.5 0.3-76.3 8.6 4.3 18 4.8 28-3.1 13.7-10.7 8-32.4 8.2-47.4l1-2.6c-0.2 1.4-0.3 2.3-0.3 2.7 0.4 5.6 6.6 14.9 5.4 29.1-0.7 8.3-23 88.1-28.3 100.5z"/>
							<g id="&lt;Group&gt;">
								<path id="&lt;Path&gt;" class="s20" d="m433.5 755.2c1.9-1.4 5.4-1.2 8.8-2.2 1.1-0.3 2.2-0.6 3.2-0.9 1.7-0.6 3.1-1.2 3.9-2.1 0.2-0.2 4.4-4 5.1-7.1h12.9c1.7 3.6 1.3 8.1 1.3 11.9 0 0.7-0.1 1.9-0.2 3.3 0 1.6-0.1 3.4-0.3 4.6l-35.3-0.5c-1.9-0.9-1.3-5.6 0.6-7z"/>
								<path id="&lt;Path&gt;" class="s21" d="m434.2 753.2c2.3-1.8 6.7-2.1 9.7-2.1 3.7 0 7.9-0.2 11.2 1.7 1.7 0.9 2.7 2.3 3.6 3.9 0.6 1.3 1.3 4.4 1.7 4.7l-29.3 0.7c1.3-2.9 0-6.6 3.1-8.9z"/>
								<path id="&lt;Path&gt;" class="s22" d="m429.6 763q-0.1-0.3-0.1-0.8c0-1.4 1.4-2.6 3.1-2.6h34.3c1.7 0 3 1.2 3 2.7q0 0.4-0.1 0.7z"/>
								<g id="&lt;Group&gt;">
									<path id="&lt;Path&gt;" class="s22" d="m454.9 760.7c2.9-1.5 5.9-2.9 8.1-5.4 2-2.4 2.8-6 2.4-9.2-0.2-1-0.7-2.2-1.4-3.2h3.4c1.7 3.6 1.3 8.1 1.3 11.9 0 0.7-0.1 1.9-0.2 3.3 0 1.6-0.1 3.4-0.3 4.6h-16.3c0.9-0.9 1.8-1.4 3-2z"/>
								</g>
							</g>
							<path id="&lt;Path&gt;" class="s19" d="m493.2 479.7c6 10.8 11.4 27.6 13.2 52.7l-14.9 71.7q0-0.7 0-1.4c0.4-22.2 9.3-83 1.7-123z"/>
						</g>
						<g id="&lt;Group&gt;">
							<path id="&lt;Path&gt;" class="s18" d="m538 310c-12.1 46.9-6.9 144.1-6.6 144.5l-76.4-0.8q-1.3-3.2-20.2-148.6 64.2-5.7 103.2 4.9z"/>
						</g>
						<g id="&lt;Group&gt;">
							<path id="&lt;Path&gt;" class="s18" d="m538.7 264.5c4.3-7.8 9-14.8 13.8-20.8 3.5 1.1 7.2 2.4 10.9 3.8-5.4 6.2-10.5 13.7-15.2 22.3-11.4 20.7-19.5 46.2-21.1 66.6l-10.8-0.9c1.7-22.1 10.1-48.7 22.4-71z"/>
						</g>
						<g id="&lt;Group&gt;">
							<path id="&lt;Path&gt;" class="s18" d="m437.8 261.2c1.5-1.9 3.1-3.4 4.8-4.7q2.2-1.7 4.5-3-0.3 4.1-0.4 8.4c-0.4 23.7 4.4 50 12.5 68.8l-10 4.3c-8.5-19.8-13.4-46-13.3-70.8q0.8-1.7 1.9-3z"/>
						</g>
						<path id="&lt;Path&gt;" class="s19" d="m507.6 322.5v17.6c-16.6-0.1-31.3-0.7-46.1-0.4v-17.9z"/>
					</g>
					<g id="&lt;Group&gt;">
						<path id="&lt;Path&gt;" class="s11" d="m621.2 363.6c-8.4 10.4-24.7 15.1-28.5 15.3-6.5 0.2-17.7-30.7-23.2-41.5-1.1-2.1-1.9-3.5-2.5-3.7l1.4-4.8 3.6-12.5 15.9-55c20 19.7 42.3 73.3 44.9 79.4q0.1 0.5 0.2 0.6c0.4 1-3.9 12.5-11.8 22.2z"/>
					</g>
					<g id="&lt;Group&gt;">
						<path id="&lt;Path&gt;" class="s12" d="m621.2 363.6c-8.4 10.4-24.7 15.1-28.5 15.3-6.5 0.2-11.9-14.9-17.4-25.8-0.2-0.8-6.1 7.6-6.2 7-0.3-1.8-0.5-28.9-0.7-31.2q-1-14.4 0.7-35.5c0 5.9 1 14.1 2.9 23 4 18.4 11.9 39.5 22.9 48.4 14.2 11.2 28.6-7.5 37.9-24q0.1 0.5 0.2 0.6c0.4 1-3.9 12.5-11.8 22.2z"/>
					</g>
					<path id="&lt;Path&gt;" class="s9" d="m400.1 462.7l12.4 1.5c-0.6 8.7-1.8 13.8-7 20.5-3 4-5.5 13.8-9.8 15.3-2.9-3.5-0.3-8-0.1-12.1-2.5 1.3-6.3 3.8-7.7 6.6-2.2 4.6 1.2 7.9 0 11.8-2.8 9.7-9.8-4-10.8-9.3-1.4-7 3.4-14.6 6.6-21.2 4-8.2 9.5-7.2 16.4-13.1z"/>
					<path id="&lt;Path&gt;" class="s9" d="m618.8 485c0.1 0.2-1.2 3.4-1.8 4.6-0.8 1.8-1.7 3.9-3.6 4.8-4.6 2-4-2.9-4-5.8 0-3.3-1.1-6 1.2-8.6 1.3-1.5 6.9-7.4 7.8-8.5z"/>
					<g id="&lt;Group&gt;">
						<g id="&lt;Group&gt;">
							<g id="&lt;Group&gt;">
								<path id="&lt;Path&gt;" class="s11" d="m611.1 533.5c0 2.6-1.4 4.7-3.2 4.7h-57.3c-1.7 0-3.2-2.1-3.2-4.7v-4.7c0-2.6 1.5-4.7 3.2-4.7l57.3 0.1c1.8 0 3.2 2.1 3.2 4.6z"/>
							</g>
							<g id="&lt;Group&gt;">
								<g id="&lt;Group&gt;">
									<path id="&lt;Path&gt;" class="s23" d="m599.6 498.9c-2.9 0-5.3-2.1-5.3-4.7v-0.9c0-2.6 2.4-4.7 5.3-4.7h49.9c2.9 0 5.3 2.1 5.3 4.7v0.9c0 2.6-2.4 4.7-5.3 4.7z"/>
								</g>
								<g id="&lt;Group&gt;">
									<rect id="&lt;Path&gt;" class="s23" x="593.8" y="489" width="10.3" height="53.5" rx="5"></rect>
								</g>
								<g id="&lt;Group&gt;">
									<rect id="&lt;Path&gt;" class="s23" x="644.3" y="488.5" width="10.6" height="54.8" rx="5"></rect>
								</g>
							</g>
							<g id="&lt;Group&gt;">
								<path id="&lt;Path&gt;" class="s24" d="m666.7 546v79.2c0 2.2-2.6 4-6 4.5q-1 0.2-2.1 0.2h-108.3c-4.5 0-8.1-2.1-8.1-4.7v-79.2c0-2.6 3.6-4.7 8.1-4.7l108.3 0.1q1.1 0 2.2 0.1c3.4 0.6 5.9 2.4 5.9 4.5z"/>
							</g>
							<g id="&lt;Group&gt;">
								<path id="&lt;Path&gt;" class="s11" d="m721.3 533.6c0 2.5-1.6 4.6-3.7 4.6h-67.1c-2 0-3.7-2.1-3.7-4.7v-4.6c0-2.6 1.7-4.7 3.7-4.7h67.1c2.1 0 3.7 2.1 3.7 4.7z"/>
							</g>
							<g id="&lt;Group&gt;">
								<path id="&lt;Path&gt;" class="s25" d="m720.8 546.1v79.1c0 2.6-1.8 4.7-4.1 4.7h-54.9q-0.5 0-1.1-0.2c-1.7-0.5-3-2.3-3-4.5l0.1-79.2c0-2.1 1.2-3.9 3-4.5q0.5-0.1 1.1-0.1h54.8c2.3 0 4.1 2.1 4.1 4.7z"/>
							</g>
							<g id="&lt;Group&gt;">
								<path id="&lt;Path&gt;" class="s26" d="m724.6 542.1v13.5l-186.5-0.1v-13.5c0-6.8 2.1-12.2 4.7-12.2h177.1c2.6 0 4.7 5.5 4.7 12.3z"/>
							</g>
							<g id="&lt;Group&gt;" style="mix-blend-mode: multiply">
								<rect id="&lt;Path&gt;" class="s26" x="548.6" y="551.5" width="26.3" height="33.3" rx="5"></rect>
							</g>
							<g id="&lt;Group&gt;" style="mix-blend-mode: multiply">
								<rect id="&lt;Path&gt;" class="s26" x="619.2" y="551.6" width="26.3" height="33.3" rx="5"></rect>
							</g>
							<g id="&lt;Group&gt;">
								<path id="&lt;Path&gt;" class="s27" d="m550 554.7v-11.1c0-2.6 2.1-4.7 4.7-4.7h14.9c2.6 0 4.7 2.1 4.7 4.7v11.1z"/>
							</g>
							<g id="&lt;Group&gt;">
								<path id="&lt;Path&gt;" class="s27" d="m620.7 554.7v-11.1c0-2.6 2.1-4.7 4.7-4.7h14.9c2.6 0 4.7 2.1 4.6 4.7v11.1z"/>
							</g>
							<g id="&lt;Group&gt;" style="mix-blend-mode: multiply">
								<path id="&lt;Path&gt;" class="s26" d="m720.8 551.8v16l-178.5-0.1q-0.1 0-0.1 0v-15.9q0.1 0 0.1 0z"/>
							</g>
							<g id="&lt;Group&gt;">
								<path id="&lt;Path&gt;" class="s28" d="m724.6 542.1v13.5h-69.8v-13.5c0-6.8 1.9-12.3 4.2-12.3h61.4c2.3 0 4.2 5.5 4.2 12.3z"/>
							</g>
							<path id="&lt;Path&gt;" class="s29" d="m729.3 552.1c0 1.9-1.6 3.5-3.5 3.5l-188.9-0.1c-2 0-3.5-1.6-3.5-3.5 0-1 0.4-1.8 1-2.5 0.6-0.6 1.5-1 2.5-1l188.9 0.1c1.9 0 3.5 1.5 3.5 3.5z"/>
							<g id="&lt;Group&gt;" style="opacity: .4;mix-blend-mode: multiply">
								<path id="&lt;Path&gt;" class="s26" d="m729.3 552.1c0 1.9-1.4 3.5-3.2 3.5h-74q-0.1-0.7-0.1-1.5v-3.7q0-1 0.3-1.9l73.8 0.1c1.8 0 3.2 1.5 3.2 3.5z"/>
							</g>
							<g id="&lt;Group&gt;">
								<g id="&lt;Group&gt;">
									<path id="&lt;Path&gt;" class="s12" d="m572.9 548.5c-2.6 4.5-3.4 20.4-4.9 25.3h-11.8c-1.6-8.5-1.9-17.4-1.4-25.3z"/>
								</g>
								<g id="&lt;Group&gt;">
									<path id="&lt;Path&gt;" class="s11" d="m569.6 548.5c-2.6 4.5-3.4 20.4-4.9 25.3h-11.8c-1.6-8.5-1.9-17.4-1.4-25.3z"/>
								</g>
								<path id="&lt;Path&gt;" class="s29" d="m557.4 548.5v5.4c0 1.1-1 2.1-2.1 2.1-0.6 0-1.1-0.2-1.5-0.6-0.4-0.4-0.6-0.9-0.6-1.5v-5.4z"/>
								<path id="&lt;Path&gt;" class="s29" d="m565.4 548.5v5.4c0 1.1-1 2.1-2.1 2.1-0.6 0-1.2-0.2-1.5-0.6-0.4-0.4-0.7-0.9-0.7-1.5v-5.4z"/>
							</g>
							<g id="&lt;Group&gt;">
								<g id="&lt;Group&gt;">
									<path id="&lt;Path&gt;" class="s12" d="m643.7 548.5c-2.6 4.5-3.4 20.4-4.9 25.3h-11.9c-1.5-8.5-1.9-17.4-1.3-25.3z"/>
								</g>
								<g id="&lt;Group&gt;">
									<path id="&lt;Path&gt;" class="s11" d="m640.4 548.5c-2.6 4.5-3.4 20.4-4.9 25.3h-11.8c-1.6-8.5-1.9-17.4-1.4-25.3z"/>
								</g>
								<path id="&lt;Path&gt;" class="s29" d="m628.2 548.5v5.4c0 1.2-1 2.1-2.1 2.1-0.6 0-1.2-0.2-1.5-0.6-0.4-0.4-0.7-0.9-0.6-1.5v-5.4z"/>
								<path id="&lt;Path&gt;" class="s29" d="m636.1 548.5v5.4c0 1.2-0.9 2.1-2.1 2.1-0.6 0-1.1-0.2-1.5-0.6-0.3-0.4-0.6-0.9-0.6-1.5v-5.4z"/>
							</g>
						</g>
						<g id="&lt;Group&gt;">
							<g id="&lt;Group&gt;" style="mix-blend-mode: multiply">
								<path id="&lt;Path&gt;" class="s26" d="m579 609.6h39.1v20.3h-39.1z"/>
							</g>
							<g id="&lt;Group&gt;">
								<path id="&lt;Path&gt;" class="s25" d="m613.5 609.6h4.6v20.3h-4.6z"/>
							</g>
						</g>
					</g>
					<path id="&lt;Path&gt;" class="s9" d="m638.6 497.1c-1.3 3.3-3.3 3.4-4.2 3.1-1.4-0.4-1.5-0.7-2.8-0.3-1.8 0.5-2.8 1.2-4.4 0.5-1.6-0.7-1.2-0.5-2.8-0.2-2.1 0.3-3 0.6-4.9 0-1.3-0.4-4.4 1-5.2 0.1-0.8-0.9-1-5.7-0.9-6.9 0.1-1.5 0.2-3.1 0.3-4.7 0.2-2 0.5-3.9 0.7-5.7 0.5-2.9 2.4-4.5 3.4-7l14.2-6.2c1.4 2.3 3.4 5.8 5 8.6 1.3 2.3 2.9 4.9 3 7.6 0.1 5.6-0.5 9-1.4 11.1z"/>
					<path id="&lt;Path&gt;" class="s10" d="m638.6 497.1c-1.3 3.3-3.3 3.4-4.2 3.1-1.4-0.4-1.5-0.7-2.8-0.3-1.8 0.5-2.8 1.2-4.4 0.5-1.6-0.7-1.2-0.5-2.8-0.2-2.1 0.3-3 0.6-4.9 0-1.3-0.4-4.4 1-5.2 0.1-0.8-0.9-1-5.7-0.9-6.9 0.1-1.5 0.2-3.1 0.3-4.7 0.5-4.2 2.6-7.8 3.2-9.3-1 5.6-1.9 11.6-1.5 17.4 2.6-2.5 4.1-0.7 6.4 1.1 2.1-1.8 5-2 7.4-0.4 1.9-2.1 3.2-0.8 5.2 0.1 1.4 0.7 3 0.4 4.2-0.5z"/>
				</g>
			</g>
			<g id="&lt;Group&gt;">
				<g id="&lt;Group&gt;" style="opacity: .5;mix-blend-mode: multiply">
					<ellipse id="&lt;Path&gt;" class="s8" cx="982.9" cy="765.2" rx="179.4" ry="4.9"/>
				</g>
				<g id="&lt;Group&gt;">
					<path id="&lt;Path&gt;" class="s30" d="m883 303.9q29-37.6 14.8-78l37.9 34.3c-2.7 8.4 3.8 42.3-2.9 47.9-6.1 5.1-14 4-27 2.8q-18.4 2.7-22.8-7z"/>
					<path id="&lt;Path&gt;" class="s31" d="m904.3 293.3l20.4 32.5c-1.2 4.2-6.4 21.6-8.3 25.8-3.3 7-5.8 7.8-13.5 10.3-24.2 8-75.1 26.9-64.4-21.5 3.6-16.3 51.8-37.8 65.8-47.1z"/>
					<g id="&lt;Group&gt;">
						<path id="&lt;Path&gt;" class="s32" d="m907.6 242.1q-0.3 0.4-0.5 0.9-2.6 4.7-4.8 9.8c-7.2 16.2-12.7 34.7-18.5 51.1-6.9 19.5-12.3 39.7-26.3 54.5-4.4 4.7-9.4 6.5-14.2 3.1-4.6-3.3-3.9-10.7-3.7-16.5l0.5-3.5 1.4-11c6.1-22.2 17.2-41.4 30.9-59.3 6.5-8.5 13.4-17.9 20.8-25.5q0 0 0.1-0.1 0.3-0.3 0.5-0.5 0.2-0.2 0.4-0.4c5.3-5.3 7.5-5.7 13.4-2.6z"/>
						<g id="&lt;Group&gt;">
							<path id="&lt;Path&gt;" class="s32" d="m922.1 221.8c-2.9 6-4.7 12.4-8.6 17.7-1.6 2.1-7.7 9.6-11.2 13.3-1.3 1.3-2.2 2.2-2.6 2.2l-0.3-0.3-5.8-7.4q0.1-1 0.2-2.2 0-0.3 0.1-0.6c0.5-6.4 1.8-15.4 5-19.9q0.5-0.8 1.3-1.6c3.4-3.8 9.4-8 13.2-10.1 2.9-1.7 5.4-2 7.1-1.4 3.1 1.2 4 5.4 1.6 10.3z"/>
							<path id="&lt;Path&gt;" class="s32" d="m902.1 233.4l-8.9 13.3c-0.1-5.4 0-11 1.5-16.1 1.3-4.2 2.1-11.5 4.9-14.7 3.8 1.9 3.5 14.1 2.5 17.5z"/>
						</g>
						<g id="&lt;Group&gt;">
							<path id="&lt;Path&gt;" class="s10" d="m922.1 221.8c-2.9 6-4.7 12.4-8.6 17.7-1.6 2.1-7.7 9.6-11.2 13.3-7.2 16.2-12.7 34.7-18.5 51.1-6.9 19.5-12.3 39.7-26.3 54.5-4.4 4.7-9.4 6.5-14.2 3.1-4.6-3.3-3.9-10.7-3.7-16.5l0.5-3.5c1.9 3.1 5.2 4.9 9.6 3.3 7.8-2.8 13.5-11.5 17-18.6 7.4-14.6 14.2-30.3 19.8-45.4 3.5-9.4 7.9-17.9 12.9-26.1q2.9-4.7 6-9.3 0.8-1.2 1.7-2.4c3.2-4.6 6.7-9 8.7-14.3 2-5.6 3.4-11.5 4.7-17.2 3.1 1.2 4 5.4 1.6 10.3z"/>
						</g>
					</g>
					<g id="&lt;Group&gt;">
						<g id="&lt;Group&gt;">
							<path id="&lt;Path&gt;" class="s33" d="m879.6 490.2l64.5-37.4c-3 17.1-0.4 36.2-2.3 53.9q-0.1 0.5-0.1 0.9c-2.4 20.2-36.1 122.7-24.7 151.6 6.4 16.2-7.9 70.1-16.3 92.1l-9.7-1.4c-0.2-5.3-1.5-20.8-2.6-38.7-1.4-23.8-2.3-51.8 0.8-65.4 7.2-31.7-4.3-148.2-9.6-155.6z"/>
						</g>
						<g id="&lt;Group&gt;">
							<path id="&lt;Path&gt;" class="s34" d="m888.8 711.2c20.5-0.2 22.9-33.5 22.7-48.8-0.1-6.8-2.3-12.7-2-19.6 0.3-6.5 1.4-13.7 2.4-20.4 2.9-19.1 6.4-38.5 9.2-57.9 1.4-10 2.1-19.9 3.2-30 1-9 0.1-17.7 0.1-26.9l17.4-0.9q-0.1 0.5-0.1 0.9c-2.4 20.2-36.1 122.7-24.7 151.6 6.4 16.2-7.9 70.1-16.3 92.1l-9.7-1.4c-0.2-5.3-1.5-20.8-2.6-38.7q0.2 0.1 0.4 0z"/>
						</g>
						<path id="&lt;Path&gt;" class="s11" d="m870.4 766.3c4-4.4 18.4-13.9 20.3-18.9l11.2 2.1c0 7.5 2.6 8.8-4.2 16.8z"/>
					</g>
					<g id="&lt;Group&gt;">
						<g id="&lt;Group&gt;">
							<path id="&lt;Path&gt;" class="s33" d="m929.1 501.6l57.7-47.2c-0.2 17.4 5.5 36 6.4 54q0 0.2 0 0.4c0.9 20.3-16 126.9-0.1 153.7 8.9 14.9 1.9 64.5-0.3 88.8h-11.1c-1.4-6.7-7.1-27.9-11.8-49.8-3.9-18.2-7.1-36.8-6.4-47.8 2.1-32.5-27.9-145.6-34.4-152.1z"/>
						</g>
						<g id="&lt;Group&gt;">
							<path id="&lt;Path&gt;" class="s34" d="m982.4 697.3c6.4-5.4 9-14.2 9.3-22 0.4-7.2-0.8-11.2-2.9-17.9-4.8-15.6-4.3-32.7-5.1-49.4-0.7-16.6 0.6-33 0.4-49.6 0-7.9-0.4-16-1.2-24.1-0.5-5.3-1.1-10.8-2.3-16-0.9-3.6-2.9-8.1-2.8-11.5l15.4 1.6q0 0.2 0 0.4c0.9 20.3-16 126.9-0.1 153.7 8.9 14.9 1.9 64.5-0.3 88.8h-11.1c-1.4-6.7-7.1-27.9-11.8-49.8 4.2 0.6 8.5-0.8 12.5-4.2z"/>
						</g>
						<path id="&lt;Path&gt;" class="s11" d="m985.7 766.4c-6.8-8-5.2-10.5-5.2-17.9l12.2-1.1c1.9 5 13.8 13.7 13.4 19z"/>
					</g>
					<path id="&lt;Path&gt;" class="s35" d="m874.3 502c0.8-32.6 11.5-186.7 27.7-206.9q2.5-3.1 16.3-5.5c10.9-5.3 28.6 9.9 40.1 9.2 13.6-0.7 11.7-5.8 25.4-0.7-0.2 4.6-0.1 11.8 0.4 20.8 2.9 59.7 17.9 199 17.7 199.5-31.6 11.4-99.7 21.4-126.6-7.2-0.9-1-1.2-4.2-1-9.2z"/>
					<path id="&lt;Path&gt;" class="s36" d="m920.7 261.3c3.5-6.8 14.2-12.5 19.3-18.4 7.1-8.4 10.8-15.7 10.7-26.2l21.8 34.4c-2.2 4-2.1 10.5-3.1 15-1.4 6.7-3 13-6.1 19.2-3.5 7.1-9.3 20.2-18.7 20.4-8.9 0.1-20.4-9.5-23.3-17.4-2.3-6.2-3.7-20.7-0.6-27z"/>
					<g id="&lt;Group&gt;">
						<path id="&lt;Path&gt;" class="s9" d="m913.4 296.6c1-1.4 5.2-8.7 6.3-13.5q0.2-0.6 0.3-1.2c2-8.1 4.3-17.9 3.7-23q0-0.3 0-0.5h1l17.9-6.3 0.9-0.3q-0.4 0.4-0.8 1.4c-1.3 3.7 2.9 6.3 2.4 11.6-0.1 1 1 11.5 1.1 12.5 0 0.1 2.1 4 2.1 4.1 0.3 9.4 5.4 9.7 13 9.9-2.5 12.6-70.2 37.1-47.9 5.3z"/>
						<path id="&lt;Path&gt;" class="s10" d="m923.7 258.9q0-0.3 0-0.5h1l17.9-6.3q0.1 0.5 0.1 1.1c0.5 4.6 2.1 11.9 1.7 16.3 0 0.4-1.9 2.3-4.6 4.6-5.7 4.9-15.1 11.5-18.4 9.2q-0.8-0.6-1.4-1.4c2-8.1 4.3-17.9 3.7-23z"/>
					</g>
					<path id="&lt;Path&gt;" class="s9" d="m897.1 228.3c0.7-2.3 1.1-4.7 1.2-7 0.6-7.9-0.5-15.6 4-23.1 21.1-35.4 48.3-6.2 57.2 10.8 9 16.9-15.6 66.7-38.7 68.7-2.8 0.3-10.5-6.3-16.8-15.7-6-9-11.1-18.9-6.9-33.7z"/>
					<g id="&lt;Group&gt;">
						<path id="&lt;Path&gt;" class="s36" d="m941.9 221.9c-3.5-5.5-11.9-9.4-14.1-9.9l0.8-2.3c2.4 0.8 10.1 4.9 14.1 11.6z"/>
					</g>
					<g id="&lt;Group&gt;">
						<path id="&lt;Path&gt;" class="s36" d="m895.9 219.9c4-6.2 11.3-9.5 13.6-10l0.6 2.3c-2 0.3-10 3.3-13.5 8.3z"/>
					</g>
					<path id="&lt;Path&gt;" class="s10" d="m910.3 247.2l-0.5-0.9-0.2-0.4q-0.1-0.2-0.2-0.5l-0.6-1.1 1-0.4c0.4-0.1 0.8-0.4 1.1-0.7q0.6-0.5 1-1.1c0.6-0.9 1.1-1.9 1.4-2.9q0.4-1.6 0.4-3.2 0-0.4 0-0.9-0.1-0.4-0.1-0.8-0.1-0.4-0.2-0.8-0.1-0.4-0.2-0.8 0.2 0.4 0.3 0.8 0.2 0.3 0.3 0.8 0.2 0.4 0.3 0.8 0.1 0.4 0.2 0.8 0.3 1.7 0 3.5-0.2 1.8-1 3.5-0.3 0.8-0.9 1.6-0.3 0.3-0.6 0.6l0.6 0.7 1.2 1.4 0.3 0.4q-1.3 0.6-2.6 1.3l-0.1-0.1z"/>
					<path id="&lt;Path&gt;" class="s11" d="m931.8 225c3.8 0.1 6.5 3 7.8 4.3 0.7 0.6-3.5 6-7.2 5.9-3.8 0-6.5-7.6-5.8-8.5 0.3-0.4 1.5-1.7 5.2-1.7z"/>
					<g id="&lt;Group&gt;">
						<ellipse id="&lt;Path&gt;" class="s15" cx="932.4" cy="230.3" rx="2.9" ry="4.8"/>
						<path id="&lt;Path&gt;" class="s16" d="m933.2 231c-0.4 0-0.7-0.6-0.7-1.3 0-0.7 0.3-1.2 0.8-1.2 0.4 0 0.7 0.6 0.7 1.2 0 0.7-0.4 1.3-0.8 1.3z"/>
						<path id="&lt;Path&gt;" class="s15" d="m939.6 229.3q-6.9-4-13-2.6 1.5-2.8 6-2.4 4.5 0.3 7 5z"/>
					</g>
					<path id="&lt;Path&gt;" class="s11" d="m902.8 223.1c3-0.1 5 2.8 6 4 0.5 0.7-2.9 6.1-5.9 6.2-2.9 0-4.8-7.4-4.2-8.4 0.2-0.4 1.1-1.7 4.1-1.8z"/>
					<g id="&lt;Group&gt;">
						<ellipse id="&lt;Path&gt;" class="s15" cx="903.1" cy="228.3" rx="2.3" ry="4.8"/>
						<path id="&lt;Path&gt;" class="s16" d="m903.7 229c-0.3 0-0.5-0.5-0.5-1.2 0-0.7 0.3-1.3 0.6-1.3 0.4 0 0.6 0.5 0.6 1.2 0 0.7-0.3 1.3-0.7 1.3z"/>
						<path id="&lt;Path&gt;" class="s15" d="m908.8 227.1q-5.3-3.7-10.1-2.2 1.2-2.8 4.7-2.6 3.5 0.2 5.4 4.8z"/>
					</g>
					<path id="&lt;Path&gt;" class="s31" d="m874.3 502q4.8 2.6 9.7 4.8c20.3 9.1 53.4 13.9 73.1 0.4 29.4-20.1 30.2-52.3 28.7-84.9-1.5-30.9-8.9-88.6-16.4-118.3l14.8 14.9c2.9 59.7 17.9 199 17.7 199.5-31.6 11.4-99.7 21.4-126.6-7.2-0.9-1-1.2-4.2-1-9.2z"/>
					<path id="&lt;Path&gt;" class="s10" d="m918.1 255.8l0.2 0.3c0.9 1.5 2.3 3.8 2.3 6.2 0 2.5-1.1 6.3-3.8 3.8-2.3-2.1-3.3-12.9 1.3-10.3z"/>
					<path id="&lt;Path&gt;" class="s31" d="m976.3 301.6l35.5 15.8c3.4 5.1 16.9 28.6 16.9 33.5 0 8.3-2.3 16.6-8 23.3-13.8 16.6-42.3-7.4-46.1-17.9-6.1-16.9-8.3-39.5 1.7-54.7z"/>
					<path id="&lt;Path&gt;" class="s30" d="m930.9 208.3c-0.6-2.8-0.3-6-1.7-8.8 0 2.9-0.8 6-0.9 8.8-5.9 0.8-11.3 0.6-17 1 1-3.9 0.8-7.7 1.9-11.6-1.7 2.8-2.4 9.6-4.8 11.7-2.6 2.3-9.8 1.8-13.4 2.1-1.8-8 7-21.4 12-25.4q2.2-1.8 9.5-6.1c26-10.6 44.6-1.4 55.6 21.2 8.1 16.7 37.4 103 9 123.2q-22.4 9.4-42-4 14.3-116-8.2-112.1z"/>
					<g id="&lt;Group&gt;">
						<path id="&lt;Path&gt;" class="s32" d="m980.7 243.9q0.1 0.1 0.2 0.3 0.3 0.3 0.5 0.6 0 0.1 0.1 0.2c6.3 8.5 11.9 18.6 17.2 27.9 11.2 19.5 19.8 40.1 22.9 62.9v11.1l-0.1 3.5c-0.5 5.8-0.8 13.2-5.8 15.9-5.1 2.7-9.9 0.2-13.6-4.9-12-16.5-14.7-37.3-19-57.5-3.6-17-6.5-36.1-11.6-53.1q-1.5-5.4-3.4-10.4-0.2-0.5-0.4-0.9c6.2-2.3 8.4-1.6 13 4.4z"/>
						<g id="&lt;Group&gt;">
							<path id="&lt;Path&gt;" class="s32" d="m958.9 207.5c1.8-0.4 4.2 0.2 6.9 2.2 3.4 2.6 8.8 7.6 11.7 11.8q0.7 0.9 1.1 1.8c2.6 4.9 2.6 13.9 2.4 20.4q0 0.3-0.1 0.5 0 1.2-0.1 2.3l-6.7 6.5-0.3 0.3c-0.4-0.1-1.2-1-2.3-2.5-3-4.2-8-12.4-9.3-14.7-3.2-5.8-4.1-12.4-6.2-18.6-1.8-5.2-0.4-9.3 2.9-10z"/>
							<path id="&lt;Path&gt;" class="s32" d="m982.7 213.6c1.9 3.9 1 11.1 1.1 15.4 0.3 5.4-0.9 10.9-2.3 16.1l-5.5-15.1c-0.2-3.5 2.6-15.5 6.7-16.4z"/>
						</g>
						<g id="&lt;Group&gt;">
							<path id="&lt;Path&gt;" class="s10" d="m958.9 207.5c0.6 5.8 1.2 11.8 2.4 17.6 1.2 5.5 4.1 10.4 6.8 15.3q0.7 1.3 1.3 2.6 2.5 5 4.7 10c3.9 8.8 7.2 17.8 9.4 27.6 3.5 15.7 8.3 32.2 13.6 47.6 2.6 7.5 7.1 16.9 14.5 20.7 4.1 2.2 7.6 0.8 10-2l-0.1 3.5c-0.5 5.8-0.8 13.2-5.8 15.9-5.1 2.7-9.9 0.2-13.6-4.9-12-16.5-14.7-37.3-19-57.5-3.6-17-6.5-36.1-11.6-53.1-3-4.2-8-12.4-9.3-14.7-3.2-5.8-4.1-12.4-6.2-18.6-1.8-5.2-0.4-9.3 2.9-10z"/>
						</g>
					</g>
				</g>
			</g>
			<g id="&lt;Group&gt;">
				<g id="&lt;Group&gt;">
					<path id="&lt;Path&gt;" class="s37" d="m1048.6-6.4h2.5l-0.1 50.7h-2.4z"/>
				</g>
				<g id="&lt;Group&gt;">
					<ellipse id="&lt;Path&gt;" class="s37" cx="1049.9" cy="24" rx="12.9" ry="13.7"/>
				</g>
				<g id="&lt;Group&gt;">
					<g id="&lt;Group&gt;">
						<path id="&lt;Path&gt;" class="s38" d="m1124.2 88h-147.4l55.5-64.2h32.8z"/>
					</g>
					<g id="&lt;Group&gt;" style="mix-blend-mode: multiply">
						<g id="&lt;Group&gt;">
							<path id="&lt;Path&gt;" class="s38" d="m1124.2 88h-85.9c8.1-9.6 14.2-20.3 17.3-31.3 3.1-10.7 4.5-21.9 3.4-32.9h6.1z"/>
						</g>
					</g>
				</g>
			</g>
			<g id="&lt;Group&gt;">
				<g id="&lt;Group&gt;">
					<path id="&lt;Path&gt;" class="s37" d="m417.4-6.6h2.5l-0.1 50.6h-2.4z"/>
				</g>
				<g id="&lt;Group&gt;">
					<ellipse id="&lt;Path&gt;" class="s37" cx="418.7" cy="23.7" rx="12.9" ry="13.7"/>
				</g>
				<g id="&lt;Group&gt;">
					<g id="&lt;Group&gt;">
						<path id="&lt;Path&gt;" class="s38" d="m493 87.8h-147.4l55.5-64.2h32.8z"/>
					</g>
					<g id="&lt;Group&gt;" style="mix-blend-mode: multiply">
						<g id="&lt;Group&gt;">
							<path id="&lt;Path&gt;" class="s38" d="m493 87.8h-85.9c8.1-9.6 14.3-20.4 17.3-31.3 3.1-10.8 4.5-21.9 3.4-32.9h6.1z"/>
						</g>
					</g>
				</g>
			</g>
		</g>
	</g>
</svg>