<svg version="1.2" xmlns="http://www.w3.org/2000/svg" viewBox="0 0 2888 2092" width="2888" height="2092">
	<title>OTU5ODQzMTM7-ai</title>
	<defs>
		<clipPath clipPathUnits="userSpaceOnUse" id="cp1">
			<path d="m1604.36 1336.77h-565.97v-1274.59h565.97z"/>
		</clipPath>
	</defs>
	<style>
		.s0 { fill: #f4b68c } 
		.s1 { fill: #3f434c } 
		.s2 { fill: #51a1a7 } 
		.s3 { fill: #ffd4b7 } 
		.s4 { fill: #d8cfb8 } 
		.s5 { fill: #efe7d0 } 
		.s6 { fill: #fcf8eb } 
		.s7 { fill: #db9c1d } 
		.s8 { fill: #d06a47 } 
		.s9 { fill: #ffffff } 
		.s10 { fill: #92bea3 } 
		.s11 { fill: #eaa732 } 
		.s12 { fill: #737861 } 
		.s13 { fill: #acdad7 } 
		.s14 { fill: #784057 } 
		.s15 { fill: #f09c72 } 
		.s16 { fill: #b8ddc5 } 
		.s17 { fill: none } 
		.s18 { fill: #d68472 } 
		.s19 { fill: #606060 } 
	</style>
	<g id=" 1">
		<g id="&lt;Group&gt;">
			<g id="&lt;Group&gt;">
				<g id="&lt;Group&gt;">
					<path id="&lt;Path&gt;" class="s0" d="m666.2 1956.9q-4.4 33.6 0.5 42.7 4.9 9.1 63.4 29.5l1.6 18.2h-120.2c-7.8 0-14.7-6.6-14.8-14.4-0.1-7.9 1.1-18.4 6.3-30.1 11-25-7.2-45.9-3.3-53.1 3.9-7.3 66-15.5 66.5 7.2z"/>
					<path id="&lt;Path&gt;" class="s1" d="m674.5 2048.6c-1.9 4.1-64.7 2.9-74.5 1.4-9.9-1.5-6.1-35.6-3.2-41 2.9-5.4 12 3.2 23.8 6q11.7 2.9 53.9 1.9 1.9 27.6 0 31.7z"/>
					<path id="&lt;Path&gt;" class="s1" d="m677 2002.8c66.9 8.3 79.6 28.6 81.6 38.6 0.6 3.1-1.4 7.2-4.6 7.2h-91.4c7.1-8.7 9.2-32.7 9.8-42.1 0.2-2.3 2.2-4 4.6-3.7z"/>
					<path id="&lt;Path&gt;" class="s2" d="m600.3 2045.6h157.1l0.6 6c0.1 1.5-1.1 2.8-2.6 2.8h-154.3c-2.1 0-4-1.7-4.2-3.8l-0.1-1.2c-0.1-2.1 1.4-3.8 3.5-3.8z"/>
				</g>
				<g id="&lt;Group&gt;">
					<path id="&lt;Path&gt;" class="s0" d="m234 1882.7q-17.5 29-16.7 39.3 0.8 10.3 46.2 52.5l-5.8 17.3-110.1-48.3c-7.2-3.2-10.8-12-7.8-19.2 3.1-7.2 8.5-16.3 17.9-25 20.1-18.4 11.8-44.9 18.3-49.9 6.5-5.1 66.7 12.3 58 33.3z"/>
					<path id="&lt;Path&gt;" class="s1" d="m204.8 1970.1c-3.4 2.9-60.5-23.4-68.9-28.8-8.4-5.3 8.8-35 13.6-38.8 4.9-3.8 9.8 7.8 19.4 15.1q9.6 7.3 48.6 23.4-9.3 26.1-12.7 29.1z"/>
					<path id="&lt;Path&gt;" class="s1" d="m225.4 1929.1c58 34.5 61.4 58.1 59.3 68.1-0.7 3.1-4.3 6.1-7.1 4.8l-83.8-36.7c10-5.2 21.6-26.3 25.9-34.6 1.1-2.1 3.6-2.8 5.7-1.6z"/>
					<path id="&lt;Path&gt;" class="s2" d="m138 1937.4l143.9 63.2-1.9 5.7c-0.5 1.5-2.1 2.2-3.5 1.5l-141.3-62c-1.9-0.8-3-3.1-2.3-5.1l0.4-1.2c0.7-2 2.8-2.9 4.7-2.1z"/>
				</g>
				<path id="&lt;Path&gt;" class="s0" d="m779.8 821l27.5 95.2c-6.8 1.5-14.1 2-22.1 1.3-178-15-273.8-256.9-280.4-279.5-5.1-17.6 72.2-39.4 107.3-3.4 40.4 41.6 143.5 197.7 167.7 186.4z"/>
				<g id="&lt;Group&gt;">
					<path id="&lt;Path&gt;" class="s3" d="m612.1 634.6c21.2 21.8 59.5 75 94.8 119.1-33.4 34.3-77.5 53-99.5 60.7-64.1-74.2-109.7-180.3-107.7-194 4.9-33 77.3-21.8 112.4 14.2z"/>
				</g>
				<path id="&lt;Path&gt;" class="s0" d="m890.7 643.8c3.8 10.8 15.9 250.1-83.4 272.4l-27.5-95.2q0.2-0.1 0.3-0.1c8.6-4.5 48.7-134 76.2-178.9 8.1-13.2 24.7-25.6 34.4 1.8z"/>
				<g id="&lt;Group&gt;">
					<rect id="&lt;Path&gt;" class="s4" x="1141.9" y="27.7" width="635" height="1942.6" rx="31.7"></rect>
					<rect id="&lt;Path&gt;" class="s5" x="1003.9" y="27.7" width="635" height="1942.6" rx="31.7"></rect>
					<path id="&lt;Compound Path&gt;" class="s4" d="m1604.4 1336.8h-566v-1274.6h566z"/>
					<path id="&lt;Path&gt;" class="s4" d="m629.8 62.2h357.5v1274.6h-357.5z"/>
					<path id="&lt;Path&gt;" class="s5" d="m680.9 62.2h357.5v1274.6h-357.5z"/>
					<path id="&lt;Path&gt;" class="s4" d="m1018.4 373.5h-317.5v-252h317.5z"/>
					<path id="&lt;Path&gt;" class="s4" d="m1018.4 805h-317.5v-252h317.5z"/>
					<path id="&lt;Path&gt;" class="s4" d="m1018.4 1236.5h-317.5v-252h317.5z"/>
					<path id="&lt;Path&gt;" class="s5" d="m1616.8 343.5h-578.4v-17.3h578.4z"/>
					<path id="&lt;Path&gt;" class="s5" d="m1616.8 772.8h-578.4v-17.3h578.4z"/>
					<path id="&lt;Path&gt;" class="s5" d="m1616.8 1202h-578.4v-17.3h578.4z"/>
					<g id="&lt;Group&gt;">
						<path id="&lt;Path&gt;" class="s6" d="m763.5 339.1c-1 17.7-7.9 31.6-25.1 30.6-17.5-1-22.4-15.7-21.3-33.3 1-17.7 12.3-31.4 25.1-30.6 12.8 0.7 22.4 15.7 21.3 33.3z"/>
						<path id="&lt;Path&gt;" class="s6" d="m823.3 339.1c-1 17.7-7.9 31.6-25.1 30.6-17.5-1.1-22.3-15.7-21.3-33.4 1.1-17.6 12.3-31.3 25.1-30.5 12.8 0.7 22.4 15.7 21.3 33.3z"/>
						<path id="&lt;Path&gt;" class="s6" d="m883.2 339.1c-1.1 17.6-8 31.6-25.2 30.6-17.4-1.1-22.3-15.7-21.3-33.4 1.1-17.6 12.3-31.3 25.1-30.5 12.9 0.7 22.4 15.6 21.4 33.3z"/>
						<path id="&lt;Path&gt;" class="s6" d="m943 339.1c-1.1 17.6-8 31.6-25.1 30.6-17.5-1.1-22.4-15.7-21.4-33.4 1.1-17.6 12.3-31.3 25.2-30.6 12.8 0.8 22.3 15.7 21.3 33.4z"/>
						<path id="&lt;Path&gt;" class="s6" d="m1002.8 339.1c-1.1 17.6-7.9 31.6-25.1 30.5-17.5-1-22.4-15.6-21.3-33.3 1-17.6 12.3-31.3 25.1-30.6 12.8 0.8 22.3 15.7 21.3 33.4z"/>
					</g>
					<path id="&lt;Path&gt;" class="s5" d="m700.9 373.5l13.1-21.1h289.9l14.5 21.1z"/>
					<g id="&lt;Group&gt;">
						<path id="&lt;Path&gt;" class="s7" d="m935 805h-55v-141h55z"/>
						<path id="&lt;Path&gt;" class="s7" d="m925.1 652.2v14.6h-17.6-17.6v-14.6q13.4-7.2 13.4-32.5h4.2 4.2q0 25.3 13.4 32.5z"/>
					</g>
					<g id="&lt;Group&gt;">
						<path id="&lt;Path&gt;" class="s8" d="m1003.3 805h-55.1v-141h55.1z"/>
						<path id="&lt;Path&gt;" class="s8" d="m993.3 652.2v14.6h-17.5-17.6v-14.6q13.4-7.2 13.4-32.5h4.2 4.2q0 25.3 13.3 32.5z"/>
					</g>
					<g id="&lt;Group&gt;">
						<path id="&lt;Path&gt;" class="s5" d="m836.6 663.7l-39.9 0.5c1.7-4.5 3.3-8.5 4.4-11.4q2.9-7.7 1.8-29.3l30.4-0.4q0.1 12.8-0.1 19.7c0 2.9 1.5 11.5 3.4 20.9z"/>
						<path id="&lt;Path&gt;" class="s1" d="m843.2 694.4c1.4 7.3 1.8 33.3 0.5 39.6-1.3 6.3-0.6 61.9-1.6 67.6-1.1 5.8-57 4-56.3-4.2 0.7-8.2 2.1-35.3 2.5-48.2 0.4-12.8-2.5-50.6 0.6-62.1 2-7.1 5-15.6 7.8-22.9l39.9-0.5c2.6 12.5 5.8 26.5 6.6 30.7z"/>
						<path id="&lt;Path&gt;" class="s8" d="m833.3 623.1l-30.4 0.4c-5.8-7.1-1.2-11.8 0.1-14.3 1.3-2.4 21.6-1.9 26.8-0.3 5.2 1.6 5.8 5.9 6.1 8.1q0.3 2.2-2.6 6.1z"/>
						<path id="&lt;Path&gt;" class="s8" d="m787.6 699.8l56.2-0.7c0.9 10.3 1 29.6-0.1 34.9-0.3 1.4-0.5 5.2-0.6 10.4l-54.8-1c-0.1-11.4-1.2-30.2-0.7-43.6z"/>
					</g>
					<g id="&lt;Group&gt;">
						<g id="&lt;Group&gt;">
							<path id="&lt;Path&gt;" class="s2" d="m769.6 1007l73 0.5 17.9 45.6-1.2 183.4-109-0.7 1.2-183.5z"/>
							<g id="&lt;Group&gt;">
								<path id="&lt;Path&gt;" class="s9" d="m786.3 1238.2q0 0 0 0c-1.2-0.1-2.2-1-2.2-2.3l1.3-182.9-15.3-39.1c-0.4-1.2 0.2-2.5 1.3-2.9 1.1-0.4 2.4 0.1 2.8 1.3l15.4 39.5q0.2 0.4 0.2 0.8l-1.3 183.4c0 1.2-1 2.2-2.2 2.2z"/>
							</g>
							<path id="&lt;Path&gt;" class="s10" d="m769.6 1007v-4.5c0-2 1.6-3.5 3.6-3.5l65.9 0.4c1.9 0 3.5 1.6 3.5 3.6v4.5z"/>
							<g id="&lt;Group&gt;">
								<path id="&lt;Path&gt;" class="s9" d="m858.7 1055.3q0 0 0 0l-71.2-0.5c-1.2 0-2.1-1-2.1-2.2 0-1.2 1-2.2 2.2-2.2q0 0 0 0l71.1 0.5c1.2 0 2.2 1 2.2 2.2 0 1.2-1 2.2-2.2 2.2z"/>
							</g>
						</g>
						<path id="&lt;Path&gt;" class="s6" d="m834.2 1023.2c1.1 6.5-3 12.6-9.1 13.7-6.1 1-11.9-3.5-13-10-1.1-6.5 2.9-12.7 9-13.7 6.1-1 12 3.4 13.1 10z"/>
					</g>
					<g id="&lt;Group&gt;">
						<path id="&lt;Path&gt;" class="s6" d="m963.5 1103.2l-9.3-10.1 10.5-9.7 9.3 10.1z"/>
						<path id="&lt;Path&gt;" class="s7" d="m883.8 1236v-150.2h58.3c3.9 0 7.6 1.6 10.3 4.5l14.7 16.2c2.4 2.6 3.6 5.9 3.6 9.4v120.6z"/>
						<path id="&lt;Path&gt;" class="s11" d="m896.6 1094.6l44.2 0.5c1.3 0 2.5 0.5 3.5 1.5l18.1 18.1c0.9 0.9 1.4 2.2 1.4 3.5v101.9c0 2.7-2.2 4.9-4.9 4.9h-62.4c-2.7 0-5-2.2-5-4.9v-120.5c0-2.8 2.3-5 5.1-5z"/>
					</g>
					<g id="&lt;Group&gt;">
						<path id="&lt;Path&gt;" class="s5" d="m1319 483.7q-5.3-22.2-4-26.7c1.4-4.4 113.1-2.2 122.9-2.2 9.8 0 119.7 0.9 120.6 2.2 0.9 1.4 0.5 130.1 0 139.2-0.4 9.1-4 89.2-3.1 98.1 0.9 8.9-16.5 11.2-31.6 11.8-15.1 0.6-201.3-1.1-208.6-4.6-7.2-3.6 4.3-26.4 4.9-28.6 0.6-2.2-28.2-109.5-1.1-189.2z"/>
						<path id="&lt;Path&gt;" class="s12" d="m1391.5 652.6c-0.1-1.1-0.1-1.9 0.1-2.1q-27.1-31.7 5.6-57.9c32.7-26.1 49.7 22.5 45.5 37.6q-4.2 15-19.3 21.4 0 21.5-22.2 13.3c-5.2-2-9.1-6.7-9.7-12.3z"/>
						<path id="&lt;Path&gt;" class="s12" d="m1492.6 559.5c-0.1-1-0.1-1.8 0.1-2.1q-27.1-31.7 5.6-57.8c32.7-26.2 49.7 22.5 45.5 37.5q-4.2 15.1-19.2 21.4 0 21.5-22.2 13.3c-5.3-1.9-9.1-6.7-9.8-12.3z"/>
						<path id="&lt;Path&gt;" class="s12" d="m1513 634.5c-0.3-0.8-0.5-1.4-0.4-1.6q-27.6-18.1-8.6-45.2c19.1-27 42.7 6.1 42.9 18.5q0.1 12.3-9.9 20.4 4.8 16.4-13.9 15.1c-4.4-0.4-8.4-3.1-10.1-7.2z"/>
						<path id="&lt;Path&gt;" class="s12" d="m1351.5 678c-0.3-0.8-0.5-1.4-0.3-1.6q-27.6-18.1-8.6-45.2c19-27.1 42.7 6.1 42.8 18.4q0.2 12.4-9.8 20.5 4.7 16.3-13.9 15c-4.5-0.3-8.4-3-10.2-7.1z"/>
						<path id="&lt;Path&gt;" class="s12" d="m1359.5 554.7c-0.3-0.7-0.5-1.3-0.4-1.5q-27.6-18.1-8.6-45.2c19.1-27.1 42.7 6.1 42.9 18.4q0.1 12.4-9.9 20.5 4.8 16.3-13.9 15c-4.4-0.3-8.4-3-10.1-7.2z"/>
						<path id="&lt;Path&gt;" class="s12" d="m1336.9 596.4c0.4-0.9 0.8-1.6 1.1-1.8q-8.9-40.7 32.3-48.3c41.1-7.6 33.1 43.3 22.3 54.6q-10.8 11.3-27 9.7-10.2 19-25.9 1.3c-3.7-4.2-4.8-10.2-2.8-15.5z"/>
						<path id="&lt;Path&gt;" class="s12" d="m1403.7 568.5c0-1 0.2-1.8 0.4-2q-21.8-35.6 14.6-56.3c36.4-20.7 45.5 30 39.1 44.3q-6.5 14.2-22.4 18.1-3.4 21.2-24 9.6c-4.9-2.7-7.9-8-7.7-13.7z"/>
						<path id="&lt;Path&gt;" class="s12" d="m1440.7 641.7c0.8-0.7 1.5-1.1 1.8-1.1q11-40.2 51-27.9c40 12.4 9.3 53.7-5.5 58.7q-14.8 5.1-28.5-3.9-17.8 12.1-23.5-10.8c-1.3-5.5 0.5-11.3 4.7-15z"/>
						<path id="&lt;Path&gt;" class="s12" d="m1465.8 619c-0.6-0.9-1-1.6-0.9-1.9q-38.8-15.4-22-53.8c16.7-38.4 54.4-3.3 57.7 12q3.4 15.3-7 27.9 10 19-13.4 22.1c-5.6 0.7-11.2-1.7-14.4-6.3z"/>
						<path id="&lt;Path&gt;" class="s8" d="m1558.9 474.6l-241.5 2c-0.4-2.2-0.9-4.7-1.3-7.1l242.8-2.6q0 3.4 0 7.7z"/>
					</g>
					<g id="&lt;Group&gt;">
						<g id="&lt;Group&gt;">
							<path id="&lt;Path&gt;" class="s7" d="m1098.4 676.8h-9.6v-33.1c0-2 1.2-3.8 3.1-4.5l44.6-17.3c1.5-0.5 3.2-0.3 4.5 0.6 1.3 0.9 2.1 2.3 2.1 3.9v30h-9.7v-22.9l-35 13.5z"/>
						</g>
						<g id="&lt;Group&gt;">
							<path id="&lt;Path&gt;" class="s10" d="m1322.8 637.5v84.7c0 4.4-2.6 8.5-6.6 10.4l-40.8 19.4c-4.8 2.3-10.1 3.5-15.5 3.5h-164.1c-6.4 0-11.6-5.2-11.6-11.6v-87.7z"/>
							<path id="&lt;Path&gt;" class="s2" d="m1262.6 658h-179.2c-1.5 0-1.9-2.2-0.4-2.7l52.5-18c2.2-0.8 4.4-1.1 6.7-1.1h182.7c1.3 0 1.7 1.9 0.4 2.3l-51.2 17.6c-3.7 1.3-7.6 1.9-11.5 1.9z"/>
						</g>
						<g id="&lt;Group&gt;">
							<path id="&lt;Path&gt;" class="s7" d="m1283 676.8h-9.7v-33.1c0-2 1.2-3.8 3.1-4.5l44.6-17.3c1.5-0.5 3.2-0.3 4.5 0.6 1.3 0.9 2.1 2.3 2.1 3.9v30h-9.7v-22.9l-34.9 13.5z"/>
						</g>
					</g>
					<g id="&lt;Group&gt;">
						<g id="&lt;Group&gt;">
							<path id="&lt;Path&gt;" class="s7" d="m1353 676.8h-9.6v-33.1c0-2 1.2-3.8 3.1-4.5l44.6-17.3c1.5-0.5 3.2-0.3 4.5 0.6 1.3 0.9 2.1 2.3 2.1 3.9v30h-9.7v-22.9l-35 13.5z"/>
						</g>
						<g id="&lt;Group&gt;">
							<path id="&lt;Path&gt;" class="s10" d="m1577.4 637.5v84.7c0 4.4-2.6 8.5-6.6 10.4l-40.8 19.4c-4.8 2.3-10.1 3.5-15.5 3.5h-164.1c-6.4 0-11.6-5.2-11.6-11.6v-87.7z"/>
							<path id="&lt;Path&gt;" class="s2" d="m1517.2 658h-179.2c-1.5 0-1.9-2.2-0.4-2.7l52.5-18c2.2-0.8 4.4-1.1 6.7-1.1h182.7c1.3 0 1.7 1.9 0.4 2.3l-51.2 17.6c-3.7 1.3-7.6 1.9-11.5 1.9z"/>
						</g>
						<g id="&lt;Group&gt;">
							<path id="&lt;Path&gt;" class="s7" d="m1537.5 676.8h-9.6v-33.1c0-2 1.2-3.8 3.1-4.5l44.6-17.3c1.5-0.5 3.2-0.3 4.5 0.6 1.3 0.9 2.1 2.3 2.1 3.9v30h-9.7v-22.9l-35 13.5z"/>
						</g>
					</g>
					<g id="&lt;Group&gt;">
						<g id="&lt;Group&gt;">
							<path id="&lt;Path&gt;" class="s7" d="m1145.8 589.3h-7.7v-26.3c0-1.5 1-3 2.4-3.5l35.5-13.7c1.1-0.5 2.5-0.3 3.5 0.4 1.1 0.7 1.7 1.9 1.7 3.2v23.7h-7.7v-18.2l-27.7 10.8z"/>
						</g>
						<g id="&lt;Group&gt;">
							<path id="&lt;Path&gt;" class="s10" d="m1280.7 558.1v67.2c0 3.6-2 6.8-5.2 8.3l-32.4 15.4c-3.8 1.8-8 2.8-12.3 2.8h-87.1c-5.1 0-9.2-4.1-9.2-9.2v-69.6z"/>
							<path id="&lt;Path&gt;" class="s2" d="m1233 574.4h-99.1c-1.3 0-1.6-1.7-0.4-2.1l41.7-14.3c1.7-0.6 3.5-0.9 5.3-0.9h101.9c1.1 0 1.3 1.5 0.3 1.8l-40.6 14c-2.9 1-6 1.5-9.1 1.5z"/>
						</g>
						<g id="&lt;Group&gt;">
							<path id="&lt;Path&gt;" class="s7" d="m1249.1 589.3h-7.7v-26.3c0-1.5 1-3 2.5-3.5l35.4-13.7c1.2-0.5 2.5-0.3 3.6 0.4 1 0.7 1.6 1.9 1.6 3.2v23.7h-7.6v-18.2l-27.8 10.8z"/>
						</g>
					</g>
					<g id="&lt;Group&gt;">
						<path id="&lt;Path&gt;" class="s13" d="m1376.4 195.3v94c0 4.9-2.8 9.4-7.3 11.5l-45.2 21.6c-5.4 2.5-11.2 3.8-17.2 3.8h-239.1c-7.1 0-12.9-5.7-12.9-12.8v-97.3z"/>
						<path id="&lt;Path&gt;" class="s2" d="m1309.7 218.1h-255.8c-1.8 0-2.2-2.4-0.5-3l58.2-20c2.4-0.8 4.9-1.3 7.5-1.3h259.7c1.5 0 1.9 2.2 0.4 2.7l-56.7 19.4c-4.1 1.5-8.4 2.2-12.8 2.2z"/>
						<circle id="&lt;Path&gt;" class="s1" cx="1274.2" cy="274.2" r="19.1"/>
						<path id="&lt;Path&gt;" class="s2" d="m1208.6 218.1q-1.8 7.7-18.8 8.1-17 0.5-22.1-8.1 20-7.9 40.9 0z"/>
						<circle id="&lt;Path&gt;" class="s1" cx="1331.8" cy="266.4" r="15.1"/>
						<circle id="&lt;Path&gt;" class="s1" cx="1097.3" cy="284.2" r="17.8"/>
						<path id="&lt;Path&gt;" class="s14" d="m1085 321.4c-4.8-0.3-8.8-3.6-9.7-8.2-1.6-7.7-1.5-19.1 10.7-24.9q19.3-9.2 39.6 9 4.1-10.5 12.4-11.6 8.3-1 17.7 9.8 2.8-33.2 39.1-30.4 36.4 2.8 31.3 23 16.6-13.1 31.1-12 14.5 1.2 23.9 9.5 4.2-25.6 22.1-24.9 17.9 0.7 26.7 14.3 14.7-20.8 25.5-19.9c19.8 1.7 11.8 34.2 11.5 38.1-0.2 3.9-26 12.9-36.1 18.2-10.1 5.2-15.2 8.7-43.7 9.4-22.5 0.5-160.6 2.6-202.1 0.6z"/>
						<circle id="&lt;Path&gt;" class="s1" cx="1154.5" cy="283.1" r="21.1"/>
						<circle id="&lt;Path&gt;" class="s1" cx="1227.3" cy="289.3" r="15.1"/>
						<circle id="&lt;Path&gt;" class="s1" cx="1197.1" cy="299.6" r="15.1"/>
						<circle id="&lt;Path&gt;" class="s1" cx="1298.5" cy="298.1" r="15.1"/>
						<circle id="&lt;Path&gt;" class="s1" cx="1340.6" cy="285.4" r="11.2"/>
						<circle id="&lt;Path&gt;" class="s1" cx="1359" cy="255.1" r="11.2"/>
						<circle id="&lt;Path&gt;" class="s1" cx="1260.3" cy="302" r="11.2"/>
						<circle id="&lt;Path&gt;" class="s1" cx="1195.2" cy="263.5" r="11.2"/>
						<circle id="&lt;Path&gt;" class="s1" cx="1118.1" cy="299.6" r="11.2"/>
						<circle id="&lt;Path&gt;" class="s1" cx="1077.6" cy="309.3" r="11.2"/>
					</g>
					<g id="&lt;Group&gt;">
						<path id="&lt;Path&gt;" class="s5" d="m1075 1123.1q82.3-25.3 145.6-22c63.4 3.2 133.8 15.2 142.5 19.1q8.7 3.9 10.2 34.8-1.5 32.1-75.9 33.9c-74.4 1.7-227.1-0.1-231.9-5-4.8-4.9-5.6-48.5 9.5-60.8z"/>
						<path id="&lt;Path&gt;" class="s8" d="m1089.6 1179.6q-9.1-3.2-9.5-11.9c-0.4-8.7 2.4-18.2 2.4-22.6 0-4.3 8.3-10.7 16.6-14.2 8.3-3.6 39.6-13.9 55.8-15.5 16.2-1.5 74.4-7.5 97.8-5.1 23.3 2.4 75.2 14.6 91.4 20.6 16.3 5.9 17.4 27.3 12.7 34-4.8 6.7-32.1 15.8-54.6 16.6-22.6 0.8-135.4 1.2-158.4 2q-22.9 0.8-54.2-3.9z"/>
						<path id="&lt;Path&gt;" class="s15" d="m1166.8 1155c-0.3 4-5 7.4-13.5 6.9-8.4-0.5-6.8-3.2-7.1-7.9q-0.3-4.8 4-5.8c20.5-1.1 16.9 2.9 16.6 6.8z"/>
						<path id="&lt;Path&gt;" class="s15" d="m1274 1128.2c2.3 3.2 0.9 8.9-5.9 13.9-6.9 5-7.4 2-10.6-1.5q-3.2-3.5-0.7-7c15.2-14 14.9-8.6 17.2-5.4z"/>
						<path id="&lt;Path&gt;" class="s15" d="m1295.3 1155c-0.9 3.9-6.2 6.4-14.4 4.5-8.2-1.9-6.2-4.3-5.7-9q0.5-4.7 4.9-5.1c20.5 2.5 16.1 5.7 15.2 9.6z"/>
						<path id="&lt;Path&gt;" class="s15" d="m1257.4 1168.8c-1 3.8-6.2 6.4-14.4 4.5-8.3-2-6.3-4.3-5.7-9q0.5-4.8 4.8-5.1c20.5 2.4 16.2 5.7 15.3 9.6z"/>
						<path id="&lt;Path&gt;" class="s15" d="m1335.5 1148.9c-0.9 3.8-6.2 6.4-14.4 4.5-8.3-2-6.3-4.3-5.7-9q0.5-4.8 4.8-5.1c20.5 2.4 16.2 5.7 15.3 9.6z"/>
						<path id="&lt;Path&gt;" class="s15" d="m1117.5 1153.3c-0.9 3.9-6.2 6.5-14.4 4.5-8.2-1.9-6.2-4.2-5.7-9q0.5-4.7 4.9-5c20.4 2.4 16.1 5.7 15.2 9.5z"/>
						<path id="&lt;Path&gt;" class="s15" d="m1194 1138.2c-0.3 4-5 7.4-13.5 6.9-8.4-0.5-6.9-3.2-7.1-7.9q-0.3-4.8 3.9-5.8c20.6-1.1 16.9 2.9 16.7 6.8z"/>
						<path id="&lt;Path&gt;" class="s15" d="m1201.6 1155.8c-1.7 3.6-7.4 4.9-15 1.2-7.6-3.7-5.2-5.6-3.6-10q1.6-4.5 5.9-3.9c19.4 6.9 14.5 9.2 12.7 12.7z"/>
					</g>
					<g id="&lt;Group&gt;">
						<path id="&lt;Path&gt;" class="s5" d="m1076.7 1045.9q82.4-25.3 145.7-22c63.3 3.3 134.4 21.3 143.1 25.3q8.8 3.9 9.6 28.7-1.5 32-75.9 33.8c-74.4 1.8-227.1-0.1-231.9-4.9-4.8-4.9-5.6-48.5 9.4-60.9z"/>
						<path id="&lt;Path&gt;" class="s12" d="m1091.4 1102.4q-9.1-3.2-9.5-11.9c-0.4-8.7 2.4-18.1 2.4-22.5 0-4.4 8.3-10.7 16.6-14.3 8.3-3.5 39.6-13.8 55.8-15.4 16.2-1.6 74.4-7.5 97.8-5.2 23.3 2.4 75.2 14.7 91.4 20.6 16.2 6 17.4 27.3 12.7 34.1-4.8 6.7-32.1 15.8-54.6 16.6-22.6 0.8-135.4 1.2-158.4 2q-22.9 0.8-54.2-4z"/>
					</g>
					<g id="&lt;Group&gt;">
						<path id="&lt;Path&gt;" class="s10" d="m1076.7 966.1q82.4-25.3 145.7-22c63.3 3.3 134.4 21.4 143.1 25.3q8.8 3.9 9.6 28.7-1.5 32-75.9 33.8c-74.4 1.8-227.1 0-231.9-4.9-4.8-4.9-5.6-48.5 9.4-60.9z"/>
					</g>
					<g id="&lt;Group&gt;">
						<g id="&lt;Group&gt;">
							<g id="&lt;Group&gt;">
								<path id="&lt;Path&gt;" class="s7" d="m1592.2 1048.5v103.8c0 4.1-2.4 7.8-6.1 9.6l-37.4 17.8c-4.5 2.1-9.3 3.2-14.2 3.2h-150.8c-5.9 0-10.6-4.8-10.6-10.6v-106.5z"/>
								<path id="&lt;Path&gt;" class="s8" d="m1536.9 1067.4h-164.5c-1.5 0-1.8-2-0.5-2.4l48.3-16.6c2-0.7 4-1 6.1-1h167.8c1.3 0 1.6 1.7 0.4 2.1l-47 16.2c-3.4 1.1-7 1.7-10.6 1.7z"/>
							</g>
						</g>
						<g id="&lt;Group&gt;">
							<path id="&lt;Path&gt;" class="s11" d="m1476.5 1145.1c-0.2-3.9 3.3-9.8 11.9-6.2q8.6 3.6-2.6 17.6h-6.9q-2.2-7.4-2.4-11.4z"/>
							<path id="&lt;Path&gt;" class="s11" d="m1455.7 1145.5c-2.2-3.3-2.3-10.2 7-11.4q9.3-1.3 6.8 16.4l-5.9 3.5q-5.8-5.2-7.9-8.5z"/>
							<path id="&lt;Path&gt;" class="s11" d="m1493.4 1115.6c0.6-3.9 5.1-9 12.9-3.7q7.7 5.2-6 16.7l-6.8-1.3q-0.7-7.7-0.1-11.7z"/>
							<path id="&lt;Path&gt;" class="s11" d="m1471 1107.4c2.9 2.7 4.6 9.3-4.1 12.8q-8.6 3.5-10.6-14.3l4.9-4.9q6.8 3.7 9.8 6.4z"/>
							<path id="&lt;Path&gt;" class="s11" d="m1429.6 1139.9c-1 3.9-6 8.5-13.2 2.5q-7.2-5.9 7.6-16.1l6.6 2q0 7.8-1 11.6z"/>
							<path id="&lt;Path&gt;" class="s11" d="m1537.7 1139.4c3.1-2.5 9.9-3.3 12.1 5.8q2.2 9.1-15.7 8.4l-4.1-5.5q4.6-6.2 7.7-8.7z"/>
							<path id="&lt;Path&gt;" class="s11" d="m1438.4 1106.6c-2 3.4-8.1 6.5-13.4-1.3q-5.3-7.7 11.7-13.4l5.8 3.8q-2.1 7.4-4.1 10.9z"/>
							<path id="&lt;Path&gt;" class="s11" d="m1407 1108.4c3.1 2.6 5.2 9-3.2 13.1q-8.5 4-11.5-13.7l4.6-5.1q7.1 3.2 10.1 5.7z"/>
							<path id="&lt;Path&gt;" class="s11" d="m1409.7 1152.9c4-0.1 9.8 3.4 6 12q-3.8 8.5-17.5-3l0.1-6.9q7.5-2.1 11.4-2.1z"/>
							<path id="&lt;Path&gt;" class="s11" d="m1532.2 1086.9c1.9-1.7 4.3-3.7 6.1-4.7 3.5-2 10.3-1.7 11 7.7 0.6 7-9.2 6.7-14.1 6.2-1.7-0.2-3.1-1.2-3.9-2.7l-0.2-0.4c-1.1-2.1-0.6-4.6 1.1-6.1z"/>
							<path id="&lt;Path&gt;" class="s11" d="m1515.6 1150.4c2.1 1.3 4.8 3 6.3 4.4 2.9 2.7 4.6 9.3-4.1 12.8-6.5 2.6-9.2-6.8-10.1-11.6-0.3-1.7 0.2-3.4 1.4-4.6l0.3-0.3c1.7-1.6 4.2-1.9 6.2-0.7z"/>
							<path id="&lt;Path&gt;" class="s11" d="m1559.3 1115c1.6-1.9 3.8-4.2 5.5-5.4 3.1-2.4 9.9-2.9 11.8 6.3 1.4 6.9-8.3 7.8-13.2 7.9-1.7 0-3.3-0.8-4.2-2.2l-0.3-0.4c-1.3-1.9-1.1-4.5 0.4-6.2z"/>
							<path id="&lt;Path&gt;" class="s11" d="m1569.4 1137.5c2.5 0.1 5.6 0.3 7.6 0.9 3.9 0.9 8.5 5.9 2.6 13.1-4.5 5.5-11.3-1.5-14.5-5.3-1-1.3-1.4-3.1-0.9-4.7l0.1-0.4c0.7-2.2 2.8-3.7 5.1-3.6z"/>
							<path id="&lt;Path&gt;" class="s11" d="m1479.2 1095.5c-0.3-2.5-0.5-5.6-0.3-7.7 0.5-4 4.8-9.2 12.8-4.4 6 3.7 0 11.5-3.4 15.1-1.1 1.2-2.8 1.8-4.4 1.6l-0.5-0.1c-2.3-0.4-4-2.2-4.2-4.5z"/>
							<path id="&lt;Path&gt;" class="s11" d="m1564.4 1079.5c1.2-2.2 2.8-4.9 4.1-6.5 2.6-3.1 9.1-5.1 13 3.4 3 6.4-6.3 9.5-11.1 10.7-1.6 0.4-3.4-0.1-4.6-1.2l-0.3-0.3c-1.7-1.6-2.2-4.1-1.1-6.1z"/>
						</g>
					</g>
					<g id="&lt;Group&gt;">
						<g id="&lt;Group&gt;">
							<g id="&lt;Group&gt;">
								<path id="&lt;Path&gt;" class="s10" d="m1564.4 960.7v73c0 2.9-1.6 5.6-4.3 6.8l-26.3 12.5c-3.1 1.5-6.5 2.3-10 2.3h-106.1c-4.2 0-7.5-3.4-7.5-7.5v-74.9z"/>
								<path id="&lt;Path&gt;" class="s8" d="m1525.5 974h-115.8c-1 0-1.3-1.4-0.3-1.7l33.9-11.7q2.1-0.7 4.4-0.7h118.1c0.9 0 1.1 1.2 0.2 1.5l-33 11.4c-2.4 0.8-4.9 1.2-7.5 1.2z"/>
							</g>
						</g>
						<g id="&lt;Group&gt;">
							<path id="&lt;Path&gt;" class="s16" d="m1483 1028.7c-0.1-2.8 2.3-6.9 8.4-4.4q6 2.6-1.8 12.4h-4.9q-1.6-5.2-1.7-8z"/>
							<path id="&lt;Path&gt;" class="s16" d="m1468.3 1028.9c-1.5-2.3-1.5-7.1 5-8q6.5-0.9 4.8 11.6l-4.2 2.5q-4-3.7-5.6-6.1z"/>
							<path id="&lt;Path&gt;" class="s16" d="m1494.9 1007.9c0.4-2.7 3.6-6.3 9-2.6q5.5 3.7-4.2 11.8l-4.7-1q-0.6-5.4-0.1-8.2z"/>
							<path id="&lt;Path&gt;" class="s16" d="m1479.1 1002.1c2.1 1.9 3.3 6.6-2.8 9q-6.1 2.5-7.5-10l3.4-3.4q4.8 2.5 6.9 4.4z"/>
							<path id="&lt;Path&gt;" class="s16" d="m1450 1025c-0.7 2.7-4.2 6-9.3 1.8q-5.1-4.2 5.3-11.3l4.7 1.4q0 5.4-0.7 8.1z"/>
							<path id="&lt;Path&gt;" class="s16" d="m1526.1 1024.6c2.2-1.7 6.9-2.2 8.5 4.2q1.6 6.4-11 5.9l-2.9-3.9q3.2-4.4 5.4-6.2z"/>
							<path id="&lt;Path&gt;" class="s16" d="m1456.2 1001.6c-1.4 2.4-5.7 4.5-9.4-0.9q-3.8-5.4 8.2-9.4l4.1 2.6q-1.5 5.2-2.9 7.7z"/>
							<path id="&lt;Path&gt;" class="s16" d="m1434.1 1002.9c2.2 1.7 3.6 6.3-2.3 9.1q-5.9 2.9-8-9.6l3.2-3.6q4.9 2.3 7.1 4.1z"/>
							<path id="&lt;Path&gt;" class="s16" d="m1436 1034.1c2.8 0 6.9 2.5 4.2 8.5q-2.7 6-12.3-2.1l0.1-4.8q5.2-1.5 8-1.6z"/>
							<path id="&lt;Path&gt;" class="s16" d="m1522.2 987.7c1.3-1.2 3-2.6 4.3-3.3 2.4-1.4 7.2-1.2 7.8 5.4 0.4 4.9-6.5 4.8-10 4.4-1.1-0.2-2.2-0.9-2.7-1.9l-0.2-0.3c-0.7-1.5-0.4-3.2 0.8-4.3z"/>
							<path id="&lt;Path&gt;" class="s16" d="m1510.5 1032.4c1.5 0.9 3.4 2.1 4.5 3.1 2 1.9 3.2 6.5-2.9 9-4.6 1.9-6.5-4.8-7.1-8.2-0.3-1.1 0.1-2.3 0.9-3.2l0.3-0.2c1.1-1.1 2.9-1.3 4.3-0.5z"/>
							<path id="&lt;Path&gt;" class="s16" d="m1541.3 1007.5c1.1-1.3 2.6-2.9 3.8-3.8 2.3-1.7 7-2 8.4 4.4 1 4.9-5.9 5.5-9.4 5.6-1.1 0-2.2-0.6-2.9-1.6l-0.2-0.2c-0.9-1.4-0.8-3.2 0.3-4.4z"/>
							<path id="&lt;Path&gt;" class="s16" d="m1548.4 1023.3c1.8 0.1 3.9 0.3 5.4 0.6 2.7 0.7 5.9 4.2 1.8 9.3-3.2 3.8-8-1.1-10.2-3.8-0.8-0.9-1-2.1-0.7-3.2l0.1-0.3c0.5-1.6 2-2.6 3.6-2.6z"/>
							<path id="&lt;Path&gt;" class="s16" d="m1484.9 993.7c-0.2-1.7-0.3-3.9-0.2-5.4 0.3-2.8 3.3-6.5 9-3 4.2 2.6 0 8-2.4 10.6-0.8 0.8-2 1.2-3.1 1.1l-0.3-0.1c-1.6-0.2-2.9-1.5-3-3.2z"/>
							<path id="&lt;Path&gt;" class="s16" d="m1544.9 982.5c0.8-1.6 1.9-3.5 2.9-4.6 1.8-2.2 6.3-3.6 9.1 2.4 2.1 4.5-4.4 6.7-7.8 7.5-1.2 0.3-2.4 0-3.2-0.8l-0.3-0.2c-1.2-1.1-1.5-2.9-0.7-4.3z"/>
						</g>
					</g>
					<g id="&lt;Clip Group&gt;" clip-path="url(#cp1)">
						<path id="&lt;Compound Path&gt;" class="s17" d="m1604.4 1336.8h-566v-1274.6h566z"/>
						<g id="&lt;Group&gt;">
							<path id="&lt;Path&gt;" class="s13" d="m1689.1 190.5v89.5c0 4.7-2.7 9-7 11l-43 20.5c-5.1 2.5-10.7 3.7-16.4 3.7h-227.6c-6.8 0-12.2-5.5-12.2-12.2v-92.6z"/>
							<path id="&lt;Path&gt;" class="s2" d="m1625.6 212.3h-243.6c-1.6 0-2-2.4-0.4-2.9l55.5-19c2.2-0.8 4.6-1.2 7-1.2h247.2c1.5 0 1.8 2 0.5 2.5l-54 18.5c-4 1.4-8.1 2.1-12.2 2.1z"/>
							<path id="&lt;Path&gt;" class="s2" d="m1529.4 212.3q-1.8 7.3-18 7.7-16.2 0.5-21-7.7 19.1-7.6 39 0z"/>
						</g>
					</g>
					<path id="&lt;Path&gt;" class="s8" d="m1087.6 1336.8q9.1-49.5 69.1-58.1 60-8.6 85.8 58.1z"/>
					<path id="&lt;Path&gt;" class="s12" d="m1355.5 1336.8l48.3-88 20.2 10.1-14.3 32.9 49.4-52.1 49.5 16.3-38.8 37.5h30.4l7.4 10.8-51.3 32.5z"/>
					<path id="&lt;Path&gt;" class="s8" d="m1285.5 1336.8q6.9-37.8 52.8-44.4 45.8-6.6 65.5 44.4z"/>
					<path id="&lt;Path&gt;" class="s8" d="m1206.1 1336.8q5.4-37.5 42.5-42.5 57.7-7.7 52.9 42.5z"/>
				</g>
				<path id="&lt;Path&gt;" class="s1" d="m463.3 585.5c-14.9 8.8-28.7 0.5-30.8-12.1q-2.2-12.5 13.9-22.2c22.3-3.1 31.8 25.6 16.9 34.3z"/>
				<path id="&lt;Path&gt;" class="s14" d="m550.4 1976.8q-6.7-231.6-7.6-305.4-0.4-24.4 7.2-99.6-11.4-18.1-13.6-24.2c-2.3-6.3-2.6-18.3-2.3-29 0.4-16.2-1.1-32.5-4.2-48.5l-34.1-172.5c-36.2 101.8-41.4 147.3-96.7 314q-14.7 44-133 300.2l-108.5-35.5q57.2-191.7 86.2-250.4c3.5-6.9 9.3-20.1 14.8-32.7 6.8-15.7-3.4-31.6 1.1-41 4.2-8.9 13.8-7.4 16.9-35.6 3.4-30.7 8.1-73.4 13.2-118.1 2.2-20.1-2.5-40.5-0.2-60.4 1.9-16 10.8-31.7 12.6-46.5 4.9-41.2 9.3-76.1 12.2-94.7q25.8-165.9 58.8-239.2c21.1-35.3 273.9-19.7 286.8 32.8 17.3 69.9 27.4 116.9 30.3 184.7 1.3 29 3.9 94.9 0.8 170-1.3 31.9 3.4 78.8 2 109.5-3.3 68.7-17.2 117.8-18.3 134.2q-8.2 124.6-3.4 380.2z"/>
				<path id="&lt;Path&gt;" class="s1" d="m492.7 495.5c6.5 11.7 11.7 60.3-20.8 68.7-32.6 8.4-55.3-24.1-51.8-50.2q3.6-26.1 23.3-33.4c22.2-4.1 42.9 3.3 49.3 14.9z"/>
				<path id="&lt;Path&gt;" class="s3" d="m397.7 996.1c-39.8 0-39.2-63.6-34.5-104 15.6-133.1-32.7-203.1 20.4-260.2 30.4-32.7 68.5-33.6 104.5-39.1 26.7-4 59.6 7.7 82.2 22.4 74.7 48.8 66.1 180.7 68.3 224.8 1.3 27.2 23.2 126.2 21.3 153-1.5 21.9-139.7 3.1-262.2 3.1z"/>
				<path id="&lt;Path&gt;" class="s0" d="m491.6 554.6q5.3 32.6 6.6 55.4c0.4 8-51.8 5.8-50.7 0.4q3.5-17.7 8-68.4z"/>
				<path id="&lt;Path&gt;" class="s0" d="m492.9 451.3c23.2-6.1 34.3 37.2 38.2 49.1 1.6 4.8 5.6 11.1 8.8 22.5 4.6 17.2-5 31.5-15.1 37.2-13.9 7.9-41.9 3.6-57.9-6.4-15.2-9.5-20.8-22.5-26.4-48.4-3.8-17.4 4.9-35.2 21.1-42.7 10-4.6 21.5-8.7 31.3-11.3z"/>
				<path id="&lt;Path&gt;" class="s9" d="m531.3 523q3.3 6.6-5.3 8.9-8.3 2.2-17-3.1z"/>
				<g id="&lt;Group&gt;">
					<path id="&lt;Path&gt;" class="s1" d="m483.9 515.5c-0.4 0-0.8-0.2-1.1-0.5-0.5-0.6-0.5-1.5 0.1-2.1 0.3-0.2 6.1-5.4 10.5-6.6 5.1-1.4 7 1.8 7.1 2 0.4 0.7 0.1 1.6-0.6 2-0.7 0.4-1.6 0.1-2-0.6 0-0.1-0.9-1.3-3.7-0.6-3.1 0.9-7.8 4.6-9.3 6-0.3 0.3-0.6 0.4-1 0.4z"/>
				</g>
				<g id="&lt;Group&gt;">
					<path id="&lt;Path&gt;" class="s1" d="m518.7 502.8q-0.4 0-0.8-0.2c-0.7-0.5-0.8-1.4-0.4-2.1 1.4-2 5.2-5.2 9.6-2.9 0.7 0.4 1 1.2 0.6 2-0.4 0.7-1.2 0.9-2 0.6-3.2-1.7-5.7 1.8-5.8 2-0.2 0.4-0.7 0.6-1.2 0.6z"/>
				</g>
				<g id="&lt;Group&gt;">
					<path id="&lt;Path&gt;" class="s1" d="m480.1 504.3c-0.4 0-0.9-0.2-1.1-0.5-0.6-0.6-0.5-1.5 0.1-2.1 5.9-5.2 15.2-8.3 15.6-8.5 0.8-0.2 1.6 0.2 1.8 1 0.3 0.7-0.1 1.5-0.9 1.8-0.1 0-9.1 3.1-14.6 8-0.3 0.2-0.6 0.3-0.9 0.3z"/>
				</g>
				<path id="&lt;Path&gt;" class="s1" d="m494 429.3c36 0 33.6 42.7 29.8 44.4q-3.8 1.8-36.2-9.8c-14.4-8.4-23.2-34.6 6.4-34.6z"/>
				<g id="&lt;Group&gt;">
					<path id="&lt;Path&gt;" class="s1" d="m526.8 492.6q-0.3 0-0.5-0.1c-2.6-1.2-6-2-9.9-2.6-0.8-0.1-1.3-0.9-1.2-1.7 0.1-0.8 0.8-1.3 1.6-1.2 4.2 0.6 7.8 1.5 10.6 2.8 0.8 0.3 1.1 1.2 0.8 1.9-0.3 0.6-0.8 0.9-1.4 0.9z"/>
				</g>
				<g id="&lt;Group&gt;">
					<path id="&lt;Path&gt;" class="s0" d="m458.2 536.6c-4.6 10.2-27.4-5.8-24.2-18.9 1.7-7 6.2-7.9 10-7.3 3.5 0.5 6.6 2.6 8.7 5.5 3.4 4.7 8.7 13.6 5.5 20.7z"/>
					<g id="&lt;Group&gt;">
						<path id="&lt;Path&gt;" class="s18" d="m452.7 535.8q-0.1 0-0.3 0c-0.8-0.2-1.3-1-1.1-1.8 0.2-0.9 0.3-3.1-0.6-3.6-0.7-0.3-1.8 0-2.9 0.2-1.6 0.3-3.6 0.8-5-0.7-1.7-1.6-4.3-5.6-4.4-9.6-0.1-4.4 3.4-5.9 3.5-5.9 0.8-0.3 1.6 0 1.9 0.8 0.3 0.7 0 1.6-0.7 1.9-0.2 0.1-1.8 0.9-1.7 3.1 0.1 3 2 6.3 3.4 7.7 0.3 0.3 1.5 0 2.4-0.2 1.5-0.3 3.2-0.7 4.8 0.1 2.6 1.3 2.6 4.9 2.2 6.9-0.2 0.7-0.8 1.1-1.5 1.1z"/>
					</g>
				</g>
				<path id="&lt;Path&gt;" class="s1" d="m502.9 469.9q-34.9 44.6-48.4 51.5c-13.5 6.9-9.4 27.6-24.8 20.6-7.3-3.3-29.4-39.2-21.6-72.6 3.4-15 30.5-44 58.8-41 36.7 3.8 44 23.4 36 41.5z"/>
				<g id="&lt;Group&gt;">
					<path id="&lt;Path&gt;" class="s18" d="m492.9 564.5q-0.1 0-0.2 0c-0.5-0.1-12.6-1.6-26.5-9.5-0.7-0.4-0.9-1.3-0.5-2 0.4-0.7 1.3-1 2-0.6 13.3 7.7 25.2 9.2 25.4 9.2 0.8 0.1 1.3 0.8 1.2 1.6 0 0.8-0.7 1.3-1.4 1.3z"/>
				</g>
				<path id="&lt;Path&gt;" class="s18" d="m510.9 505c-0.1-1 0.8-1.6 1.6-1 2.1 1.8 5.9 4.4 11.1 6.2 7.7 2.6 9 7.8 0.6 9.5-8.5 1.8-9.4 1.2-11.1-3.8-0.8-2.7-1.7-7.8-2.2-10.9z"/>
				<path id="&lt;Path&gt;" class="s1" d="m466.9 511.1q-3.3 7 2.1 13.9c3.2 4 3.7 9.2 3.7 12.8 0 3.6-2.4 7.6-3.9 6.3-1.4-1.3-0.8-7.5-3.7-10.4-2.8-2.8-17.5-10.1-19.3-17-1.8-6.9 14.4-8.4 21.1-5.6z"/>
				<g id="&lt;Group&gt;">
					<path id="&lt;Compound Path&gt;" class="s9" d="m568.5 1923c-1.2 0-2.2-1-2.2-2.2v-0.2l-0.2-17.4c0-1.2 0.9-2.2 2.1-2.2q0.1 0 0.1 0c1.2 0 2.2 0.9 2.2 2.1l0.2 17.7c0 1.2-1 2.2-2.2 2.2q0 0 0 0zm-0.4-35.3c-1.2 0-2.2-1-2.2-2.2l-0.2-17.6c0-1.2 0.9-2.2 2.2-2.2 1.1-0.1 2.2 0.9 2.2 2.1l0.2 17.7c0 1.2-1 2.2-2.2 2.2q0 0 0 0zm-0.4-35.3c-1.2 0-2.2-0.9-2.2-2.1l-0.2-17.7c0-1.2 1-2.2 2.2-2.2q0 0 0 0c1.2 0 2.2 1 2.2 2.2l0.2 17.6c0 1.2-1 2.2-2.2 2.2q0 0 0 0zm-0.4-35.2c-1.2 0-2.2-1-2.2-2.2l-0.1-17.7c-0.1-1.2 0.9-2.2 2.1-2.2q0 0 0.1 0c1.2 0 2.1 1 2.2 2.2l0.1 17.6c0 1.2-0.9 2.2-2.1 2.3q-0.1 0-0.1 0zm-0.3-35.3c-1.2 0-2.2-1-2.2-2.2l-0.2-17.6c0-1.2 1-2.2 2.2-2.2q0 0 0 0c1.2 0 2.2 0.9 2.2 2.1l0.2 17.6c0 1.3-1 2.3-2.2 2.3q0 0 0 0zm-0.4-35.3c-1.2 0-2.1-1-2.2-2.2l-0.1-17.6c0-1.2 0.9-2.2 2.2-2.2q0 0 0 0c1.2 0 2.2 1 2.2 2.2l0.1 17.6c0.1 1.2-0.9 2.2-2.1 2.2q0 0-0.1 0zm-0.3-35.3c-1.2 0-2.2-0.9-2.2-2.1q0-9.2-0.1-17.7c0-1.2 1-2.2 2.2-2.2q0 0 0 0c1.2 0 2.2 1 2.2 2.2q0.1 8.5 0.1 17.6c0 1.2-0.9 2.2-2.2 2.2q0 0 0 0zm-0.2-35.2c-1.2 0-2.2-1-2.2-2.2-0.1-6.5-0.1-12.4-0.1-17.7 0-1.2 0.9-2.2 2.1-2.2q0.1 0 0.1 0c1.2 0 2.2 1 2.2 2.2 0 5.3 0 11.2 0.1 17.7 0 1.2-1 2.2-2.2 2.2q0 0 0 0zm-0.2-35.3c-1.2 0-2.2-1-2.2-2.2q0-9.3 0.1-17.6c0-1.2 1-2.2 2.2-2.2q0 0 0 0c1.2 0 2.2 1 2.2 2.2q-0.1 8.3-0.1 17.6c0 1.2-1 2.2-2.2 2.2zm0.3-35.2q-0.1 0-0.1 0c-1.2 0-2.2-1-2.1-2.2q0.1-9.5 0.3-17.6c0-1.2 1-2.2 2.2-2.2q0 0 0 0c1.3 0 2.2 1 2.2 2.3q-0.2 8.1-0.3 17.5c-0.1 1.2-1 2.2-2.2 2.2zm0.8-35.2q0 0-0.1 0c-1.2 0-2.1-1-2.1-2.3 0.2-6.1 0.5-11.9 0.8-17.6 0-1.2 1-2.1 2.3-2 1.2 0 2.1 1.1 2.1 2.3-0.3 5.6-0.6 11.4-0.8 17.5 0 1.2-1 2.1-2.2 2.1zm1.6-35.1c-1.2 0-2.2-0.9-2.2-2.1-0.3-4.6-1.2-9.9-3-16.9-0.3-1.1 0.4-2.3 1.6-2.6 1.2-0.3 2.4 0.4 2.7 1.6 1.8 7.2 2.8 12.8 3.1 17.7 0 1.2-0.9 2.2-2.1 2.3q-0.1 0-0.1 0zm-7.9-34.2c-1 0-1.8-0.6-2.1-1.6l-1.9-6q-1.5-5.1-3.3-10.8c-0.3-1.1 0.3-2.4 1.5-2.7 1.2-0.4 2.4 0.3 2.8 1.4q1.7 5.7 3.3 10.8l1.8 6.1c0.3 1.1-0.3 2.4-1.5 2.7q-0.3 0.1-0.6 0.1zm-10.1-33.7c-0.9 0-1.8-0.6-2.1-1.6-1.6-5.8-3.1-11.4-4.6-17-0.3-1.2 0.4-2.4 1.6-2.7 1.2-0.3 2.4 0.4 2.7 1.6 1.4 5.6 2.9 11.1 4.5 16.9 0.4 1.2-0.3 2.4-1.5 2.7q-0.3 0.1-0.6 0.1zm-8.7-34.1c-1 0-1.9-0.7-2.2-1.7v-0.4c-1.3-5.5-2.5-11.1-3.6-16.9-0.3-1.1 0.5-2.3 1.7-2.5 1.2-0.3 2.3 0.5 2.6 1.7 1.1 5.7 2.3 11.3 3.5 16.7l0.1 0.5c0.3 1.1-0.4 2.3-1.6 2.6q-0.3 0-0.5 0zm-6.9-34.5c-1.1 0-2-0.7-2.2-1.8-0.9-5.7-1.9-11.5-2.8-17.4-0.2-1.2 0.7-2.4 1.9-2.5 1.2-0.2 2.3 0.6 2.5 1.8 0.9 5.9 1.8 11.7 2.8 17.3 0.2 1.2-0.6 2.4-1.8 2.6q-0.2 0-0.4 0zm-5.2-34.8c-1.1 0-2.1-0.8-2.2-1.9-0.8-5.8-1.5-11.7-2.1-17.6-0.2-1.2 0.7-2.2 1.9-2.4 1.2-0.1 2.3 0.8 2.5 2 0.6 5.8 1.3 11.6 2 17.4 0.2 1.2-0.7 2.3-1.9 2.5q-0.1 0-0.2 0zm-3.9-35c-1.1 0-2.1-0.9-2.2-2-1-10.9-1.4-17.6-1.4-17.7 0-1.2 0.9-2.2 2.1-2.3 1.2-0.1 2.3 0.9 2.3 2.1 0 0 0.4 6.7 1.4 17.5 0.1 1.2-0.8 2.3-2 2.4q-0.1 0-0.2 0z"/>
				</g>
				<path id="&lt;Path&gt;" class="s14" d="m422.4 1018.7q28.5-195 22-249.1-6.5-54.1-46.7-150.3 13.8-12.3 26.7-14.2 32.4 62.4 41.4 94.2h100.9q-23.6-88.6-36.7-102.5 15.3 0.9 34.5 14.9 33.5 61.5 41.7 97.4c8.2 36 26.3 168.3 32 202.8q5.7 34.5 13.2 95.7-195.9 57.6-229 11.1z"/>
				<path id="&lt;Path&gt;" class="s0" d="m504.6 599.5c8.9 3.1 18.8 33.3 6 49.5-12.8 16.2-67.6-23.3-64-40.6 3.9-18.8 49.1-11.9 58-8.9z"/>
				<path id="&lt;Path&gt;" class="s1" d="m395.6 781.5l242 15.2c0.5 16.3 0.5 30.3 0.9 40.6-29.3-0.1-77.4-1.9-127.6-11.3q-80.6-15.3-115.3-44.5z"/>
				<g id="&lt;Group&gt;">
					<path id="&lt;Compound Path&gt;" class="s9" d="m183.9 1870.4c-1.2 0-2.2-0.9-2.2-2.2 0-0.4 0.1-0.5 0.4-1.3l0.7-1.8c0.5-1.1 1.7-1.7 2.9-1.2 1.1 0.4 1.6 1.7 1.2 2.8l-0.9 2.3c-0.4 0.9-1.2 1.4-2.1 1.4zm7.5-18.7q-0.4 0-0.8-0.2c-1.1-0.4-1.6-1.7-1.2-2.8 1.9-4.8 4.1-10.3 6.5-16.4 0.5-1.1 1.8-1.7 2.9-1.2 1.1 0.4 1.7 1.7 1.2 2.8-2.4 6.2-4.6 11.7-6.5 16.4-0.4 0.9-1.2 1.4-2.1 1.4zm13.1-32.8q-0.4 0-0.8-0.2c-1.2-0.4-1.7-1.7-1.3-2.8q3.1-7.9 6.5-16.4c0.4-1.2 1.7-1.7 2.8-1.3 1.2 0.5 1.7 1.7 1.3 2.9-2.3 5.7-4.4 11.2-6.5 16.4-0.3 0.9-1.1 1.4-2 1.4zm12.8-32.9q-0.4 0-0.8-0.1c-1.1-0.5-1.7-1.7-1.2-2.9q3.1-8 6.3-16.4c0.5-1.1 1.8-1.7 2.9-1.3 1.1 0.5 1.7 1.7 1.2 2.9q-3.2 8.4-6.3 16.4c-0.3 0.9-1.2 1.4-2.1 1.4zm12.7-32.9q-0.4 0-0.8-0.1c-1.1-0.5-1.7-1.7-1.3-2.9q3.2-8.2 6.3-16.4c0.4-1.2 1.7-1.8 2.8-1.3 1.2 0.4 1.7 1.7 1.3 2.8q-3.1 8.3-6.2 16.5c-0.4 0.9-1.2 1.4-2.1 1.4zm12.4-33q-0.3 0-0.7-0.1c-1.2-0.5-1.7-1.7-1.3-2.9q3.1-8.3 6.1-16.5c0.4-1.1 1.6-1.7 2.8-1.3 1.1 0.4 1.7 1.7 1.3 2.8q-3 8.2-6.1 16.6c-0.3 0.9-1.2 1.4-2.1 1.4zm12.1-33.1q-0.3 0-0.7-0.1c-1.1-0.5-1.7-1.7-1.3-2.9q3-8.4 5.9-16.6c0.4-1.1 1.6-1.7 2.8-1.3 1.1 0.4 1.7 1.6 1.3 2.8q-2.8 8.1-5.9 16.6c-0.3 0.9-1.2 1.5-2.1 1.5zm11.7-33.3q-0.4 0-0.7-0.1c-1.2-0.4-1.8-1.7-1.4-2.8 2-6 3.8-11.6 5.5-16.8 0.3-1.1 1.6-1.7 2.7-1.4 1.2 0.4 1.8 1.6 1.5 2.8-1.7 5.1-3.5 10.8-5.6 16.8-0.3 0.9-1.1 1.5-2 1.5zm10.6-33.7q-0.3 0-0.6-0.1c-1.2-0.3-1.9-1.5-1.5-2.7 1.9-6.7 3.4-12.4 4.3-16.9 0.2-1.2 1.4-2 2.6-1.7 1.2 0.2 2 1.4 1.7 2.6-1 4.6-2.4 10.4-4.4 17.2-0.3 1-1.1 1.6-2.1 1.6zm8-34.3q-0.3 0-0.6 0c-1.2-0.4-1.9-1.6-1.6-2.7 1.7-6 3.7-11.5 6.2-16.9 0.5-1.1 1.8-1.5 2.9-1 1.1 0.5 1.6 1.8 1.1 2.9-2.4 5.1-4.4 10.4-5.9 16.1-0.3 1-1.2 1.6-2.1 1.6zm14.4-31.8q-0.6 0-1.1-0.3c-1-0.6-1.4-2-0.8-3 2.5-4.3 5.3-9.3 7.6-15.4 0.5-1.2 1.8-1.7 2.9-1.3 1.1 0.5 1.7 1.7 1.2 2.9-2.4 6.3-5.3 11.6-7.9 16-0.4 0.7-1.1 1.1-1.9 1.1zm12.5-32.6q-0.2 0-0.4 0c-1.2-0.3-2-1.4-1.8-2.6 1-5.2 1.7-10.9 2.1-17.2 0.1-1.2 1.2-2.1 2.4-2 1.2 0.1 2.1 1.1 2 2.3-0.4 6.5-1.1 12.3-2.2 17.7-0.1 1-1.1 1.8-2.1 1.8zm2.6-35q0 0 0 0c-1.2 0-2.2-1-2.2-2.2 0.1-5.8 0.2-11.8 0.5-17.7 0.1-1.2 1.1-2.1 2.3-2.1 1.2 0.1 2.2 1.1 2.1 2.4-0.3 5.8-0.4 11.7-0.5 17.4 0 1.2-0.9 2.2-2.2 2.2zm1.9-35.1q-0.2 0-0.3 0c-1.2-0.1-2.1-1.2-1.9-2.4 0.5-5.7 1.2-11.6 2.1-17.6 0.1-1.2 1.3-2 2.5-1.8 1.2 0.1 2 1.2 1.8 2.4-0.8 5.9-1.5 11.8-2.1 17.4-0.1 1.2-1 2-2.1 2zm4.8-34.8q-0.2 0-0.4-0.1c-1.2-0.2-2-1.3-1.8-2.5 1-5.5 2.1-11.2 3.3-17.3 0.2-1.2 1.4-2 2.6-1.8 1.2 0.3 1.9 1.4 1.7 2.6-1.2 6.1-2.3 11.8-3.2 17.3-0.2 1-1.2 1.8-2.2 1.8zm6.9-34.5q-0.2 0-0.5-0.1c-1.2-0.2-1.9-1.4-1.7-2.6q1.9-8.5 3.9-17.2c0.3-1.2 1.5-1.9 2.6-1.6 1.2 0.2 2 1.4 1.7 2.6q-2 8.6-3.9 17.2c-0.2 1-1.1 1.7-2.1 1.7zm7.8-34.3q-0.2 0-0.5-0.1c-1.2-0.3-1.9-1.5-1.6-2.6q1.9-8.5 3.9-17.2c0.2-1.2 1.4-1.9 2.6-1.6 1.2 0.2 1.9 1.4 1.7 2.6q-2 8.7-4 17.2c-0.2 1-1.1 1.7-2.1 1.7zm7.6-34.4q-0.2 0-0.4 0c-1.2-0.3-2-1.4-1.7-2.6 1.3-6.1 2.4-11.7 3.4-17.2 0.3-1.2 1.4-2 2.6-1.8 1.2 0.2 2 1.4 1.8 2.6-1.1 5.5-2.2 11.2-3.5 17.3-0.2 1-1.1 1.7-2.2 1.7zm6.6-34.5q-0.2 0-0.4-0.1c-1.2-0.2-2-1.3-1.8-2.5 1.1-6.4 1.9-12.2 2.6-17.3 0.1-1.2 1.2-2.1 2.4-1.9 1.2 0.1 2.1 1.2 1.9 2.4-0.6 5.2-1.5 11.1-2.5 17.5-0.2 1.1-1.1 1.9-2.2 1.9zm3.9-35q0 0 0 0c-1.3 0-2.2-1-2.2-2.2q0-1.1 0-2.2c0-6.7-0.7-11.2-1.4-14.8-0.2-1.2 0.6-2.4 1.8-2.6 1.2-0.2 2.3 0.5 2.5 1.7 0.8 3.8 1.5 8.7 1.5 15.7q0 1.1 0 2.3c0 1.2-1 2.1-2.2 2.1zm-4.6-34.7c-1.1 0-2.1-0.8-2.2-1.9-0.6-5.2-0.9-10.8-0.9-17.2v-0.6c0-1.3 1-2.2 2.2-2.2 1.2 0 2.2 0.9 2.2 2.2v0.6c0 6.2 0.3 11.7 0.9 16.6 0.1 1.2-0.8 2.3-2 2.5q-0.1 0-0.2 0zm-0.3-35.1q0 0-0.1 0c-1.2-0.1-2.1-1.1-2.1-2.4l0.1-0.7c0.4-5.8 0.8-11.5 1.3-16.9 0.2-1.2 1.2-2.1 2.4-1.9 1.3 0.1 2.1 1.1 2 2.4-0.5 5.3-1 10.9-1.3 16.7l-0.1 0.7c0 1.2-1 2.1-2.2 2.1zm3.4-35q-0.1 0-0.3-0.1c-1.2-0.1-2-1.2-1.8-2.4 0.8-6.2 1.7-12 2.8-17.5 0.2-1.2 1.3-2 2.5-1.8 1.2 0.3 2 1.4 1.8 2.6-1 5.4-2 11.2-2.8 17.3-0.1 1.1-1.1 1.9-2.2 1.9zm6.6-34.6q-0.2 0-0.5 0c-1.2-0.3-1.9-1.5-1.6-2.7 3.2-12 5.8-16.9 5.9-17.1 0.6-1.1 1.9-1.5 3-0.9 1 0.6 1.4 1.9 0.9 3-0.1 0-2.5 4.8-5.5 16.1-0.3 1-1.2 1.6-2.2 1.6z"/>
				</g>
				<g id="&lt;Group&gt;">
					<path id="&lt;Path&gt;" class="s0" d="m389.7 662.6q291.2 46 326 41.6c22.7-2.9 159.8-137.7 232.9-186.5 23.4-15.7 37.6 3.4 31 24.4-26.1 82.7-161.6 255-246.4 267.8q-106.4 16.1-348.4-32.3z"/>
					<g id="&lt;Group&gt;">
						<path id="&lt;Path&gt;" class="s3" d="m589.3 826q-94.2-6.7-204.5-48.4l4.1-115q128.9 15.2 209.8 26.7c4.6 15.4 12.2 87.5-9.4 136.7z"/>
					</g>
					<path id="&lt;Path&gt;" class="s0" d="m1060.3 466.4q-1.7 3.3-27.6 19.3 20.6-8.3 22.5-4c2 4.2-4.1 4.8-10.2 8.9-6.1 4.1-18.4 11.1-24.4 13.6-6 2.5-21.7 12.9-25.6 13.5-0.5 0.1-19.6 43.4-31.4 61.9-8.6 13.3-53.8-32.4-46.4-38.9 12.9-11.7 36.8-26.2 43.1-32.3q0.2-0.5 0.6-0.9c3.8-4.5 10.6-32.8 16.3-41 5.7-8.3 19.5-14.3 23.7-19.9 4.1-5.7 8.9-9.2 11-2 2.1 7.3-7.4 12.2-8.7 14.6q-1.4 2.4-5 7.4 27.6-13.1 30.7-14.8c3.2-1.6 19.6-7.9 21.6-6.6q2 1.2 2.2 5.3 5.2-4.3 8.4 1.4 3.3 5.6-4.5 8.5c2.2 0.1 5.5 2.8 3.7 6z"/>
					<g id="&lt;Group&gt;">
						<path id="&lt;Path&gt;" class="s1" d="m595.5 812.3q-0.8 0-1.6-0.3c-1.8-0.8-2.6-3-1.8-4.9 0.1-0.1 5.8-13.1 8.1-45 2.2-32.3-4.1-67.8-4.2-68.2-0.3-2 1-3.9 3-4.3 2-0.3 3.9 1 4.2 3 0.3 1.5 6.6 36.8 4.3 70-2.4 33.5-8.4 47.1-8.7 47.6-0.6 1.3-2 2.1-3.3 2.1z"/>
					</g>
				</g>
				<g id="&lt;Group&gt;">
					<path id="&lt;Path&gt;" class="s1" d="m495.8 1301.3q-0.6 0-1.2-0.2c-1.9-0.7-3-2.7-2.3-4.7 18.9-56.8 55.4-108.5 55.8-109 1.2-1.6 3.5-2 5.1-0.9 1.7 1.2 2.1 3.5 0.9 5.1-0.4 0.6-36.3 51.4-54.9 107.2-0.5 1.5-1.9 2.5-3.4 2.5z"/>
				</g>
			</g>
			<g id="&lt;Group&gt;">
				<path id="&lt;Path&gt;" class="s5" d="m1870.1 315.5l221.3-85 701.9-2.6 19.5 1644.7-349.7 108.9z"/>
				<path id="&lt;Path&gt;" class="s4" d="m1870.1 315.5l573.2-6.8 19.8 1672.8-573.2 6.8z"/>
				<g id="&lt;Group&gt;">
					<path id="&lt;Path&gt;" class="s1" d="m1871.2 1152c0-4.9 3.8-8.8 8.7-8.9l573.2-6.8c4.9 0 8.8 3.9 8.9 8.7 0 4.8-3.8 8.8-8.7 8.9l-573.2 6.8q-0.5 0-1-0.1c-4.4-0.4-7.8-4.1-7.9-8.6z"/>
				</g>
				<path id="&lt;Path&gt;" class="s6" d="m2382.6 842.5l42.5-0.5 3.2 270.4-42.5 0.5z"/>
				<path id="&lt;Path&gt;" class="s6" d="m2386.7 1190.1l42.5-0.5 3.2 270.4-42.5 0.5z"/>
				<path id="&lt;Path&gt;" class="s19" d="m2116 380.2l83-1 2.9 245.3-83 0.9z"/>
			</g>
			<g id="&lt;Group&gt;">
				<g id="&lt;Group&gt;">
					<circle id="&lt;Path&gt;" class="s13" cx="166.5" cy="769.1" r="15.3"/>
				</g>
				<g id="&lt;Group&gt;">
					<g id="&lt;Group&gt;">
						<path id="&lt;Path&gt;" class="s13" d="m170.2 755.8h-7.3v-44.6h7.3z"/>
					</g>
					<g id="&lt;Group&gt;">
						<path id="&lt;Path&gt;" class="s13" d="m166.6 729.8l-11.1-7.9 4.3-6 6.6 4.8 6.7-5.1 4.5 5.8z"/>
					</g>
					<g id="&lt;Group&gt;">
						<path id="&lt;Path&gt;" class="s13" d="m166.7 747.6l-16.5-11.7 4.3-6 12 8.6 11.8-9.2 4.5 5.8z"/>
					</g>
				</g>
				<g id="&lt;Group&gt;">
					<g id="&lt;Group&gt;">
						<path id="&lt;Path&gt;" class="s13" d="m154.7 762.1l-31-32.1 5.3-5.1 31 32.1z"/>
					</g>
					<g id="&lt;Group&gt;">
						<path id="&lt;Path&gt;" class="s13" d="m125.8 742.8l-1.1-7.3 8.1-1.2 1.2-8.3 7.3 1.1-2 13.7z"/>
					</g>
					<g id="&lt;Group&gt;">
						<path id="&lt;Path&gt;" class="s13" d="m131.7 756.5l-1.1-7.3 14.6-2.1 2.2-14.8 7.3 1-3 20.3z"/>
					</g>
				</g>
				<g id="&lt;Group&gt;">
					<g id="&lt;Group&gt;">
						<path id="&lt;Path&gt;" class="s13" d="m153.2 772.3l-44.7-1.6 0.3-7.3 44.6 1.5z"/>
					</g>
					<g id="&lt;Group&gt;">
						<path id="&lt;Path&gt;" class="s13" d="m119 778.5l-5.9-4.5 5-6.5-4.8-6.8 5.9-4.3 8.1 11.2z"/>
					</g>
					<g id="&lt;Group&gt;">
						<path id="&lt;Path&gt;" class="s13" d="m132.8 784.2l-5.9-4.5 9-11.6-8.7-12.2 6-4.3 11.9 16.6z"/>
					</g>
				</g>
				<g id="&lt;Group&gt;">
					<g id="&lt;Group&gt;">
						<path id="&lt;Path&gt;" class="s13" d="m126 810.6l-5-5.5 33.2-29.9 5 5.5z"/>
					</g>
					<g id="&lt;Group&gt;">
						<path id="&lt;Path&gt;" class="s13" d="m131.5 809.7l-0.9-8.2-8.2-1.5 1.3-7.2 13.6 2.5 1.5 13.6z"/>
					</g>
					<g id="&lt;Group&gt;">
						<path id="&lt;Path&gt;" class="s13" d="m145.4 804.3l-1.6-14.7-14.7-2.7 1.3-7.2 20.1 3.6 2.3 20.1z"/>
					</g>
				</g>
				<g id="&lt;Group&gt;">
					<g id="&lt;Group&gt;">
						<path id="&lt;Path&gt;" class="s13" d="m166.2 827.1l-7.4-0.5 3.1-44.6 7.4 0.5z"/>
					</g>
					<g id="&lt;Group&gt;">
						<path id="&lt;Path&gt;" class="s13" d="m169.6 822.6l-6.4-5.2-6.9 4.6-4.1-6.1 11.5-7.7 10.6 8.8z"/>
					</g>
					<g id="&lt;Group&gt;">
						<path id="&lt;Path&gt;" class="s13" d="m175.8 809l-11.4-9.4-12.4 8.3-4.1-6.1 17-11.3 15.6 12.9z"/>
					</g>
				</g>
				<g id="&lt;Group&gt;">
					<g id="&lt;Group&gt;">
						<path id="&lt;Path&gt;" class="s13" d="m200.9 815.8l-28.7-34.2 5.7-4.7 28.7 34.2z"/>
					</g>
					<g id="&lt;Group&gt;">
						<path id="&lt;Path&gt;" class="s13" d="m195.9 814.3l-7.2-1.6 3-13.5 13.6-1 0.6 7.3-8.2 0.6z"/>
					</g>
					<g id="&lt;Group&gt;">
						<path id="&lt;Path&gt;" class="s13" d="m183.1 807.1l-7.2-1.5 4.3-20 20.2-1.6 0.5 7.4-14.7 1.1z"/>
					</g>
				</g>
				<g id="&lt;Group&gt;">
					<g id="&lt;Group&gt;">
						<path id="&lt;Path&gt;" class="s13" d="m223.7 778.8l-44.4-4.7 0.8-7.3 44.4 4.7z"/>
					</g>
					<g id="&lt;Group&gt;">
						<path id="&lt;Path&gt;" class="s13" d="m212.8 785l-7.2-11.7 9.1-10.3 5.5 4.9-5.5 6.2 4.4 7.1z"/>
					</g>
					<g id="&lt;Group&gt;">
						<path id="&lt;Path&gt;" class="s13" d="m198.6 788.8l-10.8-17.4 13.5-15.1 5.5 4.9-9.8 11 7.8 12.8z"/>
					</g>
				</g>
				<g id="&lt;Group&gt;">
					<g id="&lt;Group&gt;">
						<path id="&lt;Path&gt;" class="s13" d="m179.2 763.8l-4.5-5.8 35.2-27.5 4.5 5.8z"/>
					</g>
					<g id="&lt;Group&gt;">
						<path id="&lt;Path&gt;" class="s13" d="m210.9 748.4l-13.4-3.4-0.6-13.7 7.4-0.3 0.3 8.2 8.1 2.1z"/>
					</g>
					<g id="&lt;Group&gt;">
						<path id="&lt;Path&gt;" class="s13" d="m203.3 761l-19.8-5-0.8-20.2 7.3-0.3 0.6 14.7 14.5 3.7z"/>
					</g>
				</g>
			</g>
			<g id="&lt;Group&gt;">
				<g id="&lt;Group&gt;">
					<circle id="&lt;Path&gt;" class="s13" cx="255.2" cy="492.1" r="21.8"/>
				</g>
				<g id="&lt;Group&gt;">
					<g id="&lt;Group&gt;">
						<path id="&lt;Path&gt;" class="s13" d="m260.4 473.2h-10.5v-63.9h10.5z"/>
					</g>
					<g id="&lt;Group&gt;">
						<path id="&lt;Path&gt;" class="s13" d="m255.3 436l-15.9-11.4 6.1-8.6 9.6 6.9 9.4-7.3 6.4 8.3z"/>
					</g>
					<g id="&lt;Group&gt;">
						<path id="&lt;Path&gt;" class="s13" d="m255.3 461.5l-23.5-16.9 6.2-8.5 17.1 12.2 16.9-13 6.5 8.3z"/>
					</g>
				</g>
				<g id="&lt;Group&gt;">
					<g id="&lt;Group&gt;">
						<path id="&lt;Path&gt;" class="s13" d="m238.2 482.2l-44.3-46 7.5-7.3 44.4 45.9z"/>
					</g>
					<g id="&lt;Group&gt;">
						<path id="&lt;Path&gt;" class="s13" d="m196.9 454.5l-1.5-10.4 11.6-1.7 1.7-11.8 10.4 1.5-2.8 19.6z"/>
					</g>
					<g id="&lt;Group&gt;">
						<path id="&lt;Path&gt;" class="s13" d="m205.4 474.2l-1.6-10.5 20.9-3 3.1-21.2 10.4 1.5-4.2 29z"/>
					</g>
				</g>
				<g id="&lt;Group&gt;">
					<g id="&lt;Group&gt;">
						<path id="&lt;Path&gt;" class="s13" d="m236.1 496.7l-63.9-2.2 0.4-10.5 63.8 2.2z"/>
					</g>
					<g id="&lt;Group&gt;">
						<path id="&lt;Path&gt;" class="s13" d="m187.1 505.6l-8.3-6.5 7.2-9.3-7-9.7 8.5-6.1 11.6 16.1z"/>
					</g>
					<g id="&lt;Group&gt;">
						<path id="&lt;Path&gt;" class="s13" d="m206.9 513.8l-8.4-6.4 12.9-16.7-12.5-17.4 8.6-6.2 17 23.8z"/>
					</g>
				</g>
				<g id="&lt;Group&gt;">
					<g id="&lt;Group&gt;">
						<path id="&lt;Path&gt;" class="s13" d="m197.2 551.4l-7.1-7.8 47.5-42.7 7 7.8z"/>
					</g>
					<g id="&lt;Group&gt;">
						<path id="&lt;Path&gt;" class="s13" d="m205.1 550.2l-1.3-11.6-11.8-2.2 1.9-10.3 19.5 3.5 2.1 19.5z"/>
					</g>
					<g id="&lt;Group&gt;">
						<path id="&lt;Path&gt;" class="s13" d="m225 542.4l-2.3-20.9-21.1-3.9 1.9-10.3 28.8 5.2 3.2 28.8z"/>
					</g>
				</g>
				<g id="&lt;Group&gt;">
					<g id="&lt;Group&gt;">
						<path id="&lt;Path&gt;" class="s13" d="m254.6 575.1l-10.5-0.7 4.5-63.7 10.5 0.7z"/>
					</g>
					<g id="&lt;Group&gt;">
						<path id="&lt;Path&gt;" class="s13" d="m259.5 568.7l-9-7.5-10 6.6-5.8-8.7 16.4-11 15.1 12.5z"/>
					</g>
					<g id="&lt;Group&gt;">
						<path id="&lt;Path&gt;" class="s13" d="m268.4 549.3l-16.2-13.5-17.8 11.9-5.9-8.8 24.4-16.2 22.2 18.5z"/>
					</g>
				</g>
				<g id="&lt;Group&gt;">
					<g id="&lt;Group&gt;">
						<path id="&lt;Path&gt;" class="s13" d="m304.4 558.9l-41.1-48.9 8.1-6.7 41 48.9z"/>
					</g>
					<g id="&lt;Group&gt;">
						<path id="&lt;Path&gt;" class="s13" d="m297.2 556.8l-10.3-2.3 4.3-19.3 19.5-1.5 0.8 10.5-11.7 0.9z"/>
					</g>
					<g id="&lt;Group&gt;">
						<path id="&lt;Path&gt;" class="s13" d="m278.8 546.5l-10.3-2.2 6.2-28.6 28.9-2.2 0.8 10.5-21 1.6z"/>
					</g>
				</g>
				<g id="&lt;Group&gt;">
					<g id="&lt;Group&gt;">
						<path id="&lt;Path&gt;" class="s13" d="m337 506l-63.5-6.7 1.1-10.4 63.5 6.6z"/>
					</g>
					<g id="&lt;Group&gt;">
						<path id="&lt;Path&gt;" class="s13" d="m321.4 514.9l-10.4-16.8 13-14.6 7.8 7-7.8 8.7 6.3 10.2z"/>
					</g>
					<g id="&lt;Group&gt;">
						<path id="&lt;Path&gt;" class="s13" d="m301 520.4l-15.4-24.9 19.3-21.6 7.8 7-14 15.7 11.3 18.3z"/>
					</g>
				</g>
				<g id="&lt;Group&gt;">
					<g id="&lt;Group&gt;">
						<path id="&lt;Path&gt;" class="s13" d="m273.3 484.6l-6.5-8.3 50.4-39.3 6.5 8.3z"/>
					</g>
					<g id="&lt;Group&gt;">
						<path id="&lt;Path&gt;" class="s13" d="m318.6 462.6l-19.1-4.9-0.8-19.6 10.5-0.4 0.5 11.7 11.5 3z"/>
					</g>
					<g id="&lt;Group&gt;">
						<path id="&lt;Path&gt;" class="s13" d="m307.8 480.6l-28.4-7.2-1.2-28.9 10.6-0.4 0.8 21 20.8 5.3z"/>
					</g>
				</g>
			</g>
		</g>
	</g>
</svg>