<svg version="1.2" xmlns="http://www.w3.org/2000/svg" viewBox="0 0 1770 1018" width="1770" height="1018">
	<title>Two repairmen fixing washing machine-ai</title>
	<style>
		.s0 { fill: #eaeaea } 
		.s1 { fill: #016eb9 } 
		.s2 { fill: #657285 } 
		.s3 { fill: #b8c1c9 } 
		.s4 { fill: #739af0 } 
		.s5 { fill: #131f2d } 
		.s6 { fill: #364154 } 
		.s7 { fill: #ff7955 } 
		.s8 { fill: #ef6343 } 
		.s9 { fill: #00a3fe } 
	</style>
	<g id="Layer 1">
		<g id="&lt;Group&gt;">
			<g id="&lt;Group&gt;">
				<path id="&lt;Path&gt;" class="s0" d="m127.2 979.1q-210-225.4-35.6-469.5c154.9-216.6 335.3-201.8 467.8-113.9 56.4 37.4 219 4.6 357.4-215.8 188.7-300.5 843-118.2 723.7 344.2-57.8 223.7 175.7 231.8 56.7 455.5z"/>
				<g id="&lt;Group&gt;">
					<g id="&lt;Group&gt;">
						<path id="&lt;Path&gt;" class="s1" d="m777.7 565.2q19.1-14.2 22.7-15.5c3.7-1.3 15.7-2.8 16.2-1.8 0.6 1 2.3 4 0.2 5.1-2.1 1.1-4.7 0.7-3.9 1.5 0.8 0.7 8.7-3.5 10.5 0.8 1.9 4.2 3.8 18.7-5.4 23.3-9.2 4.7-32.1 1.1-33.8 1.6q-13.9 4.6-6.5-15z"/>
						<path id="&lt;Path&gt;" class="s1" d="m781.9 586.2q-101.9 25.6-141.9 19.1c-17.9-2.9-97.2-39.4-136.9-58-17.6-8.2-28.9-27.1-28-47.5 0.7-17.1 6.8-35.9 27.2-45.7q23.5-11.4 58 20.1 88.9 74.8 98.4 76.6 9.5 1.7 119.5 7.1 5.7 1.1 6.4 12.3 0.5 8.9-2.7 16z"/>
					</g>
					<path id="&lt;Path&gt;" class="s2" d="m1133 478.8v500.4h-362.9v-500.4z"/>
					<path id="&lt;Path&gt;" class="s3" d="m1040 478.8v500.4h-365.1v-500.4z"/>
					<path id="&lt;Path&gt;" class="s2" d="m674.9 541.6h365.1v2.4h-365.1z"/>
					<path id="&lt;Path&gt;" class="s4" d="m674.9 914h365.1v4.7h-365.1z"/>
					<circle id="&lt;Path&gt;" class="s2" cx="736.2" cy="511.4" r="20.3"/>
					<path id="&lt;Path&gt;" class="s5" d="m587.4 921.8q31.3 2.4 28.4 21.2c-2.8 18.6 19.5 25.5 32.4 27.8 7.5 1.3 10.6 5.4 11.9 8.5h-81.6q-4.1-7.2 8.9-57.5z"/>
					<rect id="&lt;Path&gt;" class="s2" x="941.7" y="491.1" width="83.4" height="40.6" rx="14.6"></rect>
					<rect id="&lt;Path&gt;" class="s2" x="773.3" y="497.2" width="63.9" height="31.7" rx="6.2"></rect>
					<ellipse id="&lt;Path&gt;" class="s5" cx="832.9" cy="721" rx="132.7" ry="140.4"/>
					<g id="&lt;Group&gt;">
						<path id="&lt;Path&gt;" class="s6" d="m438.3 751.3c6.8-23.1 19.3-49.2 27.7-65.6 1.7-3.3 3.2-6.2 4.5-8.6q2.5-4.8 4.1-7.6 28.6 3.3 67.8 9.5c8 1.3 16.4 2.7 25.2 4.2 84.2 14.6 195.3 40.4 195.2 75.2-0.1 34.3-66 49.5-138.5 53.6-10 0.6-20.1 0.9-30.2 1.1-32.8 0.6-65.3-0.9-92.1-3.6-25.8-2.6-46.5-6.5-57.1-10.9-3.2-1.3-5.5-2.6-6.8-4q-1.6-1.8-2.6-4.2c-3.9-8.8-1.9-23.2 2.8-39.1z"/>
						<path id="&lt;Path&gt;" class="s5" d="m438.3 751.3c6.8-23.1 83.4-23 84-22.3 7.2 8.3 124 20.6 162.5 82.8-32.8 0.6-156 0.4-182.8-2.3-25.8-2.6-46.5-6.5-57.1-10.9q-4.9-4-9.4-8.2c-3.9-8.8-1.9-23.2 2.8-39.1z"/>
					</g>
					<path id="&lt;Path&gt;" class="s6" d="m757.5 774.2q-125.1 156.5-133.5 175.5-34.5 3.2-42.8-21.4 60.3-168.2 86.7-182.1 26.5-13.9 89.6 28z"/>
					<g id="&lt;Group&gt;">
						<path id="&lt;Path&gt;" class="s7" d="m571.9 386.3c3.1-5 5.9-11 8.4-17.5l2.9 13.9 14.3 25.9q-2.7 6.5-8.8 17.3-2.8 4.9-6.4 10.8 9.1 11.4 13.1 29.3-31.1-2.5-66-50.3 26.2-3.8 42.5-29.4z"/>
						<path id="&lt;Path&gt;" class="s8" d="m583.2 382.7l14.3 25.9q-2.7 6.5-8.8 17.3-23.3-15.9-18.2-39.8 1.3-5.1 12.7-3.4z"/>
						<path id="&lt;Path&gt;" class="s7" d="m601.9 423q-43.8-23.8-28.5-50.9c15.2-27 19.9-48.3 48.5-34.2 28.5 14.1 28.1 27.4 25.2 37.7-2.9 10.3-33.5 52.9-45.2 47.4z"/>
						<path id="&lt;Path&gt;" class="s5" d="m573.5 318.3c-0.2-0.6-1.1-1.4-3.3-2.4q2.3-0.5 4.7 0.4c1.7-3 5.5-8 11.4-7.3q-3.5 0.5-5.1 3.7c8.7-4.1 23.9-3.7 59.6 13.6 47.2 22.7 18.9 48.1 11.2 49.5-7.8 1.3-19.6-15.2-31.7-18.7-12.2-3.6-21 12.7-25.9 13.6-4.9 0.8-1.8-2.8-6.2-7.3-4.4-4.6-8.4 4.3-9.2 10.8q-0.7 6.5-11.1 11.4 0 0-4.3-11.1c-4.3-11.1 2-48.5 8.3-54.5q0.8-0.8 1.6-1.7z"/>
					</g>
					<path id="&lt;Path&gt;" class="s5" d="m312.2 925.6q-10.1 16.8-12.5 22.2c-2.4 5.5 2.3 17.1 9.2 18.8q6.2 1.6 7.1 13.4h-29.8c-3.2 0-6-1.8-7.2-4.8-4.3-10-5.2-23.1-6.1-27.5-1.7-9.2-5.3-17-3.7-26.4 1.5-9.3 16.2-14.7 43-14.6q29.5 0.1 0 18.9z"/>
					<path id="&lt;Path&gt;" class="s6" d="m403.5 723.5c6-12.6 42.5-18.5 76.9-21.3q33.2-2.7 64.5-2.4 31.1 191.9 11.2 257.7c-3.2 10.7-7.8 18.1-14 20.7-2.5 1.1-5.3 1.3-8.1 0.8-10.9-2-24.1-15-37.8-34.1-12.3-16.9-24.9-38.8-36.8-62.1-23.5-46-44.1-97.8-52.6-130.1-3.8-14.5-5.2-25.1-3.3-29.2z"/>
					<path id="&lt;Path&gt;" class="s9" d="m399.3 694.7q0.2-1.3 0.3-2.6c2.2-23.7 4.4-55.7 8.2-80.6 0.8-4.8 1.5-9.3 2.2-13.4q2.3-13.4 4.1-22.4 35.6-139.9 133.7-167.7 17 45.5 48 54.5c0 0.1 0 0.2 0.1 0.3 7.4 16.6 7.5 43.7 2.1 72.9-2.8 15.2-7.1 30.9-12.7 46-0.2 0.5-1.2 2.8-2.5 6.6-5.9 16.2-19.5 57.9-12.7 82.3 1.5 5.1 0.3 9 3.8 12.2 13.8 12.5-151.4 61.9-173.9 38-3.8-3.9-1.8-15.9-0.7-26.1z"/>
					<path id="&lt;Path&gt;" class="s6" d="m316.9 901.1q82.1-14.5 142.5-18.3c28.6-1.8 52.3-1.2 60.1 4.5 14.6 10.6 16.8 42 16.3 65.1-0.3 14.5-1.7 25.7-1.8 26.6q0 0 0 0-125.9-25.7-190-36.9c-17.7-3.1-30.6-5.1-34.9-5.1q-5.6-19.4 7.8-35.9z"/>
					<path id="&lt;Path&gt;" class="s5" d="m403.5 723.5c6-12.6 42.5-18.5 76.9-21.3 12.4 1.7 26.3 4.3 41.9 8.1 1.4 0.4-82.2 41.4-115.5 42.4-3.8-14.5-5.2-25.1-3.3-29.2z"/>
					<g id="&lt;Group&gt;">
						<ellipse id="&lt;Path&gt;" class="s2" cx="854.6" cy="721" rx="126.1" ry="140.4"/>
						<path id="&lt;Path&gt;" class="s0" d="m854.6 607.8c14.5 0 28.3 3.4 40.7 9.5 35.9 17.5 60.9 57.3 60.9 103.7 0 62.5-45.5 113.2-101.6 113.2-41.7 0-77.5-27.9-93.2-67.8-5.5-13.9-8.5-29.3-8.5-45.4 0-62.5 45.5-113.2 101.7-113.2z"/>
					</g>
					<path id="&lt;Path&gt;" class="s1" d="m582.8 588.3c-5.9 16.2-19.5 57.9-12.7 82.3q-54.4-15.5-56.3-167c29.1 6.4 55 45.7 69 84.7z"/>
					<path id="&lt;Path&gt;" class="s6" d="m531.3 414.8q42 8.7 46 45.4 3 26.8-26.2 87.4l-5.6-5.6q25.7-74.8 21.7-87.5c-5-16.3-29.1-40.8-51.3-31z"/>
					<path id="&lt;Path&gt;" class="s6" d="m399.3 694.7q0.2-1.3 0.3-2.6c2.2-23.7 4.4-55.7 8.2-80.6 0.8-4.8 1.5-9.3 2.2-13.4 48.9-0.1 85.9-18.1 108.8-33.7q17.5-11.9 26.7-22.4l31.2 31.2 8.6 8.5c-0.2 0.5-1.2 2.8-2.5 6.6-5.9 16.2-19.5 57.9-12.7 82.3 1.5 5.1 3.8 9.5 7.3 12.7 13.9 12.6-154.9 61.4-177.4 37.5-3.8-3.9-1.8-15.9-0.7-26.1z"/>
					<path id="&lt;Path&gt;" class="s5" d="m545.5 542l31.2 31.2c2.2 5 4.3 10 6.1 15.1-5.9 16.2-19.5 57.9-12.7 82.3-31.1-8.8-45.1-62.2-51.3-106.2q17.5-11.9 26.7-22.4z"/>
					<g id="&lt;Group&gt;">
						<path id="&lt;Path&gt;" class="s7" d="m742.5 638.9q22.9-5 26.7-4.8c3.8 0.3 15.5 3.6 15.7 4.7 0.1 1.1 0.6 4.4-1.7 4.6-2.4 0.1-4.7-1.2-4.2-0.3 0.5 1 9.2 0.4 9.5 4.8 0.2 4.5-3.5 17.9-13.6 18.4-10.2 0.4-30.1-11.6-31.9-11.7q-14.5-1.4-0.5-15.7z"/>
						<path id="&lt;Path&gt;" class="s9" d="m738.7 658.9q-103.7-17.1-138.3-38.3c-15.5-9.5-75.5-72.1-105.4-103.7-13.3-14.1-16.8-34.9-8.5-52.5 6.9-14.7 19.4-28.7 41.9-29.4q25.9-0.8 46.3 40 54.8 99.9 63 105.1 8.1 5.2 107.9 52.6 4.9 3.1 1.4 13.3-2.7 7.9-8.3 12.9z"/>
					</g>
					<path id="&lt;Path&gt;" class="s5" d="m496.2 944.9c15.9 2.5 29.4 5.2 39.6 7.5q12.9 2.9 20.3 5.1c-3.2 10.7-7.8 18.1-14 20.7-2.5 1.1-5.3 1.3-8.1 0.8q0 0 0 0-125.9-25.7-190-36.9c55.8-8.2 111.8-3.5 152.2 2.8z"/>
				</g>
				<g id="&lt;Group&gt;">
					<path id="&lt;Path&gt;" class="s1" d="m893.8 954.7h99.9v-121.4c0-9.5 7.7-17.2 17.2-17.2h171.7c9.4 0 17.1 7.7 17.1 17.2v128.7c0 9.5-7.7 17.2-17.1 17.2h-130.3c-1.4 0.5-2.9 0.8-4.5 0.8h-154c-7 0-12.7-5.6-12.7-12.6 0-7 5.7-12.7 12.7-12.7z"/>
					<path id="&lt;Compound Path&gt;" fill-rule="evenodd" class="s9" d="m1030.9 816.1h9.1c7.1-4.3 45.4-26.1 82.3-26.4 26.6-0.2 56.9 26 58.8 26.3q0.4 0 0.6 0.1h20.9c9.4 0 17.2 7.7 17.2 17.2v128.7c0 9.5-7.8 17.2-17.2 17.2h-171.7c-9.4 0-17.1-7.7-17.1-17.2v-128.7c0-9.5 7.7-17.2 17.1-17.2zm91.2-17.1c-12.8-0.4-41.4 11.9-52.8 17.1h94.9c-6.1-3.4-30.3-16.7-42.1-17.1z"/>
				</g>
				<g id="&lt;Group&gt;">
					<path id="&lt;Path&gt;" class="s5" d="m1522.5 912.1q14.3 13.3 11.5 22.8c-2.8 9.4-15.7 15.7-17.5 27.3-1.7 11.5-8.7 17.8-15 17.8q-6.4 0-30.1 0-4.6-8.1 6.6-10.5c11.2-2.5 15.4-16.1 14.7-28.7q-0.7-12.6 1-29.4l23.9-5.6z"/>
					<path id="&lt;Path&gt;" class="s5" d="m1343.5 978.7c-1.1 0.6-4.3 1-8.9 1.3h-72.7c0.4-2.3 2.3-9 12.9-10.7 12.6-2 34.3-9.3 39.2-25.4q0.2-0.8 0.4-1.6 3.9-17.1 31.9 5.3 0.1 0.7 0.2 1.8c0.6 6.3 2.3 26.7-3 29.3z"/>
					<path id="&lt;Path&gt;" class="s6" d="m1397.1 512.3q-9.8 181.5-16.1 267.6-0.2 2.1-0.4 4.2-6.7 84.7-30.5 164.7-26.6 5.6-39.9-7.7-5.6-56.1-7-91.1c-0.8-20.2-9-126.7-15.8-213.4q-5-63.8-9.3-116.9z"/>
					<path id="&lt;Path&gt;" class="s5" d="m1397.1 512.3q-9.8 181.5-16.1 267.6-0.2 2.1-0.4 4.2l-93.2-147.5q-5-63.8-9.3-116.9z"/>
					<path id="&lt;Path&gt;" class="s6" d="m1420 491.3q5.8 49.9 6.8 75.1c1.1 25.2 23.5 97.4 42.6 121.4q33.8 42.5 53.1 217-2.7 7.9-31.6 19.4-15.7-25.2-66.2-115.6-50.4-90.3-127.1-282.6z"/>
				</g>
				<path id="&lt;Path&gt;" class="s7" d="m1158.9 515.6c-1.6 1.6-12.2 29.4-22.9 37-10.6 7.6-29.3 9-32.6 4.3-3.3-4.6 15.3-26.5 15.1-27.8-0.3-1.4-7.2 5.7-9.6 7.4-2.5 1.7-3.8 1.3-4.5 0.1-0.7-1.2 8.3-17.6 11.9-20.9q3.7-3.4 30.7-16.4 25.5 3.4 11.9 16.3z"/>
				<path id="&lt;Path&gt;" class="s1" d="m1145.8 513.3q-7.5-6.6-7.7-8.2 48-83 52.2-91 4.1-8 29.9-132.7l88.9-25.7q-62.7 161.9-73.6 182-18.1 33-77.1 81.7-6.7-1-12.6-6.1z"/>
				<path id="&lt;Path&gt;" class="s7" d="m1263.8 223.2q-31.3 55.1-61.9 62.3 1.3-18.5 8.7-31.2-4.6-5.4-8-9.8-7.7-9.9-11.4-16l10.4-27.9 7-18.9c3.4 6.1 7.2 11.4 11 15.9q20.1 23 44.2 25.6z"/>
				<path id="&lt;Path&gt;" class="s8" d="m1219.6 197.6q3.8 27.6-17 46.9-7.7-9.9-11.4-16l10.4-27.9q11.1-3.4 18-3z"/>
				<path id="&lt;Path&gt;" class="s7" d="m1143.8 179.5c-1.6-10.6-0.3-24 30.1-34.4 30.3-10.5 32.2 11.4 44 40.3q11.8 29-34.9 47.2c-12.5 4-37.6-42.5-39.2-53.1z"/>
				<path id="&lt;Path&gt;" class="s9" d="m1424.5 505.8c-18.8 27.1-159.9 63.4-158.2 44.6 0.6-7.2 1.5-19.8 0-37q-0.5-6.1-1.5-12.8c-3.6-24.7-12.1-56.4-31.1-93.1q-2.1-4.1-4.4-8.4c-7.9-14.2-14.5-29.2-19.6-43.9-9.8-28.2-13.7-55.3-8.8-72.9q0.1-0.2 0.1-0.3 29.5-13.6 40.9-66.5 100.6 18.1 156.9 152.2 5.5 14.7 11.6 34.7c7.5 24.2 16.2 56.1 17.7 78.9 0.7 10.9-0.2 19.6-3.6 24.5z"/>
				<path id="&lt;Path&gt;" class="s5" d="m1226.1 133.5c5.5 6.9 7 45 1.3 55.6q-5.7 10.5-5.7 10.5-9.8-6.3-9.7-12.9c0.1-6.5-2.8-15.9-7.8-11.9-5 3.9-2.3 7.9-7.1 6.5-4.7-1.5-11.5-19-24.1-16.9-12.5 2-26.5 17-34.1 14.6-7.6-2.3-32.6-31.3 17.5-48 37.9-12.6 53.1-11.1 61.3-5.9q-1.2-3.5-4.7-4.4c6 0.1 9.2 5.5 10.5 8.7q2.6-0.5 4.7 0.2c-2.3 0.7-3.2 1.4-3.6 2.1q0.8 0.9 1.5 1.8z"/>
				<path id="&lt;Path&gt;" class="s1" d="m1428.1 481.3q-121.4-36.6-140.7-181.3 69.1 52.8 123 102.4c7.5 24.2 16.2 56.1 17.7 78.9z"/>
				<g id="&lt;Group&gt;">
					<path id="&lt;Path&gt;" class="s1" d="m1399.5 557.5l13.4-4.4c5.4-4.9 34.3-30.3 66.5-41 23.3-7.7 55.5 1.1 57.2 0.8q4.2-0.9-13.3 5-30.1-3.1-42 0.5c-11.4 3.4-33.7 19.7-42.6 26.4l75.2-24.5c6.3-2 13.2 1.5 15.2 7.8l27.8 85.8c2.1 6.3-1.4 13.1-7.7 15.2l-114.4 37.1c-6.3 2-13.1-1.5-15.2-7.8l-27.8-85.8c-2.1-6.3 1.4-13.1 7.7-15.1z"/>
					<path id="&lt;Path&gt;" class="s9" d="m1436.7 545.4l114.4-37.1c6.3-2.1 13.1 1.4 15.2 7.7l27.8 85.8c2.1 6.3-1.4 13.1-7.7 15.2l-114.4 37.1c-6.3 2.1-13.2-1.4-15.2-7.7l-27.8-85.8c-2.1-6.3 1.4-13.2 7.7-15.2z"/>
				</g>
				<path id="&lt;Path&gt;" class="s9" d="m1468.6 490q-9.6 4.4-13.2-0.1-56-93.7-62-101.2-5.9-7.6-109.4-52-42.2-16.1-43.8-41.7c-1.5-22.2 11.1-35.8 25-44 16.4-9.9 37.2-8.4 52.4 3.3 33.9 26.4 101.3 79.5 112.1 93.9q24.1 32 50.9 132.4-4.4 5.9-12 9.4z"/>
				<g id="&lt;Group&gt;">
					<path id="&lt;Path&gt;" class="s7" d="m1469.4 523.9c0.2 0.5 0.3 1 0.3 1.7 0.1 2.3-3.2 2.2-4.3 2.1-0.2 0-0.5-0.4-0.8-1z"/>
					<path id="&lt;Path&gt;" class="s7" d="m1474.7 530.4c-3.1 0.2-4.2-4.3-4.9-6.9v-0.2c-0.8-3.6-4.7-5.5-8-3.9q-0.2 0.1-0.4 0.2c-1-2.7-1.8-5.3-2.1-6.8q-0.7-3.7 2.1-26.7 12.7-15.2 15.5-1c0.3 1.7 14 20.1 14.6 30.2 0.5 10-12.4 14.9-16.8 15.1z"/>
				</g>
				<path id="&lt;Path&gt;" class="s5" d="m1170.5 563.3c2 1.7 3.4 3.8 4.2 6.1l-2.5 2.9-7.9-6.7-9.7 3.4-2 10.2 7.9 6.7-2.5 2.9c-2.4-0.5-4.7-1.5-6.7-3.2-4.3-3.7-5.9-9.3-4.8-14.4l-54.9-47.4c-4.9 1.9-10.7 1.1-15-2.6-2-1.7-3.4-3.8-4.2-6.1l2.5-2.9 7.9 6.7 9.4-3.3 0.4-0.4 1.9-9.9-7.9-6.7 2.5-2.9c2.4 0.5 4.7 1.5 6.7 3.2 4.3 3.7 5.9 9.3 4.8 14.4l54.9 47.4c5-1.9 10.7-1.1 15 2.6z"/>
				<path id="&lt;Path&gt;" class="s7" d="m1112.1 521.3q19.2-4.9 7.7 7.1-11.5 11.9-14.8 9-3.6-2 7.1-16.1z"/>
				<g id="&lt;Group&gt;">
					<g id="&lt;Group&gt;">
						<rect id="&lt;Path&gt;" class="s9" x="873.2" y="40.3" width="150.6" height="116.8" rx="58.4"></rect>
						<path id="&lt;Path&gt;" class="s9" d="m1049 146.7c-4.3 2.3-9.7 0.6-11.9-3.8-2.2-4.3-0.5-9.6 3.8-11.8 4.3-2.2 9.6-0.5 11.9 3.8 2.2 4.3 0.5 9.6-3.8 11.8z"/>
						<path id="&lt;Path&gt;" class="s9" d="m1070.1 151.5c-2.1 1.1-4.7 0.3-5.8-1.8-1.1-2.1-0.3-4.7 1.8-5.8 2.1-1.1 4.7-0.3 5.8 1.8 1.1 2.2 0.3 4.7-1.8 5.8z"/>
						<g id="&lt;Group&gt;">
							<path id="&lt;Compound Path&gt;" class="s5" d="m947.7 116.4q2.6 0 4.4 1.8 1.7 1.8 1.7 4.4 0 2.5-1.8 4.3-1.8 1.9-4.3 1.9-2.5 0-4.3-1.9-1.9-1.9-1.9-4.3 0-2.5 1.8-4.4 1.8-1.8 4.4-1.8z"/>
							<path id="&lt;Compound Path&gt;" class="s5" d="m918 116.4q2.6 0 4.4 1.8 1.7 1.8 1.7 4.4 0 2.5-1.8 4.3-1.8 1.9-4.3 1.9-2.5 0-4.4-1.9-1.8-1.9-1.8-4.3 0-2.5 1.8-4.4 1.8-1.8 4.4-1.8z"/>
							<path id="&lt;Compound Path&gt;" class="s5" d="m983.1 122.6q0 2.5-1.8 4.2-1.8 1.8-4.2 1.8-2.5 0-4.3-1.8-1.8-1.7-1.8-4.2 0-2.5 1.8-4.3 1.8-1.7 4.3-1.7 2.4 0 4.2 1.7 1.8 1.8 1.8 4.3zm-0.8-19.7q0 7.2-5.2 7.2-5.4 0-5.4-7.2v-31.7q0-6.9 5.3-6.8 5.3-0.1 5.3 6.8z"/>
						</g>
					</g>
					<path id="&lt;Path&gt;" class="s5" d="m962.8 81.1c0 7.8-3.5 12.4-6.5 16.4-2.2 2.8-4.2 5.5-4.8 9-0.3 2.1-2.2 3.6-4.2 3.6q-0.1 0-0.2 0c-1.2 0-2.4-0.6-3.2-1.6-0.8-0.9-1.1-2.2-0.9-3.4 0.8-4.6 3.1-7.8 5.3-10.8 2.7-3.7 5.2-7.3 5.2-13.6 0-6.3-2.9-7-5.2-7-2.2 0-5.1 0.7-5.1 7v2.1c0 1.3-0.6 2.5-1.5 3.3-0.9 0.9-2.2 1.3-3.4 1.1-2.2-0.2-4-2.2-4-4.5v-1.6c0-10.2 5.2-16 14.2-16 9.2 0 14.3 5.6 14.3 16z"/>
				</g>
			</g>
			<rect id="&lt;Path&gt;" class="s6" x="21.8" y="978.9" width="1720.1" height="5.2" rx="2.1"></rect>
		</g>
	</g>
</svg>