<svg version="1.2" xmlns="http://www.w3.org/2000/svg" viewBox="0 0 1350 900" width="1350" height="900">
	<title>repair_appliance_05-ai</title>
	<style>
		.s0 { fill: #1f8486 } 
		.s1 { fill: #ffa77b } 
		.s2 { fill: #dd7458 } 
		.s3 { fill: #ffffff } 
		.s4 { fill: #5e546c } 
		.s5 { fill: #ff2d0b } 
		.s6 { fill: #d80f00 } 
		.s7 { fill: #492121 } 
		.s8 { fill: #382724 } 
		.s9 { fill: #fffdfd } 
		.s10 { fill: #2156a3 } 
		.s11 { fill: #092957 } 
		.s12 { fill: #004f9e } 
		.s13 { fill: #141d1e } 
		.s14 { fill: #080c0c } 
		.s15 { fill: #961a02 } 
		.s16 { fill: #878787 } 
		.s17 { fill: #6e6e6e } 
		.s18 { fill: #3eb5e5 } 
		.s19 { fill: #80e1ff } 
		.s20 { fill: #242226 } 
		.s21 { fill: #9a97a0 } 
		.s22 { fill: #796c86 } 
		.s23 { fill: #c7c1cd } 
		.s24 { fill: #98c6ea } 
		.s25 { fill: #2c2e35 } 
		.s26 { fill: #383b44 } 
		.s27 { fill: #c5c8c9 } 
		.s28 { fill: #b3a1a1 } 
		.s29 { fill: #ffae0b } 
		.s30 { fill: #b3670d } 
		.s31 { fill: #b3b7b8 } 
	</style>
	<g id="Layer 1">
		<g id="&lt;Group&gt;">
			<g id="&lt;Group&gt;">
				<g id="&lt;Group&gt;" style="opacity: .8;mix-blend-mode: multiply">
					<path id="&lt;Path&gt;" class="s0" d="m1307.9 751.5v18.4c-16.5 0.7-34.7 1.2-54.3 1.7-12 0.3-24.4 0.6-37.4 0.8q-1.8 0.1-3.6 0.1-14.7 0.2-30.2 0.4-5.8 0.1-11.7 0.2c-22.7 0.3-46.5 0.4-71 0.5q-1.9 0-3.8 0-11 0.1-22.2 0c-18.7 0-37 0-54.8-0.1q-19.3-0.1-37.7-0.4-1.9 0-3.8 0c-43.3-0.5-82.9-1.3-116.9-2.4q-1.9-0.1-3.9-0.2c-71.5-2.3-116.9-5.8-116.9-9.8 0-2.6 20.8-5.1 56.5-7.2q1 0 2-0.1 0.3 0 0.6 0c9-0.5 18.8-1 29.4-1.5q2 0 4-0.1 1.7-0.1 3.4-0.2 1.3 0 2.8-0.1 0.4 0 0.7 0 1.8-0.1 3.6-0.1 0.3 0 0.6 0 5.2-0.2 10.7-0.4 3.9-0.2 7.8-0.3c26.4-0.8 56.1-1.5 88.3-2q1.8 0 3.7-0.1c20.7-0.3 42.5-0.5 65.1-0.6q0.2 0 0.4 0 5.3-0.1 10.7-0.1 1.4 0 2.8 0 4.4 0 8.8-0.1 6.9 0 14 0h0.3q5 0 10.1 0 0.4 0 0.9 0 0.1 0 0.2 0 1.5 0 2.9 0h3.7q20.9 0 41.2 0.1c19.1 0.1 37.8 0.2 55.8 0.4q5.9 0.1 11.7 0.2 1.6 0 3.1 0 1.9 0.1 3.8 0.1 13.4 0.2 26.3 0.4 19.7 0.4 38 0.8c19.1 0.5 36.9 1 53.1 1.6q0.6 0.1 1.2 0.1z"/>
				</g>
				<g id="&lt;Group&gt;">
					<g id="&lt;Group&gt;">
						<path id="&lt;Path&gt;" class="s1" d="m618.7 439c31-9.7 56.3-29.9 82.9-48.4 20.1-14 37.2-17.5 50.6-16.6 3.4 0.3 6.5 0.8 9.4 1.5q15 3.6 23.3 12c0.5 10.2-13.8 22.3-24.3 30.8-10.6 8.5-22.6 14.9-35.2 19.9q-5.5 2.1-11.2 4c-16.4 5.2-34.5 8.7-51.7 10.4q-0.2 0-0.3 0.1c-11.5 1.1-24 0.2-34.8 2.8-2.8-5.2-6.9-11.1-8.7-16.5z"/>
						<g id="&lt;Group&gt;">
							<path id="&lt;Path&gt;" class="s2" d="m671.4 449.4c26.2-8.8 52.2-18.3 73-36.6 11.1-9.8 24.9-20.2 17.8-36.3q-0.2-0.5-0.6-1 15 3.6 23.3 12c0.5 10.2-13.8 22.3-24.3 30.8-10.6 8.5-22.6 14.9-35.2 19.9q-4.8 1.8-9.6 3.3c-17.4 5.6-36.5 9.3-54.8 11.1q-0.1 0-0.3 0 5.4-1.5 10.7-3.2z"/>
						</g>
					</g>
					<g id="&lt;Group&gt;">
						<path id="&lt;Path&gt;" class="s3" d="m554.1 576.9c-3.9-6-5-11.8-5.1-16.4-0.5-28.1 36.3-56.6 60.7-75.4 5.8-4.5 10.8-8.4 13.1-10.7 16.4-16 26.5-30.1 26.5-51.1 0-9-6.1-24.9-14.2-32.6-1.9-1.8-4.9-4-7.7-3.8l-0.9-19.1c7.5-0.3 15.1 2.8 21.7 9.1 12.6 12 20.1 33 20.1 46.3 0.1 29.3-15.4 48.5-32.1 64.8-3.1 3.1-8.3 7.1-14.8 12.1-17.4 13.5-53.6 41.5-53.3 60.1 0 2.8 0.9 7.1 7.7 12 14 10.1 40.8-7.2 66.8-23.9 23.6-15.3 48-31 70.5-32.2l1 19.1c-17.4 0.9-39.7 15.2-61.2 29.1-31.3 20.2-63.7 41-88.2 23.4-4.8-3.5-8.2-7.2-10.6-10.8z"/>
					</g>
					<g id="&lt;Group&gt;">
						<path id="&lt;Path&gt;" class="s4" d="m707.8 719.4c-8.9 0-17.1-1.6-24.5-4.9-16.7-7.4-28.7-23-35.6-46.3-2.2-7.4-3.5-18.5-4.9-31.4-3.8-33.7-9-79.8-34-80.5l0.4-10.9c34.3 1 40.1 52.5 44.4 90.1 1.4 12.4 2.6 23.1 4.5 29.6 6 20.1 15.9 33.4 29.7 39.5 20.3 9 45.6 0.9 63.2-7.5l4.7 9.8c-17.4 8.4-33.6 12.5-47.9 12.5z"/>
					</g>
					<g id="&lt;Group&gt;">
						<g id="&lt;Group&gt;">
							<path id="&lt;Path&gt;" class="s5" d="m837.3 328.2q0 0.2 0 0.4c-0.3 15.8-5.3 31.3-12.1 45.4-2.3 4.6-4.7 9-7.2 13.2q-1.7 2.8-3.4 5.4c-11.6 18.1-24.5 31.9-30 37.5-23.1-10.6-39.2-33.9-45.5-59.6q1.4-1.7 3-3.6c10.9-13.2 28.8-34.2 43.6-48.8 3.8-3.7 7.4-7 10.7-9.6q1.4-1.2 2.8-2.2c3.6-2.6 6.5-4.2 8.6-4.2 4.6-0.2 8.9 0.3 12.8 1.5 9.9 3.2 16.8 11.2 16.7 24.6z"/>
						</g>
						<path id="&lt;Path&gt;" class="s6" d="m784.6 430.1c-23.1-10.6-39.2-33.9-45.5-59.6q1.4-1.7 3-3.6c4.7 7.9 9.2 22 14.2 27.5 7.1 7.8 23.6 20.7 32.6 13.9 32.9-25 48.7-93.3 48.4-79.7-0.9 46.1-41.6 90.3-52.7 101.5z"/>
					</g>
					<g id="&lt;Group&gt;">
						<path id="&lt;Path&gt;" class="s5" d="m994.8 502.1c-6.9 3.4-21.3 8.7-37.9 14.1-31.2 10-61.4 18.2-74.8 18.1-4.3-5.6-8.8-12.6-13.2-20.4-26.2-45.8-52.9-121.5-60.9-136-8.3-14.9-22.5-37.8-20.3-53.2q0.3-2.2 1.1-4.2c1.1-2.6 2.4-4.9 3.9-7q1.9-2.7 4.1-5c1.7-1.6 3.4-3.1 5.2-4.5 9.5-7.1 20.7-10.9 27.2-17.7l56-26.5c3.4 0.4 10.1 0.3 18.1 0.2 3.3 0 6.7-0.1 10.3 0q0.4 0 0.8 0c4.5 0 9.1 0.2 13.9 0.5 8.7 0.6 6.1 5.6 14.3 7.8 13 3.5 19.6 11.9 23 20.2 2.7 6.3 3.6 12.5 4.3 16.6 8.1 49 7.2 152.8 24.5 196q0.2 0.5 0.4 0.9 0 0 0 0.1z"/>
					</g>
					<g id="&lt;Group&gt;">
						<path id="&lt;Path&gt;" class="s1" d="m834.2 296.6c0.1-1.1-3.3-3.7-3.2-4.8 0.1-2.7 1.7-8.7 2.2-11.8 1-5.5-2.1-6.3 3.4-7.9 0.3-0.1 0.3-0.2 0.3-0.4q0-0.1 0-0.1c-0.2-0.4-0.8-1-1.2-1.6q-0.2-0.3-0.3-0.6c-3.2-7-6.2-17.1-11.9-20.8q-0.1-0.1-0.3-0.2l13.1-28.5c-0.4 3.6 10.7 14.2 14 17.7q0 0 0.1 0c3.7 3.4-2.6-43.3 1.6-39.4 3.2 2.9 20.5 50.6 35.4 63.7 3.9 3.4-2.5 15.1-2.5 20.3-0.1 9-18.3 31-28.1 31.6-7.2 0.4-23.8-6.6-22.6-17.2z"/>
					</g>
					<path id="&lt;Path&gt;" class="s6" d="m833.2 280q2 20.7 25 35.2c-6.7 0.6-24.7 9.2-29.4 15-11.3-12.6-3.7-48.2 4.4-50.2z"/>
					<path id="&lt;Path&gt;" class="s6" d="m879.5 252.4q7.3-0.5 22.8 8 15.8 36.9 11.5 48.6c-11.5-7.6-43.9 4.2-57.1 5.8q14.2-14.4 16.3-21.6 6.7-22.3 6.5-40.8z"/>
					<path id="&lt;Path&gt;" class="s6" d="m854 314.6l7.7-2.4c-0.2 1.7 0 7.4 5.3 24.7l0.1 0.1c3.5 11.3 6.6 20.7 10.5 30l-7 3c-4.1-9.6-7.3-19.2-10.9-30.8v-0.1c-0.8-2.4-2.8-9-4.2-15.3-0.8-3.8-1.3-6.8-1.5-9.2z"/>
					<path id="&lt;Path&gt;" class="s6" d="m994.8 502.1c-6.9 3.4-21.3 8.7-37.9 14.1-31.2 10-61.4 18.2-74.8 18.1-4.3-5.6-8.8-12.6-13.2-20.4 15-0.1 29.5-2.4 41.5-6.5 24.6-8.5 39.7-24.1 51.6-46.5 16.4-30.9 5.7-87.4 5.8-121.8 0.1-9.7-0.8-33.4-2.2-50.6 2.7 6.3 3.6 12.5 4.3 16.6 8.1 49 7.2 152.8 24.5 196q0.2 0.5 0.4 0.9 0 0 0 0.1z"/>
					<g id="&lt;Group&gt;">
						<path id="&lt;Path&gt;" class="s7" d="m753.1 191.4l9.1-0.2c2 3.1 4.7 5.3 6.5 8.4 2 3.7 2.7 8.5 4.3 12.2 3.4 7.8 8.4 15.8 11.1 23.7-7.2-5.4-14.2-10.9-20.3-17.2-6-6.4-8.7-15.8-10.7-26.9z"/>
						<g id="&lt;Group&gt;">
							<path id="&lt;Path&gt;" class="s1" d="m770.7 224.8c2.4-5.5 16.3 10.3 17.4 17.7 1 7.4-8.6 5.4-16.5-2.4-4.4-4.2-3.3-9.9-0.9-15.3z"/>
							<path id="&lt;Path&gt;" class="s2" d="m784.7 238.4c-3.2-3.8-6.9-6.6-7.9-4.3-1 2.4-1.7 4.8-1.5 7q-0.9-0.8-1.8-1.6c-3.2-3.1-2.4-7.3-0.6-11.3 1.5-3.5 9.1 4.4 11.8 10.2z"/>
						</g>
						<path id="&lt;Path&gt;" class="s1" d="m774.5 220.9c-4.1-7.9-17.6-26.5-11.2-43.1 7.5-19.2 33.4-23.9 43.1-22.3 3.7 0.6 12.3-0.8 15.2 0.5 23.9 10.8 25.8 31.2 28.4 37.7 6.2 15.5 8.1 29.3 8.6 38.4 0.2 3.5 0.2 6.3 0.2 8.3-0.3 13.7-6.4 31.9-20.7 38.4-4.6 2.2-18.1 0.2-31.5-8.9-4.9-3.3-9.8-7.5-14.3-12.9-15.1-17.9-10.8-22.9-17.8-36.1z"/>
						<path id="&lt;Path&gt;" class="s7" d="m807.9 199.6l-4.1-4.1 1.2-1.4q0.5-0.7 1.4-1.5c3.4-3 9.3-6.3 16.3-7.5q0.9 2.2 1.9 4.3c-6.4 2.1-12.2 5.4-16.7 10.2z"/>
						<path id="&lt;Path&gt;" class="s7" d="m772.5 213.9q-1.3-1.5-2.7-2.9c4.3-4.9 9.7-7.4 13.5-8q0.9-0.2 1.6-0.1h1.5l0.6 5.5c-2.7 0.4-5.3 0.9-7.9 1.8q-3.2 1.2-6 3.2-0.3 0.2-0.6 0.5z"/>
						<g id="&lt;Group&gt;">
							<path id="&lt;Path&gt;" class="s3" d="m818.5 202.8c3.5-2.7 8-1.9 10.1-1.6 1.1 0.1 1.1 7.9-2.4 10.6-3.5 2.6-11.3-2.5-11.3-3.8 0-0.6 0.1-2.6 3.6-5.2z"/>
							<g id="&lt;Group&gt;">
								<path id="&lt;Path&gt;" class="s8" d="m825.6 212c-1.6 0.9-4.1-0.4-5.7-3.1-1.6-2.6-1.7-5.5-0.1-6.5 1.6-0.9 4.1 0.4 5.7 3 1.6 2.7 1.7 5.6 0.1 6.6z"/>
								<path id="&lt;Path&gt;" class="s9" d="m824 207.4c-0.4 0.2-1.1-0.1-1.5-0.8-0.4-0.7-0.4-1.5 0-1.7 0.4-0.3 1.1 0.1 1.5 0.8 0.4 0.7 0.4 1.4 0 1.7z"/>
								<path id="&lt;Path&gt;" class="s8" d="m828.6 201.2q-9.1 1.3-13.7 6.8-0.6-3.6 3.7-6.4 4.4-2.9 10-0.4z"/>
							</g>
						</g>
						<g id="&lt;Group&gt;">
							<path id="&lt;Path&gt;" class="s3" d="m782.7 222.3c2.8-2.3 6.9-1.3 8.8-1 1 0.2 2 7.4-0.7 9.7-2.8 2.4-10.3-2.7-10.5-3.9-0.1-0.6-0.3-2.5 2.4-4.8z"/>
							<g id="&lt;Group&gt;">
								<path id="&lt;Path&gt;" class="s8" d="m790.6 230.9c-1.1 1-3.6-0.1-5.6-2.5-2-2.4-2.7-5.1-1.5-6.1 1.1-0.9 3.6 0.2 5.6 2.6 2 2.3 2.7 5 1.5 6z"/>
								<path id="&lt;Path&gt;" class="s9" d="m788.2 226.7c-0.3 0.3-0.9 0-1.5-0.6-0.5-0.6-0.6-1.3-0.4-1.6 0.3-0.2 1 0 1.5 0.7 0.5 0.6 0.7 1.3 0.4 1.5z"/>
								<path id="&lt;Path&gt;" class="s8" d="m791.5 221.3q-8 0.8-11.2 5.8-1.1-3.4 2.4-5.9 3.5-2.5 8.8 0.1z"/>
							</g>
						</g>
						<path id="&lt;Path&gt;" class="s7" d="m783.3 146.4c5.7-2.3 18.7-5.5 27.3 4.2 12.6-11.2 19.3-1.3 25.2 10.7 5.9 12.2 16.4 19.2 14.2 32.4l-3.8 13.7c-3.9-7.8-13.3-37.8-31.1-33.6-13.8 10.4-56.5 41.7-66.5 20-6.7-14.7 8.2-37.1 34.7-47.4z"/>
						<g id="&lt;Group&gt;">
							<g id="&lt;Group&gt;">
								<path id="&lt;Path&gt;" class="s10" d="m769.7 137.7c12.8-5.9 42-12.9 58.4-7.2 2.6 0.9 5 1.9 7.1 3.1 11 6 12.6 14.5 14.2 21.9 1.6 7.1-0.4 16.3-1.6 23.7-2.5-0.8-12.4-1.7-24.5-2.6q-24.4-1.9-57.4 6.2c-7.8-10.7-14.2-36.9 3.8-45.1z"/>
							</g>
							<path id="&lt;Path&gt;" class="s11" d="m732.2 174.5q39.9-39.8 101.9 3c-26.8-2.2-61.5 17.1-78.3 26.2-8 4.4-45.6-7.3-23.6-29.2z"/>
							<path id="&lt;Path&gt;" class="s11" d="m829.4 132.1q-0.6-0.9-1.3-1.6c2.6 0.9 5 1.9 7.1 3.1 11 6 12.6 14.5 14.2 21.9 1.6 7.1-0.4 16.3-1.6 23.7-2.5-0.8-12.4-1.7-24.5-2.6 8.5-11.1 15.2-32.5 6.1-44.5z"/>
						</g>
						<path id="&lt;Path&gt;" class="s7" d="m864.2 242.2c1.8 14.6 1.8 55-33.4 53.5-21.3-0.9-34.2-30-37.5-38.1 6 3.8 20.1 17.4 27 13.5 1.6-0.9 0-8.5-0.3-11.4 2.9-1.4 3.6-1.7 6.3-3.3 1.6 1.2 4.3 3.9 7.8 4.5 5.4 0.9 14.4-4.9 15.4-17.2 1.1-14-3-38.8-5.7-45.5 1.7-1.2 0.7-5.5 2.6-6.4 4.6 5.1 14.2 21.9 17.8 50.4z"/>
						<path id="&lt;Path&gt;" class="s7" d="m851 248.3c-2.8-0.3-16.1-13.9-18.4-11.8-18.8 17.6-29.1 18.4-31.8 19.9-2.5 1.3-2.7 11.4-1.2 13.8-4.8-4.5-7.5-10.2-8.7-15.9-0.6-2.8 16.9-13.4 16.7-13.5l5.6-3c6.3-3.4 16-8.2 23-10 3.1-0.8 5.8-2.2 7.9 0.6 5.1 7.2 5.2 17.6 6.9 19.9z"/>
						<path id="&lt;Path&gt;" class="s2" d="m817.4 232.3c-1.9 7.2-11.7 11.9-17.5 6q5.2-3.9 17.5-6z"/>
						<g id="&lt;Group&gt;">
							<path id="&lt;Path&gt;" class="s1" d="m862.7 195.6c0.2 11.8-6 22.1-11.7 17.1-5.7-5-8-27-1.2-26.3 6.9 0.7 12.8 2.7 12.9 9.2z"/>
							<path id="&lt;Path&gt;" class="s2" d="m851 190.4c5.1 0.5 9.4 1.9 9.5 6.7q0 1.3-0.1 2.6c-1.7-1.4-4.4-2.1-7.4-2.4-2.9-0.3-3.5 4.8-2.8 10-2.9-5.8-3.5-17.4 0.8-16.9z"/>
						</g>
					</g>
					<g id="&lt;Group&gt;">
						<path id="&lt;Path&gt;" class="s12" d="m921.2 341.3c2.7 58.3 43.1 168.1 43.5 168.5l-88.1 26.1q-2.6-3.3-75.7-163.8 71.7-29.2 120.3-30.8z"/>
					</g>
					<g id="&lt;Group&gt;">
						<path id="&lt;Path&gt;" class="s12" d="m906 288.8c2.2-10.6 5-20.2 8.4-28.8 4.5 0 9.1 0.2 13.9 0.5-3.9 9-7.2 19.4-9.6 30.9-5.8 27.9-6.1 60.1-0.7 84.1l-12.7 2.8c-5.9-26-5.6-59.5 0.7-89.5z"/>
					</g>
					<g id="&lt;Group&gt;">
						<path id="&lt;Path&gt;" class="s12" d="m837.8 392.3l-9.8 9c-3.4-4.3-6.7-9-10-14.1q-2.6-3.9-5.1-8.1c-9.8-16.5-18.5-35.4-25.1-54.7q-1.1-3.1-2.1-6.3c3.8-3.7 7.4-7 10.7-9.6q0 0.2 0.1 0.4c5.7 19.3 14.1 39.2 23.7 56.5q2.4 4.4 5 8.6c4.1 6.7 8.3 12.8 12.6 18.3z"/>
					</g>
					<path id="&lt;Path&gt;" class="s11" d="m877.6 370.6l6.3 20.2c-19.2 5.7-36.3 10.2-53.1 15.7l-6.3-20.6z"/>
					<g id="&lt;Group&gt;">
						<path id="&lt;Path&gt;" class="s1" d="m835.5 741.8c-4.3-0.5-6.1-1.6-10.2-2.1 2-9.4-2.9-35.7-4-37.4l23.1 6.1c-2.2 11.7-4.2 23-8.9 33.4z"/>
						<g id="&lt;Group&gt;">
							<path id="&lt;Path&gt;" class="s13" d="m800.7 746.2c2.2-1.6 6.5-1.3 10.5-2.5 1.4-0.4 2.7-0.8 3.9-1.2 2-0.7 3.7-1.4 4.7-2.5 0.2-0.2 5.3-4.7 6.1-8.5h15.6c2 4.3 1.5 9.7 1.5 14.3 0 0.8-0.1 2.3-0.2 3.9-0.1 2-0.2 4.2-0.3 5.6l-42.6-0.6c-2.2-1.1-1.5-6.8 0.8-8.5z"/>
							<path id="&lt;Path&gt;" class="s13" d="m801.5 743.9c2.8-2.2 8.1-2.6 11.6-2.6 4.6 0 9.6-0.2 13.6 2.1 2 1.1 3.1 2.7 4.2 4.7 0.8 1.5 1.7 5.3 2.1 5.7l-35.2 0.8c1.5-3.4 0-7.9 3.7-10.7z"/>
							<path id="&lt;Path&gt;" class="s14" d="m796.1 755.7q-0.2-0.4-0.2-0.9c0-1.8 1.6-3.3 3.7-3.3h41.2c2 0 3.7 1.5 3.7 3.3q0 0.5-0.2 0.9z"/>
							<g id="&lt;Group&gt;">
								<path id="&lt;Path&gt;" class="s14" d="m826.4 752.9c3.5-1.8 7.1-3.4 9.7-6.5 2.5-2.9 3.4-7.2 2.9-11.1-0.2-1.1-0.8-2.6-1.6-3.8h4.1c2 4.3 1.5 9.7 1.5 14.3 0 0.8-0.1 2.3-0.2 3.9-0.1 2-0.2 4.2-0.3 5.6h-19.7c1.1-1.1 2.2-1.7 3.6-2.4z"/>
							</g>
						</g>
						<g id="&lt;Group&gt;">
							<path id="&lt;Path&gt;" class="s1" d="m1057.9 740c-0.7 4.2-1.8 5.9-2.5 10.1-9.3-2.4-35.8 1.5-37.5 2.6l6.9-22.9c11.7 2.7 22.8 5.1 33.1 10.2z"/>
							<path id="&lt;Path&gt;" class="s13" d="m1069.2 742.7l-7.3 17.9-3 7.5-12.1 0.8q0.1-0.6 0.2-1.3c0.1-1.4 0.2-2.8 0.3-4.1 0.1-2.1 0-3.9-0.7-5.3 0 0-0.3-1-0.9-2.2-1-2.1-2.7-5.1-4.8-6.5l5.7-14.5c4.8-0.3 9.6 2.1 13.9 3.8 0.7 0.3 2.1 0.9 3.6 1.6 1.8 0.8 3.8 1.7 5.1 2.3z"/>
							<path id="&lt;Path&gt;" class="s13" d="m1061.9 760.6l-3 7.5-12.1 0.8-16.7 1.1c1.3-3.6-0.3-8 3.2-10.9 2.8-2.3 8-2.9 11.5-3.1q0.4 0 0.9 0c4.3-0.2 8.9-0.5 12.7 1.5 1.5 0.8 2.6 1.8 3.5 3.1z"/>
							<path id="&lt;Path&gt;" class="s14" d="m1071.7 743.2l-9.8 26.1c-0.2 0.5-0.9 0.8-1.7 0.8q-0.2 0.1-0.5 0.1l-29.9 2.3c-0.8 0.1-1.5-0.7-1.6-1.6-0.1-1 0.5-1.8 1.4-1.8l29.2-2.3 9.4-25c0.3-0.7 1.3-1 2.3-0.6 0.9 0.3 1.5 1.2 1.2 2z"/>
						</g>
						<g id="&lt;Group&gt;">
							<g id="&lt;Group&gt;">
								<path id="&lt;Path&gt;" class="s12" d="m981.2 518.6c-12.8 17.8-23.6 37.4-36.1 54.8-6.5 9-8.7 7.1-15.9 16.8q-2.8 0.2-5.7 0.4c-29.9 1.7-68.3 2.2-103.7-0.9-7.8-0.7-15.5-1.5-22.9-2.6-39.5-5.6-71-17-75.2-37.9q-0.8-3.7-0.3-7.9c3.9-35.8 177.7-37.7 194.1-38.6z"/>
							</g>
							<g id="&lt;Group&gt;">
								<path id="&lt;Path&gt;" class="s12" d="m849.3 713.3l-27.7-1.6c-3.2-4.6-10.7-14.7-20.2-27.9-28.4-39.1-74.7-105.1-80-134.3l0.3-0.3 32.3-23.5c8.8 8.4 26.5 8.9 38.6 20 8.5 7.7 14.8 16.3 20 26.5 2.6 5.4 5 11.2 7.2 17.5q1 2.8 1.9 5.8c9.2 29 23.6 73 27.6 117.8z"/>
							</g>
							<path id="&lt;Path&gt;" class="s11" d="m927.6 580q-1.7 5.8-4.1 10.6c-29.9 1.7-68.3 2.2-103.7-0.9q1 2.8 1.9 5.8c9.2 29 23.6 73 27.6 117.8l-27.7-1.6c-3.2-4.6-10.7-14.7-20.2-27.9 15.7-4.7 26.9-13.5 25.7-37.5-0.8-14-16.1-59.3-37.2-51.5 1.7-3 4.2-5.6 7-7.7 3-2.1 6.3-3.7 9.6-4.6-7.9-3-22.4-7.3-30.4-3.9 4-8.8 19-14 32.5-13.7 12.4 0.3 87.2 4.1 92.9-14.6z"/>
						</g>
						<g id="&lt;Group&gt;">
							<path id="&lt;Path&gt;" class="s12" d="m989.6 593.5c-10.3 20.8-44 65.7-76 103.2-4 4.7-7.9 9.2-11.8 13.6-23.3 26.4-44 46.4-51.3 46.9q-0.8 0-1.3-0.2c-33.7-12.8 46.7-179.7 52.7-194.9l26.5-64.8c16.3 3 57.8-11.8 60.9-27.6 12.1 17.6 18.6 32.4 20.9 46 4.5 26.2-6 48.2-20.6 77.8z"/>
						</g>
						<g id="&lt;Group&gt;">
							<path id="&lt;Path&gt;" class="s12" d="m1030.4 727.6l-0.6 26.2c-23.8 1.3-47.9 4.8-71.9 5.3-21 0.6-40.9 0.8-61.7 1.4-14.8 0.4-32.5 0.3-45.8-2.9q26.2-49.2 37.1-54.9c2.1-1.2 4.3-2.1 6.6-2.8 6.7-2 13-3 19.5-3.2 10.1-0.3 20.3 1.3 31.9 4.4 23.7 6.5 49.7 14.3 74.8 23q5.1 1.7 10.1 3.5z"/>
						</g>
						<g id="&lt;Group&gt;">
							<path id="&lt;Path&gt;" class="s11" d="m1020.3 724.1c-15-1.2-30.1-4.7-44.6-7.7-20.9-4.3-56.8-15.5-74.8 0.9 0.1-2.2 0.4-4.6 0.9-7 0.6-2.6 1.4-5.2 2.7-7.5-7.4 3.1-15.9 6-21.8 12.7 1.1-4.4 2.7-8.7 4.8-12.8 5.2-10.5 13.1-20.2 20.5-28.6 13.7-15.4 28.4-30.5 42.4-45.7 14.3-15.6 28.4-36.5 38.2-55.3 6.7-12.8 13.9-26.9 17.9-40.8 0.9-3 2.6-9.6 3.7-16.6 4.5 26.2-6 48.2-20.6 77.8-10.3 20.8-44 65.7-76 103.2 10.1-0.3 20.3 1.3 31.9 4.4 23.7 6.5 49.7 14.3 74.8 23z"/>
						</g>
						<g id="&lt;Group&gt;">
							<path id="&lt;Path&gt;" class="s15" d="m880.5 529.6q0 0.1 0.1 0.2-0.1-0.1-0.2-0.1-0.4-0.5 0.1-0.1z"/>
							<path id="&lt;Path&gt;" class="s11" d="m909.5 547.6c-5.7 10-10.6 20-15.8 30 1.7-8.7 0.3-16 0.5-20 0.7-12.5-4.9-19.6-13.6-27.8 7 4.6 14.5 8.6 21.7 13.2 5.6-4.3 25-23.6 30.1-27.7-6.1 11.2-16.4 20.9-22.9 32.3z"/>
						</g>
					</g>
					<g id="&lt;Group&gt;">
						<g id="&lt;Group&gt;">
							<path id="&lt;Path&gt;" class="s16" d="m713.9 475.3q-6.4-2.3-8.1-7.8-0.7-3.7-8-5.4 0 0-39.3-9.1 0 0.1 0 0.1-7.3-1.7-9.5 1.3-3.9 4.2-10.7 3.5-7.2-0.6-10.2-7.5 0.5-2.1 0.5-2.1l8.1 1.9 5.9-5.6-2.9-7.6-8.1-1.9q0 0 0.5-2 5.7-4.9 12.4-2.3 6.5 2.3 8.2 7.8 0.6 3.7 7.9 5.4 39.3 9 39.3 9 7.3 1.7 9.5-1.3 4-4.2 10.8-3.4 7.2 0.5 10.1 7.4-0.4 2.1-0.4 2.1l-8.1-1.9-5.9 5.6 2.8 7.6 8.1 1.9q0 0-0.4 2-5.8 4.9-12.5 2.3z"/>
							<path id="&lt;Path&gt;" class="s17" d="m700.6 460.2l-41.7-9.6c-0.6-0.2-1-0.8-0.9-1.5l0.4-1.7c0.2-0.7 0.8-1.1 1.5-0.9l41.6 9.6c0.7 0.1 1.1 0.8 0.9 1.4l-0.4 1.8c-0.1 0.6-0.8 1-1.4 0.9z"/>
						</g>
						<g id="&lt;Group&gt;">
							<g id="&lt;Group&gt;">
								<g id="&lt;Group&gt;">
									<path id="&lt;Path&gt;" class="s1" d="m779 469.6q-0.2 0-0.4 0.1c-11.7 0.6-24.2-0.5-35.6 0.9q-2.1 0.2-4.2 0.6c-2.8-5.7-7-12.2-8.9-18.3q-0.1-0.5-0.3-0.9 3.4-0.9 6.7-2c33-10.4 61-30.7 90.3-49.4 16-10.1 30.1-14.9 42.3-16.4 5.9-0.7 11.4-0.6 16.3-0.1 3.9 0.5 7.4 1.2 10.7 2.1q16.9 4.8 26 14.9c0.1 11.7-16.8 24.9-29.2 34-12.5 9.2-26.5 16-41.2 21q-6.4 2.3-12.9 4c-19 5.3-39.8 8.4-59.6 9.5z"/>
								</g>
								<path id="&lt;Path&gt;" class="s2" d="m826.6 400.6c16-10.1 30.1-14.9 42.3-16.4l2.5 10c-3.8 2.4-15.2 2.8-21.3 5.1-7.5 2.8-14.2 6.1-20.8 10.6-12.6 8.7-24.9 18-38.3 24.9q-29.2 15.2-53.1 14.7c32.3-10.5 59.9-30.5 88.7-48.9z"/>
							</g>
							<path id="&lt;Path&gt;" class="s1" d="m692.2 456.3c2.6-3.4 9.8-8.1 13.5-9.9 13-6.1 20.5 3.7 33.8 5.8l5.5 16.3c-2.9 4.7-17.4 16.7-25.1 15.3-4.3-0.8-10.7-5.8-13.8-7.5-5.6-2.9-6.6-1.4-11.7-7.3-5.5-6.4-8.7-3.9-2.2-12.7z"/>
						</g>
						<g id="&lt;Group&gt;">
							<g id="&lt;Group&gt;">
								<path id="&lt;Path&gt;" class="s5" d="m966.6 340.8c-3.8 33.2-16.1 52.6-32.1 79.1-7.7-2.1-25.1-8.6-41.5-15.7q0 0 0 0c-18.6-8-35.8-16.8-36.3-21-0.2-1.6 42.8-112.9 66.6-120.7 20.1-6.5 31.6 4 33.6 5.4 4.1 3 7 7.8 8.9 13.5 6 18.2 2.3 46.3 0.8 59.4z"/>
							</g>
						</g>
					</g>
					<path id="&lt;Path&gt;" class="s6" d="m966.6 340.8c-3.8 33.2-16.1 52.6-32.1 79.1-7.7-2.1-25.1-8.6-41.5-15.7q0.9-0.3 1.8-0.6c8.2-3 16.5-4.9 23.4-10.2 17.3-13.3 29.8-40.9 36.4-60.9 3.7-11.6 7.6-23.4 9.4-35.4 0.7-4.3 1.5-10 1.8-15.7 6 18.2 2.3 46.3 0.8 59.4z"/>
					<path id="&lt;Path&gt;" class="s2" d="m835.3 239.4c-3.4 4.8-3.3 10.1-12.3 15.5q-5.7 3.4-19.5 4.2c9.9-3.6 23.7-11.3 31.8-19.7z"/>
				</g>
				<g id="&lt;Group&gt;">
					<g id="&lt;Group&gt;">
						<g id="&lt;Group&gt;">
							<path id="&lt;Path&gt;" class="s18" d="m73.9 757.5c1.7-4.6 2.1-13.7 22.8-20.4 14.5-4.7 38.9-8.2 80.7-8.2 47.2 0 75.1-6.8 102.2-10.2 48.1-6.2 84.7-6.5 132.8 0q160.4-1.4 175.3 16.9c-8.3 32.5-53.4 29.1-95.8 27.9-29.8-0.8-58.4-0.5-71.6 14.4 11 9.7 82.9 5.2 71.2 28.1-10.1 20-240.7 9.7-242.7-5.6-1.6-13 27.6-19.3 36.2-24-15.7-13.9-217.7-1.1-211.1-18.9z"/>
						</g>
						<g id="&lt;Group&gt;" style="opacity: .5;mix-blend-mode: multiply">
							<g id="&lt;Group&gt;">
								<path id="&lt;Path&gt;" class="s18" d="m73.9 757.5c1.7-4.6 2.1-13.7 22.8-20.4 11.1 12.6 47.4 11.6 60.9 12.2 32.6 1.7 65.7 0.8 98.1 2 22 0.9 49.2-4.7 69.1 4.5-0.5 15.9-20.3 16.7-24.6 29.8-5.8 17.4 18.2 14.8 33.1 14.8 33.5-0.1 66.4 4.1 99.5 1.6-37.2-11.8-52.1-44-1.3-42.6 19.5 0.6 40.1 1.2 60.4 4.1-29.8-0.8-58.4-0.5-71.6 14.4 11 9.7 82.9 5.2 71.2 28.1-10.1 20-240.7 9.7-242.7-5.6-1.6-13 27.6-19.3 36.2-24-15.7-13.9-217.7-1.1-211.1-18.9z"/>
							</g>
						</g>
						<path id="&lt;Path&gt;" class="s19" d="m353.8 724.8c-6.7 3.6-25.3 4.1-32.9 14.3 7.4 7.4 19.1 8.9 27.1 14.3-35.6 15.9 26.3 32.8 39.9 32.7-22.8 4.4-69.8 6.4-86.4-12.7 3.6-7.7 10.9-11.7 18.9-13.9-12.8-6-55.8-7.3-36.1-26.5 10.9-10.6 50.2-10.4 65.4-10.3z"/>
					</g>
					<g id="&lt;Group&gt;">
						<g id="&lt;Group&gt;">
							<rect id="&lt;Path&gt;" class="s4" x="561.3" y="311.5" width="72" height="357.8" rx="14.5"></rect>
						</g>
						<g id="&lt;Group&gt;">
							<g id="&lt;Group&gt;">
								<path id="&lt;Path&gt;" class="s20" d="m243.7 735.7c0 4.5-3.7 8.1-8.2 8.1h-58.9c-4.5 0-8.2-3.6-8.2-8.1 0-4.5 3.7-8.2 8.2-8.2h58.9c4.5 0 8.2 3.7 8.2 8.2z"/>
								<path id="&lt;Path&gt;" class="s20" d="m457.7 735.7c0 4.5-3.7 8.1-8.1 8.1h-59c-4.5 0-8.1-3.6-8.1-8.1 0-4.5 3.6-8.2 8.1-8.2h59c4.4 0 8.1 3.7 8.1 8.2z"/>
								<path id="&lt;Path&gt;" class="s20" d="m601.9 735.7c0 4.5-3.6 8.1-8.1 8.1h-58.9c-4.5 0-8.2-3.6-8.2-8.1 0-4.5 3.7-8.2 8.2-8.2h58.9c4.5 0 8.1 3.7 8.1 8.2z"/>
							</g>
							<g id="&lt;Group&gt;">
								<g id="&lt;Group&gt;">
									<rect id="&lt;Path&gt;" class="s21" x="254.5" y="230.4" width="362.9" height="505.6" rx="15.5"></rect>
								</g>
								<g id="&lt;Group&gt;">
									<path id="&lt;Path&gt;" class="s3" d="m476.3 245.9v474.6c0 8.6-6.2 15.6-13.8 15.6h-295.8c-7.6 0-13.8-7-13.8-15.6v-474.6c0-8.5 6.2-15.5 13.8-15.5h295.8c7.6 0 13.8 7 13.8 15.5z"/>
								</g>
								<g id="&lt;Group&gt;">
									<path id="&lt;Path&gt;" class="s22" d="m419.6 496.7q0 6.6-0.7 13 0 0.4 0 0.6-0.1 0.1-0.1 0.2 0 0 0 0.1 0 0.1 0 0.3-0.3 1.5-0.5 3.1c-0.5 2.4-1 4.8-1.6 7.2-0.9 4.1-2.2 8.1-3.6 12q-0.5 1.4-1.1 2.9-0.2 0.4-0.3 0.7 0 0 0 0.1 0 0 0 0-0.1 0.1-0.1 0.2-1.5 3.3-3.1 6.5c-1.9 3.7-4 7.2-6.2 10.6-1.1 1.7-2.3 3.4-3.5 5q-0.3 0.4-0.4 0.5-0.1 0.1-0.1 0.2-0.1 0.1-0.2 0.2-1.3 1.6-2.6 3.1c-2.6 3.1-5.4 6.1-8.4 8.9q-2.2 2.1-4.5 4.1-1.2 1-2.4 1.9-0.4 0.4-0.8 0.7 0 0-0.1 0 0 0.1 0 0.1-0.2 0.1-0.7 0.5c-6.9 5.1-14.3 9.3-22.1 12.8q-0.1 0-0.1 0.1-0.1 0-0.1 0-0.2 0.1-0.9 0.3-1.4 0.6-2.9 1.1-2.9 1.1-5.9 2-3.1 1-6.3 1.8-3.5 0.8-6.9 1.4-1.6 0.3-3.2 0.5-0.1 0-0.2 0.1 0 0-0.1 0-0.3 0-0.8 0.1-3.2 0.3-6.5 0.5c-4.7 0.3-9.4 0.2-14.1-0.1q-2.7-0.1-5.4-0.5c-0.2 0-2-0.2-2.2-0.2q-1.5-0.3-3.1-0.6c-4.5-0.8-8.9-1.9-13.2-3.3-14.5-4.5-29-13.3-40.3-24-2.9-2.8-5.7-5.8-8.3-8.9q-1-1.2-1.9-2.4 0 0 0 0-0.1-0.1-0.2-0.2-0.1-0.2-0.5-0.7c-1.4-1.9-2.7-3.9-4-5.9-2.3-3.4-4.3-6.9-6.1-10.6q-1.4-2.8-2.7-5.6 0 0 0-0.1 0 0 0 0-0.1-0.3-0.4-0.9-0.7-1.9-1.4-3.9c-1.5-3.9-2.6-7.9-3.6-12-0.5-2-0.9-4.1-1.3-6.2q-0.2-1.6-0.5-3.1 0-0.1 0-0.2 0 0 0-0.1-0.1-1-0.2-1.9c-0.5-4.4-0.7-8.7-0.6-13.1q0-3.2 0.2-6.5 0.1-1.6 0.3-3.2c0-0.3 0.3-2.9 0.3-3.1 1.2-8.3 3.4-16.5 6.4-24.4 0.1-0.2 0.6-1.5 0.8-1.9q0 0 0 0 0-0.1 0-0.1 0.4-1 0.9-1.9 1.3-2.8 2.7-5.5c2.1-4 4.4-7.8 6.9-11.4q0.8-1.3 1.7-2.5c0.1-0.2 1.1-1.5 1.2-1.6q0-0.1 0.1-0.1 1.6-2 3.2-3.9c2.9-3.4 6-6.5 9.3-9.5 1.4-1.4 3-2.7 4.6-4q0.8-0.7 1.6-1.3 0 0 0 0c0.2-0.1 1.5-1.1 1.6-1.2 3.6-2.6 7.4-5 11.2-7.2 3.3-1.9 6.7-3.5 10.2-5 0 0 1.7-0.7 1.9-0.8q1.5-0.6 2.9-1.1 3.5-1.2 7-2.2c4-1.2 8.1-2.1 12.3-2.8q1.1-0.2 2.2-0.3c0.1 0 1.9-0.3 2.1-0.3 2.5-0.3 5-0.4 7.5-0.5 4.4-0.2 8.7-0.1 13.1 0.2q1 0.1 2 0.2 0.6 0 1.2 0.1c0.2 0 2 0.3 2.2 0.3q0 0 0 0 3.1 0.4 6.3 1.1c4.1 0.8 8.1 1.9 12.1 3.2q3 1 5.9 2.1c0.2 0 1.5 0.6 1.8 0.7q0.1 0 0.1 0 0 0 0 0.1 1.5 0.6 2.9 1.3c3.7 1.7 7.3 3.7 10.8 5.8q2.6 1.6 5.2 3.3 1.2 0.9 2.5 1.8 0.7 0.5 1.5 1.1 0.1 0.1 0.2 0.1c6.6 5.3 12.6 11.3 18 17.9q0.3 0.4 0.7 0.9 0.1 0.2 0.6 0.8 1.5 2 2.9 4.1c1.7 2.6 3.3 5.2 4.8 7.9 1.5 2.6 2.9 5.4 4.2 8.2 0.2 0.3 1.1 2.5 1.2 2.7q0.8 2 1.5 4.1c2.2 5.9 3.7 12 4.9 18.2q0.3 1.8 0.5 3.6c-0.1-0.7 0.4 3.3 0.4 3.9 0.3 3.2 0.4 6.5 0.4 9.7z"/>
								</g>
								<g id="&lt;Group&gt;">
									<path id="&lt;Path&gt;" class="s4" d="m419.6 496.7q0 6.6-0.7 13 0 0.4 0 0.6-0.1 0.1-0.1 0.2 0 0 0 0.1 0 0.1 0 0.3-0.3 1.5-0.5 3.1c-0.5 2.4-1 4.8-1.6 7.2-0.9 4.1-2.2 8.1-3.6 12q-0.5 1.4-1.1 2.9-0.2 0.4-0.3 0.7 0 0 0 0.1 0 0 0 0-0.1 0.1-0.1 0.2-1.5 3.3-3.1 6.5c-1.9 3.7-4 7.2-6.2 10.6-1.1 1.7-2.3 3.4-3.5 5q-0.3 0.4-0.4 0.5-0.1 0.1-0.1 0.2-0.1 0.1-0.2 0.2-1.3 1.6-2.6 3.1c-2.6 3.1-5.4 6.1-8.4 8.9q-2.2 2.1-4.5 4.1-1.2 1-2.4 1.9-0.4 0.4-0.8 0.7 0 0-0.1 0 0 0.1 0 0.1-0.2 0.1-0.7 0.5c-6.9 5.1-14.3 9.3-22.1 12.8q-0.1 0-0.1 0.1-0.1 0-0.1 0-0.2 0.1-0.9 0.3-1.4 0.6-2.9 1.1-2.9 1.1-5.9 2-3.1 1-6.3 1.8-1.2-0.2-2.3-0.3c-0.2 0-2-0.2-2.2-0.3q-1.5-0.2-3.1-0.5c-4.5-0.8-8.9-2-13.2-3.3-14.5-4.5-29-13.3-40.3-24.1-2.9-2.8-5.7-5.8-8.3-8.9q-1-1.1-1.9-2.3 0 0 0-0.1-0.1 0-0.2-0.1-0.1-0.2-0.5-0.7c-1.4-1.9-2.7-3.9-4-5.9-2.3-3.4-4.3-7-6.1-10.6q-1.4-2.8-2.7-5.6 0-0.1 0-0.1 0 0 0-0.1-0.1-0.2-0.4-0.8-0.7-2-1.4-3.9c-1.5-3.9-2.6-8-3.6-12-0.5-2.1-0.9-4.2-1.3-6.2q-0.2-1.6-0.5-3.2 0-0.1 0-0.1 0-0.1 0-0.1-0.1-1-0.2-2c-0.5-4.3-0.7-8.6-0.6-13q0-3.2 0.2-6.5 0.1-1.6 0.3-3.2c0-0.4 0.3-2.9 0.3-3.1 1.2-8.4 3.4-16.6 6.4-24.5 0.1-0.1 0.6-1.5 0.8-1.8q0 0 0-0.1 0 0 0 0 0.4-1 0.9-1.9 1.3-2.8 2.7-5.6c2.1-3.9 4.4-7.7 6.9-11.3q0.8-1.3 1.7-2.5c0.1-0.2 1.1-1.5 1.2-1.7q0 0 0.1 0 1.6-2 3.2-4c2.9-3.3 6-6.4 9.3-9.4 1.4-1.4 3-2.7 4.6-4q0.8-0.7 1.6-1.3 0 0 0 0c0.2-0.2 1.5-1.1 1.6-1.3 3.6-2.6 7.4-4.9 11.2-7.1 3.3-1.9 6.7-3.5 10.2-5.1 0 0 1.7-0.7 1.9-0.8q1.5-0.5 2.9-1 3.5-1.2 7-2.2 2.1-0.7 4.3-1.2 0.6 0 1.2 0.1c0.2 0 2 0.3 2.2 0.3q0 0 0 0 3.1 0.4 6.3 1.1c4.1 0.8 8.1 1.9 12.1 3.2q3 1 5.9 2.1c0.2 0 1.5 0.6 1.8 0.7q0.1 0 0.1 0 0 0 0 0.1 1.5 0.6 2.9 1.3c3.7 1.7 7.3 3.7 10.8 5.8q2.6 1.6 5.2 3.3 1.2 0.9 2.5 1.8 0.7 0.5 1.5 1.1 0.1 0.1 0.2 0.1c6.6 5.3 12.6 11.3 18 17.9q0.3 0.4 0.7 0.9 0.1 0.2 0.6 0.8 1.5 2 2.9 4.1c1.7 2.6 3.3 5.2 4.8 7.9 1.5 2.6 2.9 5.4 4.2 8.2 0.2 0.3 1.1 2.5 1.2 2.7q0.8 2 1.5 4.1c2.2 5.9 3.7 12 4.9 18.2q0.3 1.8 0.5 3.6c-0.1-0.7 0.4 3.3 0.4 3.9 0.3 3.2 0.4 6.5 0.4 9.7z"/>
								</g>
								<g id="&lt;Group&gt;">
									<g id="&lt;Group&gt;">
										<path id="&lt;Compound Path&gt;" fill-rule="evenodd" class="s23" d="m442.9 496.6v0.4c-0.1 11.8-1.8 23.5-5.1 34.7-2.6 9-6.2 17.7-10.7 25.9q-2.7 5-5.9 9.8-5 7.5-11 14.3c-8.6 9.6-18.7 17.9-30.1 24.5-32.1 18.7-72.7 22.9-107.6 9.6-6.2-2.4-12.3-5.2-18-8.4-26.3-14.8-46.8-38.3-57.5-67.1-12.9-34.9-9.4-75.5 9.6-107.6 11.5-19.4 28.2-35.8 47.9-46.8 11.8-6.7 24.7-11.4 38.2-13.8 37.7-6.5 76.2 3.3 105.6 28.1q5.7 4.9 10.8 10.4 6.2 6.7 11.4 14.2 3.3 4.8 6.1 9.8c4.5 8.2 8.2 16.9 10.9 25.8q0 0 0 0.1c3.5 11.6 5.3 23.8 5.4 36.1zm-28.7 33.3q0 0 0 0 0.4-1.2 0.8-2.3 0.3-0.9 0.5-1.8 0.1-0.1 0.1-0.2 0-0.1 0-0.2 0.2-0.6 0.4-1.1 0-0.4 0.1-0.7 0-0.1 0-0.1 0.1-0.1 0.1-0.2 0.1-0.3 0.2-0.6 0.2-0.7 0.3-1.5c0.6-2.4 1.1-4.8 1.6-7.2q0.2-1.6 0.5-3.1 0-0.2 0-0.3 0-0.1 0-0.1 0-0.1 0.1-0.2 0-0.2 0-0.6 0.7-6.4 0.7-13c0-3.2-0.1-6.5-0.4-9.7q0-0.1 0-0.3 0-0.2 0-0.3 0 0 0-0.1-0.1-0.3-0.1-0.6 0-0.1 0-0.3 0-0.1-0.1-0.2 0-0.1 0-0.3 0-0.1 0-0.2 0-0.1 0-0.3-0.1-0.1-0.1-0.1 0-0.1 0-0.2 0-0.1 0-0.3 0-0.1 0-0.1 0-0.1 0-0.1 0-0.2-0.1-0.3 0-0.2 0-0.3 0 0 0 0-0.2-1.8-0.5-3.5-0.2-0.9-0.4-1.8 0-0.2 0-0.4-0.1-0.3-0.2-0.6-0.1-0.7-0.3-1.3 0-0.1 0-0.2-0.1-0.3-0.1-0.6-0.2-0.8-0.4-1.5-0.2-0.9-0.4-1.8-0.1-0.3-0.2-0.5 0-0.1 0-0.1-0.1-0.6-0.3-1.2 0 0 0-0.1-0.1-0.4-0.2-0.7 0-0.1 0-0.2-0.2-0.6-0.4-1.3-0.1-0.3-0.2-0.6-0.1-0.3-0.2-0.5-0.2-0.7-0.4-1.4-0.2-0.5-0.3-1-0.1-0.4-0.3-0.8 0-0.1-0.1-0.2-0.2-0.7-0.5-1.4-0.7-2.1-1.5-4.1c-0.1-0.2-1-2.4-1.2-2.7-1.3-2.8-2.7-5.6-4.2-8.2q-1.1-2-2.2-3.8-0.1-0.1-0.1-0.2-0.2-0.4-0.4-0.7-0.1-0.1-0.1-0.1-0.4-0.6-0.7-1.2-0.5-0.8-1.1-1.5v-0.1q-0.1-0.1-0.2-0.3-1.4-2.1-2.9-4.1-0.5-0.6-0.6-0.8-0.4-0.5-0.7-0.9c-5.4-6.6-11.4-12.6-18-17.9q-0.1 0-0.2-0.1-0.8-0.6-1.5-1.1-1.3-0.9-2.5-1.8-2.6-1.7-5.2-3.3c-3.5-2.1-7.1-4.1-10.8-5.8q-1.4-0.7-2.9-1.3 0-0.1 0-0.1 0 0-0.1 0c-0.3-0.1-1.6-0.7-1.8-0.7q-2.9-1.1-5.9-2.1c-4-1.3-8-2.4-12.1-3.2q-3.2-0.7-6.3-1.1 0 0-0.1 0c-0.1 0-1.9-0.3-2.1-0.3q-0.6-0.1-1.2-0.1-0.2 0-0.4-0.1-0.8 0-1.6-0.1c-4.4-0.3-8.7-0.4-13.1-0.2-2.5 0.1-5 0.2-7.5 0.5-0.2 0-2 0.3-2.1 0.3q-1.1 0.1-2.2 0.3c-4.2 0.7-8.3 1.6-12.3 2.8q-3.5 1-7 2.2-1.4 0.5-2.9 1.1 0 0-0.1 0 0 0-0.1 0.1-0.2 0-0.5 0.2-0.2 0.1-0.5 0.2-0.1 0-0.1 0-0.1 0.1-0.2 0.1-0.1 0-0.1 0.1-0.1 0-0.1 0-0.1 0-0.1 0-0.1 0.1-0.1 0.1c-3.5 1.5-6.9 3.1-10.2 5q-0.7 0.4-1.4 0.8-0.7 0.5-1.5 0.9-1.6 1-3.2 2-0.6 0.4-1.3 0.8-0.5 0.4-1 0.7-0.7 0.5-1.4 1-0.6 0.4-1.3 0.9 0 0-0.1 0.1c-0.1 0.1-1.4 1.1-1.6 1.2q0 0 0 0 0 0 0 0-0.8 0.6-1.6 1.3c-1.6 1.3-3.2 2.6-4.6 4-3.3 3-6.4 6.1-9.3 9.5q-1.6 1.9-3.2 3.9-0.1 0-0.1 0c-0.1 0.2-1.1 1.5-1.2 1.7q-0.9 1.2-1.7 2.5c-2.5 3.6-4.8 7.4-6.9 11.4q-1.4 2.7-2.7 5.5-0.5 1-0.9 1.9 0 0 0 0.1 0 0 0 0c-0.2 0.4-0.7 1.7-0.8 1.9-3 7.9-5.2 16.1-6.4 24.4 0 0.2-0.3 2.8-0.3 3.1q-0.2 1.6-0.3 3.2-0.2 3.3-0.2 6.5c-0.1 4.4 0.1 8.7 0.6 13.1q0.1 0.9 0.2 1.9 0 0.1 0 0.1 0 0.1 0 0.2 0.3 1.5 0.5 3.1c0.4 2.1 0.8 4.2 1.3 6.2 1 4.1 2.1 8.1 3.6 12q0.7 2 1.4 3.9 0.3 0.6 0.4 0.9 0 0 0 0 0 0.1 0 0.1c0.9 1.9 1.7 3.8 2.7 5.6 1.8 3.6 3.8 7.2 6.1 10.6 1.3 2 2.6 4 4 5.9q0.4 0.5 0.5 0.7 0.1 0.1 0.2 0.2 0 0 0 0 0.9 1.2 1.9 2.4c2.6 3.1 5.4 6.1 8.3 8.9q0.8 0.7 1.6 1.5 0.8 0.7 1.6 1.4 0 0 0.1 0.1 0.3 0.2 0.5 0.4 0.3 0.3 0.6 0.5 0.1 0.1 0.2 0.2 0.4 0.3 0.7 0.6 0.1 0 0.1 0.1 0.4 0.3 0.8 0.6 0.3 0.2 0.5 0.4 0.2 0.2 0.5 0.4 0.3 0.3 0.6 0.5 0.5 0.4 1.1 0.8 0.6 0.5 1.3 1 0 0 0 0 0.9 0.7 1.8 1.3 0.8 0.6 1.7 1.2 0.5 0.3 0.9 0.6 0.9 0.6 1.8 1.2 0.5 0.3 0.9 0.6 0.4 0.2 0.8 0.4 0.4 0.3 0.8 0.5 0.3 0.2 0.5 0.3 0.7 0.4 1.4 0.8 0.9 0.5 1.8 1 0 0 0 0 0.8 0.5 1.5 0.9 0.3 0.1 0.6 0.2 0.6 0.4 1.2 0.6 0.3 0.2 0.7 0.4 0.1 0.1 0.2 0.1 1.2 0.6 2.4 1.2 0.9 0.4 1.8 0.8 0.6 0.2 1.1 0.4 0.4 0.2 0.7 0.3 0.6 0.3 1.2 0.5 0.1 0 0.1 0 1.1 0.5 2.1 0.8 0.8 0.3 1.7 0.6 0.4 0.2 0.9 0.3 0 0 0.1 0.1 0.7 0.2 1.4 0.4c4.3 1.3 8.7 2.5 13.2 3.3q1.6 0.3 3.1 0.6c0.2 0 2 0.2 2.2 0.2q2.7 0.4 5.4 0.5c4.7 0.3 9.4 0.4 14.1 0.1 2.2-0.1 4.3-0.3 6.5-0.5q0.5-0.1 0.8-0.1 0.1 0 0.1-0.1 0.1 0 0.2 0 1.6-0.2 3.2-0.5 3.4-0.6 6.9-1.4 0.8-0.2 1.6-0.4 0.8-0.3 1.6-0.5 0.4-0.1 0.8-0.2 1.2-0.3 2.3-0.7 3-0.9 5.9-2 1.5-0.5 2.9-1.1 0.7-0.2 0.9-0.3 0.1 0 0.1 0 0-0.1 0.1-0.1c7.8-3.5 15.2-7.7 22.1-12.8q0.5-0.4 0.7-0.5 0 0 0-0.1 0.1 0 0.1 0 0.4-0.3 0.9-0.7 1.1-0.9 2.3-1.9 2.3-2 4.5-4.1c3-2.8 5.8-5.8 8.4-8.9q1.3-1.5 2.6-3.1 0.1-0.1 0.2-0.2 0-0.1 0.1-0.2 0.1-0.2 0.4-0.5 1.8-2.4 3.5-5 0.1-0.2 0.2-0.3v-0.1q0 0 0 0 0 0 0 0 0.1-0.1 0.1-0.2 0.3-0.3 0.5-0.7 0.1-0.1 0.2-0.3 1.4-2.2 2.7-4.4 0.3-0.6 0.6-1.2 1-1.7 1.9-3.4 1.6-3.2 3.1-6.5 0-0.1 0.1-0.2 0 0 0 0 0-0.1 0-0.1 0.1-0.3 0.3-0.7 0.6-1.5 1.1-2.9 0.5-1.5 1-3 0.1-0.1 0.1-0.3z"/>
									</g>
								</g>
								<g id="&lt;Group&gt;">
									<path id="&lt;Path&gt;" class="s22" d="m617.4 267.3v4h-383.7q-0.9-0.1-1.9-0.1h-78.9v-3.9z"/>
								</g>
								<g id="&lt;Group&gt;">
									<path id="&lt;Path&gt;" class="s22" d="m617.4 682.5v4.1h-464.5v-4.1z"/>
								</g>
								<path id="&lt;Compound Path&gt;" class="s22" d="m249.7 284.4v56.2c0 9.8-8 17.8-17.9 17.8h-78.9v-4.6h78.9c7.3 0 13.2-5.9 13.2-13.2v-56.2c0-6.7-4.9-12.1-11.3-13.1q-0.9-0.1-1.9-0.1h-78.9v-4.7h78.9q2.7 0 5 0.8c2.7 0.7 5.2 2.2 7.2 4 3.5 3.3 5.7 7.9 5.7 13.1z"/>
								<g id="&lt;Group&gt;">
									<circle id="&lt;Path&gt;" class="s22" cx="310.7" cy="313.7" r="28.5"/>
								</g>
								<circle id="&lt;Path&gt;" class="s5" cx="366.6" cy="298.2" r="9.9"/>
								<g id="&lt;Group&gt;">
									<g id="&lt;Group&gt;">
										<circle id="&lt;Path&gt;" class="s23" cx="393.6" cy="298.2" r="7.2"/>
									</g>
									<g id="&lt;Group&gt;">
										<circle id="&lt;Path&gt;" class="s23" cx="413.2" cy="298.2" r="7.2"/>
									</g>
									<g id="&lt;Group&gt;">
										<circle id="&lt;Path&gt;" class="s23" cx="432.8" cy="298.2" r="7.2"/>
									</g>
									<g id="&lt;Group&gt;">
										<circle id="&lt;Path&gt;" class="s23" cx="452.4" cy="298.2" r="7.2"/>
									</g>
								</g>
								<g id="&lt;Group&gt;">
									<circle id="&lt;Path&gt;" class="s3" cx="303.8" cy="313.7" r="20.4"/>
								</g>
								<g id="&lt;Group&gt;">
									<g id="&lt;Group&gt;">
										<g id="&lt;Group&gt;">
											<g id="&lt;Group&gt;">
												<path id="&lt;Compound Path&gt;" fill-rule="evenodd" class="s23" d="m531 494.8c-0.1 21.3-2 42.8-6.7 63.6-3.6 16-8.7 32.5-17.6 46.4-6.7 10.3-16.4 21.1-29.2 23.2q-0.6 0.1-1.2 0.1c-4.1 0.6-8.1 0.3-12-0.6-8-1.9-15.2-6.8-20.8-13.4-10.9-13.1-17.5-29.3-22-45.6q-0.1-0.5-0.3-1.1c-3.3-12.2-5.6-24.8-7-37.5q0 0 0 0c-1-8.8-1.5-17.7-1.8-26.6-0.3-13.5 0.1-27.1 1.5-40.6 1-9.4 2.4-18.7 4.3-28q1-4.9 2.3-9.9c3.5-14 8.4-27.9 16.1-40 6.7-10.3 15.6-19.7 27.6-22.8q2.8-0.7 5.8-0.9 3.2-0.2 6.3 0.2c11.5 1.8 20.9 10.3 27.6 19.5 10 13.7 15.7 30.7 19.6 47 5.2 21.9 7.4 44.5 7.5 67zm-66.1 107.8q0.1 0.1 0.2 0.1c1 0.7 2 1.4 3.1 1.9q0.1 0 0.1 0 0.7 0.3 1.5 0.5 0.4 0.1 0.8 0.2 0.9 0 1.7 0c0.6-0.1 1.8-0.4 2.3-0.5q0.2-0.1 0.3-0.1 0.6-0.3 1.2-0.7 0.1 0 0.2-0.1 0.9-0.5 1.8-1.1c0.4-0.4 1.9-1.6 2.3-2q1.5-1.5 2.9-3.2 0.4-0.4 0.6-0.6 0.7-1 1.3-1.9 1.4-2.1 2.7-4.2 2.7-4.7 5-9.7 0.2-0.6 0.5-1.2 0.1-0.2 0.2-0.5 0.6-1.4 1.1-2.8 1.1-3 2.1-6 2.1-6.3 3.7-12.8c5.3-21.2 7.2-40.7 7.2-63v-0.1c0-7.8-0.2-15.6-0.8-23.3-1.4-20.6-5-40.6-12.9-60.5-0.1-0.2-0.7-1.6-0.8-1.8q-0.2-0.4-0.3-0.8-0.8-1.7-1.6-3.4c-1.2-2.4-2.5-4.7-3.8-7q-1.6-2.6-3.3-5c-0.3-0.3-1.1-1.3-1.4-1.6q-0.9-1.1-1.9-2.1c-0.8-0.8-1.6-1.6-2.5-2.3q0 0 0 0-0.1-0.1-0.2-0.1-0.9-0.7-1.9-1.2-0.3-0.2-0.7-0.4c-0.2-0.1-0.6-0.3-0.9-0.4q-0.9-0.3-1.7-0.5-0.1 0-0.2-0.1c-1.1 0.1-2.9 0.3-3.1 0.2q-0.4 0.1-0.8 0.3c-0.6 0.3-1.8 0.8-2.2 1.1-0.6 0.3-2.3 1.6-2.5 1.7q-0.1 0.2-0.3 0.3-0.8 0.7-1.5 1.4-1.4 1.5-2.7 3c-0.4 0.5-1.8 2.4-2.1 2.9q-0.7 1.1-1.4 2.2-0.6 1.1-1.3 2.2-1.3 2.2-2.5 4.6-1.3 2.6-2.4 5.3c-0.2 0.5-0.6 1.4-0.7 1.5q-0.1 0.2-0.1 0.4-0.4 1.1-0.8 2.1-0.1 0.2-0.2 0.4-2.2 6.1-3.9 12.3-1.6 5.4-2.8 10.9-1.9 8.3-3.1 16.7-0.2 1-0.3 1.9-0.3 2.2-0.6 4.5 0 0.1 0 0.2 0 0 0 0.1-0.1 1-0.3 2 0 0.1 0 0.3-0.1 0.7-0.1 1.5-0.3 2.7-0.5 5.5-0.1 1.1-0.2 2.2-0.3 3.7-0.5 7.5 0 1.2-0.1 2.5 0 0.2 0 0.4 0 1-0.1 2.1c-0.1 5.6-0.2 11.4 0 17.1q0 1.4 0 2.7 0.1 1.3 0.1 2.7 0.1 2.6 0.3 5.3 0.1 2.6 0.3 5.2 0.2 2.6 0.4 5.1 0.1 1.1 0.2 2.3 0.2 1.1 0.3 2.2 0.1 1.1 0.3 2.3 0.1 0.9 0.2 1.7 0 0.3 0 0.6 0.2 1.1 0.3 2.3 0.2 0.9 0.3 1.8 0.3 2 0.6 4.1 0.1 0.6 0.2 1.3 0.1 0.6 0.3 1.3 0.1 0.7 0.2 1.3 0.2 1.3 0.5 2.7 0.1 0.6 0.2 1.3 0.3 1.2 0.6 2.5 0.1 0.7 0.2 1.3 0.2 0.6 0.3 1.2 0.3 1.3 0.6 2.7 0.3 1.3 0.7 2.7 0.4 1.5 0.8 3 0.6 2.2 1.2 4.4 0.2 0.7 0.5 1.4 0.4 1.5 0.9 2.9 0.5 1.6 1 3.1 0.4 1 0.8 2.1 0.6 1.8 1.3 3.5 0.3 0.7 0.6 1.4 0 0.1 0.1 0.2 0 0 0 0.1 0.3 0.7 0.6 1.3 0.3 0.7 0.6 1.3 1.2 2.5 2.5 4.9c1.6 3 3.3 5.9 5.3 8.6q0.2 0.2 0.3 0.4 0.1 0.1 0.2 0.3 0.7 0.8 1.4 1.6c1 1.1 1.9 2.1 3 3q0 0 0 0 0.5 0.5 1 0.9zm4.3 2.5c0.1 0 0.7 0.1 1.2 0.2-0.9-0.2-1.2-0.2-1.2-0.2z"/>
											</g>
										</g>
										<g id="&lt;Group&gt;">
											<g id="&lt;Group&gt;">
												<path id="&lt;Compound Path&gt;" fill-rule="evenodd" class="s3" d="m515.5 494.8c-0.1 21.3-2 42.8-6.7 63.6-3.6 16-8.7 32.5-17.6 46.4-3.9 6.1-8.9 12.3-14.9 16.8-3.6 2.7-7.6 4.8-12 5.9q-1.1 0.3-2.3 0.5c-13.2 2.1-25.5-3.8-34-13.9-7.9-9.5-13.6-20.7-17.8-32.4-1.6-4.3-3-8.8-4.2-13.2q-2-7.2-3.5-14.6v-0.1c-3.4-16.6-5.2-33.6-5.6-50.5-0.5-21.5 0.9-43.3 5-64.5v-0.1q0.4-2 0.8-4c1.7-8 3.7-16.2 6.4-24.1 3.1-9.1 6.9-17.9 12-25.8 7.7-11.9 18.5-22.6 33.4-23.7 3.4-0.3 6.6 0.1 9.7 0.9 4.4 1.3 8.4 3.4 12.1 6.2 4.7 3.5 8.7 8 12.1 12.6 10 13.7 15.7 30.7 19.6 47 5.2 21.9 7.4 44.5 7.5 67zm-27.6 49.8q0.1-0.2 0.1-0.4 0.1-0.4 0.2-0.9 0.1-0.5 0.1-1 0.1-0.3 0.1-0.5 0.1-0.1 0.1-0.2 0.2-1.6 0.5-3.1 0 0 0-0.1 0 0 0 0l0.2-1.5q0.2-0.7 0.3-1.4 0-0.1 0-0.1 0-0.1 0-0.1 0-0.1 0-0.1 0.2-1.2 0.3-2.4 0.1-0.4 0.1-0.7 0.1-0.2 0.1-0.4 0.2-1.5 0.4-3.1 0-0.3 0-0.5 0.3-2.6 0.6-5.2 0-0.1 0-0.2 0.1-0.9 0.1-1.7 0.1-0.7 0.2-1.3 0-1.1 0.1-2.2 0.3-4.2 0.5-8.4 0-1 0.1-2 0-0.7 0-1.5 0.1-1 0.1-2 0-0.3 0-0.6 0-1 0-2 0.1-1.3 0.1-2.6 0-0.6 0-1.2 0-1.2 0-2.4 0-1.3 0-2.7 0-1.5 0-3.1-0.1-1.1-0.1-2.2v-0.1q0-0.9 0-1.8 0-0.2 0-0.4-0.1-0.2-0.1-0.5 0-0.1 0-0.2 0-0.1 0-0.3 0-2.3-0.1-4.7-0.1-0.9-0.1-1.8-0.1-1.8-0.2-3.5 0-0.2 0-0.3-0.1-1.2-0.2-2.5-0.1-0.4-0.1-0.8 0-0.5 0-1-0.1-0.4-0.1-0.8 0-0.4-0.1-0.9 0-0.4-0.1-0.9-0.1-1-0.2-2.1-0.1-1.7-0.3-3.3-0.1-0.8-0.2-1.6-0.1-0.7-0.1-1.3-0.2-1.3-0.4-2.6 0 0 0-0.1-0.1-0.7-0.2-1.5 0 0 0-0.1 0-0.2-0.1-0.4-0.1-0.9-0.2-1.8-0.1-0.7-0.3-1.5-0.1-1-0.3-1.9-0.3-1.8-0.6-3.6 0 0 0-0.1-0.1-0.3-0.2-0.7-0.1-0.9-0.3-1.8-0.2-1.1-0.5-2.2-0.3-1.3-0.5-2.5-0.2-0.6-0.3-1.1-0.8-3.5-1.8-7 0 0 0-0.1-0.1-0.3-0.2-0.6-0.2-0.7-0.4-1.4 0 0 0 0-0.2-0.7-0.4-1.3-1.1-4-2.5-8-0.3-0.7-0.6-1.5 0-0.2-0.1-0.4-0.3-0.7-0.6-1.5-0.6-1.6-1.2-3.3c-0.1-0.2-0.7-1.6-0.8-1.8q-0.2-0.4-0.3-0.8-0.4-0.9-0.8-1.7-0.1-0.3-0.3-0.6-0.3-0.5-0.5-1.1c-1.2-2.4-2.5-4.7-3.9-7q-1.5-2.6-3.2-5c-0.2-0.2-0.6-0.7-0.9-1.1q-0.1-0.1-0.2-0.2 0 0 0 0-0.2-0.2-0.3-0.3-0.2-0.3-0.4-0.5-0.8-0.8-1.5-1.6-0.7-0.7-1.5-1.4-0.5-0.5-1-0.9 0 0 0 0-0.1-0.1-0.2-0.1-1.3-0.9-2.6-1.6c-0.2-0.1-0.6-0.3-0.9-0.4q-0.9-0.3-1.7-0.5-0.1 0-0.2-0.1c-1.1 0.1-2.9 0.3-3.1 0.2q-0.4 0.1-0.8 0.3c-0.7 0.3-1.8 0.8-2.3 1.1-0.5 0.3-2.2 1.6-2.4 1.7q-0.9 0.8-1.8 1.7-1.4 1.5-2.7 3c-0.4 0.5-1.8 2.4-2.1 2.9q-2.8 4.3-5.2 9-1.3 2.6-2.5 5.3c-0.1 0.5-0.5 1.4-0.6 1.5q-0.5 1.5-1.1 2.9-2.2 6.1-4 12.3-1.1 4.2-2.1 8.4-2.5 10.5-4 21.1c-2.8 20-3.3 45-1.3 66.9 1.1 11.2 2.9 23.2 5.8 35 1.8 7.1 4 14.2 6.7 21q0.3 0.7 0.6 1.4 0.1 0.1 0.1 0.3 0.6 1.3 1.2 2.6 1.2 2.5 2.5 4.9c1.6 3 3.3 5.9 5.3 8.6q0.1 0.2 0.3 0.4 0.1 0.1 0.2 0.3 0.7 0.8 1.4 1.6c1 1.1 1.9 2.1 3 3q0.5 0.5 1 0.9 0.1 0.1 0.2 0.1c1 0.7 2 1.4 3.1 1.9q0.1 0 0.1 0 0.7 0.3 1.5 0.5 0.4 0.1 0.8 0.2 0.9 0 1.7 0c0.6-0.1 1.8-0.4 2.3-0.5q0.2-0.1 0.3-0.1 0.6-0.3 1.2-0.7 1-0.6 2-1.2c0.2-0.2 0.8-0.7 1.3-1.1 0.3-0.3 0.6-0.6 0.8-0.8q0.1-0.1 0.2-0.1 1.5-1.5 2.9-3.2 0.4-0.4 0.6-0.6 0.7-1 1.3-1.9 1.4-2.1 2.7-4.2 0.3-0.5 0.5-1 0.3-0.4 0.5-0.9 0.3-0.4 0.5-0.8 0.8-1.4 1.5-2.8 0.4-0.9 0.8-1.7 0.1-0.1 0.1-0.2 0 0 0-0.1 0.6-1.1 1.1-2.2 0.2-0.6 0.5-1.2 0.1-0.2 0.2-0.5 0.2-0.5 0.4-0.9 0.2-0.6 0.4-1.2 0.2-0.4 0.3-0.7 1.1-3 2.1-6 2.1-6.3 3.7-12.8 0.4-1.6 0.8-3.3 0.2-0.6 0.3-1.3 0.2-0.8 0.4-1.5 0.1-0.7 0.2-1.4 0.1-0.2 0.1-0.4 0.1-0.2 0.1-0.3 0.1-0.5 0.2-1 0.1-0.3 0.1-0.6 0.2-0.8 0.3-1.5 0.2-0.8 0.3-1.5 0.1-0.2 0.1-0.5zm-34.2 60.5c0.1 0 0.7 0.1 1.2 0.2-0.9-0.2-1.2-0.2-1.2-0.2z"/>
											</g>
										</g>
										<g id="&lt;Group&gt;">
											<path id="&lt;Path&gt;" class="s24" d="m492.2 494.8c0 22.4-1.9 41.9-7.2 63.1q-1.6 6.5-3.7 12.8-1 3-2.1 6-0.5 1.4-1.1 2.8-0.1 0.3-0.2 0.5-0.3 0.6-0.5 1.2-2.3 5-5 9.7-1.3 2.1-2.7 4.2-0.6 0.9-1.3 1.9-0.2 0.2-0.6 0.6-1.4 1.7-2.9 3.2c-0.2 0.2-0.6 0.5-1 0.9-1.1-0.9-2-1.9-3-3q-0.7-0.8-1.4-1.6-0.1-0.2-0.2-0.3-0.1-0.2-0.3-0.4c-2-2.7-3.7-5.6-5.3-8.6q-1.3-2.4-2.5-4.9-0.6-1.3-1.2-2.6 0-0.2-0.1-0.3-0.3-0.7-0.6-1.4c-7.2-18.1-10.8-38.1-12.5-56-2-21.9-1.5-46.9 1.3-66.9 1.4-10 3.4-19.8 6.2-29.5q1.7-6.2 3.9-12.3 0.6-1.4 1.1-2.9c0.1-0.1 0.5-1 0.7-1.5q1.1-2.7 2.4-5.3 2.4-4.7 5.2-9c0.3-0.5 1.8-2.4 2.1-2.9q1.3-1.5 2.7-3 0.7-0.7 1.5-1.4 0.8 0.7 1.5 1.4 1 1 1.9 2.1c0.3 0.3 1.1 1.3 1.3 1.6q1.8 2.4 3.3 5c1.4 2.3 2.7 4.6 3.9 7q0.8 1.7 1.6 3.4 0.1 0.4 0.3 0.8c0.1 0.2 0.7 1.6 0.8 1.8 10.9 27.3 13.6 54.9 13.7 83.8z"/>
										</g>
									</g>
									<g id="&lt;Group&gt;">
										<ellipse id="&lt;Path&gt;" class="s3" cx="492.8" cy="487.6" rx="15.1" ry="45.4"/>
									</g>
								</g>
								<g id="&lt;Group&gt;">
									<path id="&lt;Path&gt;" class="s22" d="m219.5 291.3c0 1.9-1.6 3.5-3.5 3.5h-53.9v-7h53.9c1.9 0 3.5 1.6 3.5 3.5z"/>
								</g>
								<g id="&lt;Group&gt;">
									<path id="&lt;Path&gt;" class="s22" d="m253.6 682.5v53.6h-4.7v-53.6z"/>
								</g>
							</g>
						</g>
					</g>
				</g>
			</g>
			<g id="&lt;Group&gt;">
				<g id="&lt;Group&gt;" style="opacity: .8;mix-blend-mode: multiply">
					<path id="&lt;Path&gt;" class="s0" d="m1307.9 800.6v12.1c-14.3 0.3-29.6 0.5-45.5 0.6q-1.9 0-3.7 0c-15.7 0.2-32.1 0.2-49 0.2-22.8 0-44.9-0.1-65.5-0.3q-2 0-3.8-0.1c-38.5-0.4-71.9-1.1-96.9-2.1-7.9-0.4-15-0.7-21.1-1.1q-2.1-0.1-4-0.2c-11.6-0.8-19-1.6-21.2-2.5q-0.7-0.3-0.7-0.5c0-1 5.5-1.8 15.6-2.6q1.6-0.2 3.4-0.3 2.1-0.1 4.4-0.3c11.9-0.7 28.1-1.4 47.3-1.9 13.7-0.4 28.9-0.8 45.4-1.1q3 0 6.1-0.1 3.6 0 7.3-0.1 1.8 0 3.7 0c13.1-0.2 26.8-0.3 41-0.4q5.8 0 11.7-0.1 13.5 0 27.3 0c11.5 0 22.8 0 33.8 0.1q1.9 0 3.8 0 3.1 0 6.3 0c19.2 0.2 37.4 0.4 54.3 0.7z"/>
				</g>
				<g id="&lt;Group&gt;">
					<g id="&lt;Group&gt;">
						<g id="&lt;Group&gt;">
							<g id="&lt;Group&gt;">
								<path id="&lt;Path&gt;" class="s25" d="m1062.4 639.1h199.4c2.9 0 0.4 23.4-5.7 52.3l-12.2 57.6h-211.4l12.9-57.6c6.5-28.9 14.1-52.3 17-52.3z"/>
							</g>
							<g id="&lt;Group&gt;">
								<path id="&lt;Path&gt;" class="s26" d="m1070.5 639.1h165.3c1.6 5-1.8 26-8.7 51.2l-15.8 57.6h-178.5l16-56.5c8.3-28.9 18-52.3 21.7-52.3z"/>
							</g>
							<g id="&lt;Group&gt;">
								<path id="&lt;Path&gt;" class="s26" d="m1062.9 654.2l3.3-14.7c0.8-3.4 4.1-6.1 7.5-6.1h19.6c3.4 0 5.5 2.7 4.8 6.1l-3.2 14.7z"/>
							</g>
							<g id="&lt;Group&gt;">
								<path id="&lt;Path&gt;" class="s26" d="m1155.9 654.2l3.2-14.7c0.7-3.4 4.1-6.1 7.5-6.1h19.6c3.4 0 5.5 2.7 4.8 6.1l-3.2 14.7z"/>
							</g>
							<path id="&lt;Path&gt;" class="s27" d="m1060.1 638.1h203.6c2.7 0 4.5 2.3 3.9 5.1-0.6 2.8-3.3 5.1-6.1 5.1h-203.6c-2.8 0-4.5-2.3-3.9-5.1 0.6-2.8 3.4-5.1 6.1-5.1z"/>
							<g id="&lt;Group&gt;">
								<g id="&lt;Group&gt;">
									<path id="&lt;Path&gt;" class="s28" d="m1097 638.1c-4 2.7-7.1 12-9.7 14.9h-15.6c-1-5-0.2-10.2 1.5-14.9z"/>
								</g>
								<g id="&lt;Group&gt;">
									<path id="&lt;Path&gt;" class="s3" d="m1092.7 638.1c-4.1 2.7-7.1 12-9.8 14.9h-15.5c-1-5-0.2-10.2 1.5-14.9z"/>
								</g>
								<path id="&lt;Path&gt;" class="s27" d="m1076.6 638.1l-0.7 3.2c-0.1 0.7-1.5 1.2-3 1.2-0.8 0-1.5-0.1-1.9-0.3-0.5-0.2-0.7-0.6-0.6-0.9l0.7-3.2z"/>
								<path id="&lt;Path&gt;" class="s27" d="m1087.1 638.1l-0.7 3.2c-0.2 0.7-1.5 1.2-3.1 1.2-0.7 0-1.4-0.1-1.8-0.3-0.5-0.2-0.7-0.6-0.7-0.9l0.7-3.2z"/>
							</g>
							<g id="&lt;Group&gt;">
								<g id="&lt;Group&gt;">
									<path id="&lt;Path&gt;" class="s28" d="m1190.1 638.1c-4.1 2.7-7.1 12-9.7 14.9h-15.6c-1-5-0.3-10.2 1.5-14.9z"/>
								</g>
								<g id="&lt;Group&gt;">
									<path id="&lt;Path&gt;" class="s3" d="m1185.7 638.1c-4 2.7-7 12-9.6 14.9h-15.6c-1-5-0.3-10.2 1.5-14.9z"/>
								</g>
								<path id="&lt;Path&gt;" class="s27" d="m1169.7 638.1l-0.7 3.2c-0.2 0.7-1.5 1.2-3.1 1.2-0.7 0-1.4-0.1-1.9-0.3-0.4-0.2-0.7-0.6-0.6-0.9l0.7-3.2z"/>
								<path id="&lt;Path&gt;" class="s27" d="m1180.1 638.1l-0.7 3.2c-0.1 0.7-1.5 1.2-3 1.2-0.8 0-1.4-0.1-1.9-0.3-0.4-0.2-0.7-0.6-0.6-0.9l0.7-3.2z"/>
							</g>
						</g>
						<g id="&lt;Group&gt;">
							<path id="&lt;Path&gt;" class="s29" d="m1182.4 700.1v100.8c0 2.8-3.2 5.2-7.7 5.9q-1.4 0.3-2.8 0.3h-142.4c-5.9 0-10.6-2.8-10.6-6.2v-100.8z"/>
						</g>
						<g id="&lt;Group&gt;">
							<path id="&lt;Path&gt;" class="s30" d="m1253.6 700.1v100.8c0 3.4-2.4 6.2-5.4 6.2h-72.1q-0.7 0-1.4-0.3 0 0 0 0c-2.3-0.7-4-3.1-4-5.9v-100.8z"/>
						</g>
						<g id="&lt;Group&gt;" style="mix-blend-mode: multiply">
							<rect id="&lt;Path&gt;" class="s31" x="1027.3" y="704.1" width="34.5" height="43.7" rx="6.2"></rect>
						</g>
						<g id="&lt;Group&gt;" style="mix-blend-mode: multiply">
							<rect id="&lt;Path&gt;" class="s31" x="1120.1" y="704.1" width="34.5" height="43.7" rx="6.2"></rect>
						</g>
						<g id="&lt;Group&gt;" style="mix-blend-mode: multiply">
							<path id="&lt;Path&gt;" class="s31" d="m1253.6 704.4v20.9h-234.7q0 0 0 0v-20.9q0 0 0 0z"/>
						</g>
						<path id="&lt;Path&gt;" class="s27" d="m1008.6 701.4c0.8-0.8 2-1.3 3.3-1.3h248.2c2.4 0 4.4 1.8 4.6 4.1q0 0.2 0 0.5 0 0.2 0 0.5c-0.2 2.3-2.2 4.1-4.6 4.1h-248.2c-2.6 0-4.7-2.1-4.7-4.6 0-1.3 0.6-2.5 1.4-3.3z"/>
						<g id="&lt;Group&gt;" style="opacity: .4;mix-blend-mode: multiply">
							<path id="&lt;Path&gt;" class="s31" d="m1163.5 700.1h97.1c2.1 0 3.9 1.8 4.1 4.1q0 0.2 0 0.5 0 0.2 0 0.5c-0.2 2.3-2 4.1-4.1 4.1h-97.3q-0.2-0.9-0.2-1.8v-5q0-1.3 0.4-2.4z"/>
						</g>
					</g>
					<g id="&lt;Group&gt;">
						<g id="&lt;Group&gt;" style="mix-blend-mode: multiply">
							<path id="&lt;Path&gt;" class="s31" d="m1067.2 807.1v-26.6h51.5v26.6z"/>
						</g>
						<g id="&lt;Group&gt;">
							<path id="&lt;Path&gt;" class="s30" d="m1112.6 807.1v-26.6h6.1v26.6z"/>
						</g>
					</g>
				</g>
			</g>
		</g>
	</g>
</svg>