<svg version="1.2" xmlns="http://www.w3.org/2000/svg" viewBox="0 0 2240 1652" width="2240" height="1652">
	<title>7670-ai</title>
	<style>
		.s0 { fill: #9deeff } 
		.s1 { fill: #93beff } 
		.s2 { fill: #b5b7c7 } 
		.s3 { fill: #62bdf3 } 
		.s4 { mix-blend-mode: multiply;fill: #62bdf3 } 
		.s5 { opacity: .3;mix-blend-mode: multiply;fill: #62bdf3 } 
		.s6 { fill: #7772d6 } 
		.s7 { fill: #d1eaf2 } 
		.s8 { fill: #ffffff } 
		.s9 { fill: #9ed16f } 
		.s10 { opacity: .3;fill: #daeef7 } 
		.s11 { fill: #efac7f } 
		.s12 { fill: #45258f } 
		.s13 { fill: #282828 } 
		.s14 { fill: #96a65f } 
		.s15 { fill: #d19369 } 
		.s16 { fill: #333333 } 
		.s17 { fill: #ffc0bb } 
		.s18 { fill: #5e2e0d } 
		.s19 { opacity: .5;fill: #daeef7 } 
		.s20 { fill: #3b77be } 
		.s21 { fill: #3797db } 
		.s22 { opacity: .5;fill: #2d185d } 
		.s23 { fill: #06bfad } 
		.s24 { fill: #fc8d84 } 
		.s25 { fill: #f46c0f } 
		.s26 { fill: #f99893 } 
		.s27 { fill: #02aa95 } 
		.s28 { fill: #02ccc0 } 
		.s29 { fill: #daeef7 } 
		.s30 { fill: #2d185d } 
	</style>
	<g id="Слой 2">
		<path id="&lt;Path&gt;" class="s0" d="m0 614c40 76 211 148 363 83 236.6-101.2 424.5-389.7 782-366 512 34 444.3 553.9 678 724 294 214 401 400 415 597q-267 0-2238 0z"/>
		<path id="&lt;Path&gt;" class="s1" d="m2873 1652c11-243 481-525 727-536q0 128 0 536z"/>
	</g>
	<g id="Layer 1">
		<g id="&lt;Group&gt;">
			<circle id="&lt;Path&gt;" class="s2" cx="905.4" cy="1323.3" r="6"/>
			<circle id="&lt;Path&gt;" class="s2" cx="1116.4" cy="1323.3" r="6"/>
			<g id="&lt;Group&gt;">
				<rect id="&lt;Path&gt;" class="s3" x="215.8" y="1360.2" width="1864.1" height="14.4" rx="4.2"></rect>
			</g>
			<g id="&lt;Group&gt;">
				<path id="&lt;Path&gt;" class="s4" d="m1138.7 474.4v172.8c12.7 1.7 22.4 12.6 22.4 25.7 0 13.1-9.7 24-22.4 25.7v3.6c0 23.4-18.9 42.3-42.2 42.3h-33.7c-6 0-11 4.9-11 11v12.1h-80.9v-12.1c0-6.1-4.9-11-11-11h-33.6c-23.3 0-42.2-18.9-42.2-42.3v-3.8c-12.2-2.1-21.5-12.7-21.5-25.5 0-12.8 9.3-23.4 21.5-25.6v-173c-12.2-2.1-21.5-12.8-21.5-25.5 0-12.8 9.3-23.5 21.5-25.6v-33.2c0-23.3 18.9-42.2 42.2-42.2h170.2c23.3 0 42.2 18.9 42.2 42.2v33.1c12.7 1.7 22.4 12.5 22.4 25.7 0 13.1-9.7 23.9-22.4 25.6z"/>
				<g id="&lt;Group&gt;" style="mix-blend-mode: multiply">
					<path id="&lt;Path&gt;" class="s3" d="m884.1 474.3l173.4 2.2-173.4 2.2z"/>
				</g>
				<g id="&lt;Group&gt;" style="mix-blend-mode: multiply">
					<path id="&lt;Path&gt;" class="s3" d="m1138.7 423.1l-173.4-2.2 173.4-2.2z"/>
				</g>
				<g id="&lt;Group&gt;" style="mix-blend-mode: multiply">
					<path id="&lt;Path&gt;" class="s3" d="m884.1 698.4l173.4 2.2-173.4 2.2z"/>
				</g>
				<g id="&lt;Group&gt;" style="mix-blend-mode: multiply">
					<path id="&lt;Path&gt;" class="s3" d="m1138.7 647.2l-173.4-2.2 173.4-2.2z"/>
				</g>
				<path id="&lt;Path&gt;" class="s5" d="m1138.7 474.4v172.8c12.7 1.7 22.4 12.6 22.4 25.7 0 13.1-9.7 24-22.4 25.7v3.6c0 23.4-18.9 42.3-42.2 42.3h-33.7c-6 0-11 4.9-11 11v12.1h-80.9v-12.1c0-6.1-4.9-11-11-11h-33.6c-3.5 0-6.9-0.4-10.1-1.2 99.4-95.4 136.4-276.1 150.1-395.5h30.2c23.3 0 42.2 18.9 42.2 42.2v33.1c12.7 1.7 22.4 12.5 22.4 25.7 0 13.1-9.7 23.9-22.4 25.6z"/>
				<ellipse id="&lt;Path&gt;" class="s4" cx="1011.4" cy="553.1" rx="127.3" ry="7.7"/>
				<path id="&lt;Path&gt;" class="s5" d="m1161.1 672.9c0 13.1-9.7 24-22.4 25.7v3.6c0 23.4-18.9 42.3-42.2 42.3h-33.7c-6 0-11 4.9-11 11v12.1h-80.9v-12.1c0-6.1-4.9-11-11-11h-33.6c-23.3 0-42.2-18.9-42.2-42.3v-3.8c-12.2-2.1-21.5-12.7-21.5-25.5 0-12.8 9.3-23.4 21.5-25.6v-94.2c0 4.2 57 7.7 127.3 7.7 70.1 0 126.9-3.4 127.3-7.7v94.1c12.7 1.7 22.4 12.6 22.4 25.7z"/>
				<g id="&lt;Group&gt;">
					<rect id="&lt;Path&gt;" class="s6" x="944.9" y="760.2" width="134" height="54" rx="15.7"></rect>
				</g>
				<g id="&lt;Group&gt;">
					<rect id="&lt;Path&gt;" class="s7" x="868" y="786.3" width="287.8" height="575.5" rx="31.9"></rect>
				</g>
				<g id="&lt;Group&gt;">
					<path id="&lt;Path&gt;" class="s6" d="m1098.6 1043.8h-173.4v-153.5c0-17.6 14.3-31.9 31.9-31.9h109.6c17.6 0 31.9 14.3 31.9 31.9z"/>
				</g>
				<g id="&lt;Group&gt;">
					<path id="&lt;Path&gt;" class="s7" d="m1084 1043.8h-144.2v-150.9c0-11.7 9.5-21.2 21.2-21.2h101.7c11.8 0 21.3 9.5 21.3 21.2z"/>
				</g>
				<g id="&lt;Group&gt;">
					<rect id="&lt;Path&gt;" class="s6" x="907.6" y="1043.8" width="210.9" height="12.2" rx="3.6"></rect>
				</g>
				<g id="&lt;Group&gt;">
					<path id="&lt;Compound Path&gt;" fill-rule="evenodd" class="s6" d="m1108.1 1349.4h-192.5c-18.4 0-33.4-15-33.4-33.4v-483.9c0-18.5 15-33.4 33.4-33.4h192.5c18.5 0 33.4 14.9 33.4 33.4v483.9c0 18.4-14.9 33.4-33.4 33.4zm-192.5-548.5c-17.2 0-31.2 14-31.2 31.2v483.9c0 17.2 14 31.2 31.2 31.2h192.5c17.2 0 31.2-14 31.2-31.2v-483.9c0-17.2-14-31.2-31.2-31.2z"/>
				</g>
				<circle id="&lt;Path&gt;" class="s6" cx="905.4" cy="827.1" r="6"/>
				<g id="&lt;Group&gt;">
					<path id="&lt;Compound Path&gt;" fill-rule="evenodd" class="s6" d="m1083.4 1276.2h-143.1c-9.1 0-16.6-7.5-16.6-16.6v-51.4c0-9.1 7.5-16.6 16.6-16.6h143.1c9.2 0 16.6 7.5 16.6 16.6v51.4c0 9.1-7.4 16.6-16.6 16.6zm-143.1-81.6c-7.5 0-13.6 6.1-13.6 13.6v51.4c0 7.5 6.1 13.6 13.6 13.6h143.1c7.6 0 13.7-6.1 13.7-13.6v-51.4c0-7.5-6.1-13.6-13.7-13.6z"/>
				</g>
				<g id="&lt;Group&gt;">
					<g id="&lt;Group&gt;">
						<path id="&lt;Path&gt;" class="s8" d="m982.6 955.5v8.2c0 1.3-1.1 2.4-2.5 2.4h-14.2c-1.4 0-2.5-1.1-2.5-2.4v-8.2c0-1.4 1.1-2.5 2.5-2.5h1.2l-3.3-30c-0.2-1.9 1.3-3.6 3.3-3.6h2.7 6.4 2.7c2 0 3.5 1.7 3.3 3.6l-3.3 30h1.2c1.4 0 2.5 1.1 2.5 2.5z"/>
						<g id="&lt;Group&gt;">
							<rect id="&lt;Path&gt;" class="s9" x="961.3" y="957.3" width="23.6" height="5" rx="1.5"></rect>
						</g>
					</g>
					<path id="&lt;Path&gt;" class="s8" d="m1060.1 955.5v8.2c0 1.3-1.1 2.4-2.4 2.4h-14.3c-1.3 0-2.4-1.1-2.4-2.4v-8.2c0-1.4 1.1-2.5 2.4-2.5h1.3l-3.3-30c-0.2-1.9 1.3-3.6 3.2-3.6h2.8 6.3 2.8c1.9 0 3.4 1.7 3.2 3.6l-3.3 30h1.3c1.3 0 2.4 1.1 2.4 2.5z"/>
					<rect id="&lt;Path&gt;" class="s3" x="1038.9" y="957.3" width="23.6" height="5" rx="1.5"></rect>
				</g>
				<g id="&lt;Group&gt;">
					<g id="&lt;Group&gt;">
						<path id="&lt;Path&gt;" class="s6" d="m1074.5 982.6l-10.4 61.4h-7.4-12.3-7.4l-10.4-61.4h17.8 12.3z"/>
					</g>
					<rect id="&lt;Path&gt;" class="s3" x="1022.8" y="981.8" width="55.4" height="6.6" rx="1.9"></rect>
					<path id="&lt;Path&gt;" class="s10" d="m1054 1016.9c0 10.3-8.2 18.7-18.4 19l-6.2-37c1.8-0.6 3.7-0.9 5.7-0.9 10.4 0 18.9 8.5 18.9 18.9z"/>
				</g>
			</g>
			<g id="&lt;Group&gt;">
				<path id="&lt;Path&gt;" class="s11" d="m1267.9 952q-2.5 11.1 0 25.3 2.5 14.2 66.7 352.1l-33.9 4.9q-110.6-313.7-116.8-334.7c-6.2-21-13-50.7 8-73.5q21-22.9 76 25.9z"/>
				<path id="&lt;Path&gt;" class="s11" d="m1250 1339.1l40.6-48.8 40.6 16.8-10.2 14-44.2 22.2q-18.9 3.8-19.8 3.5-1-0.3-7-7.7z"/>
				<path id="&lt;Path&gt;" class="s12" d="m1331.2 1307.1l5.9 17.8c1 3-0.7 6.2-3.7 7.2l-85.1 28.3c-6.1 2-11.1-5.2-7-10.3l8.7-11c9.1 5.8 30.5 4.8 81.2-32z"/>
				<path id="&lt;Path&gt;" class="s13" d="m1390.3 204.2q21.2-13.8 45.3 0c24.1 13.9 24.1 60.6 14.6 71.8-9.5 11.2 0.5 26.4-18.5 41-19 14.6-49.2 19.9-66.5 2.9q-17.2-17.1-4.6-55.2z"/>
				<g id="&lt;Group&gt;">
					<path id="&lt;Path&gt;" class="s11" d="m1366.9 363.8l-54.5 1.1c1.1-12.1 2-28.2 0-34q-3.4-9.7 57.4-11.2-3.2 25.1-2.9 44.1z"/>
				</g>
				<path id="&lt;Path&gt;" class="s11" d="m1307.3 1341.4l46.6-29 40.5 24.2-14.1 10.1-48.9 7.1q-19.1-2.3-20-2.9-0.8-0.6-4.1-9.5z"/>
				<path id="&lt;Path&gt;" class="s11" d="m1419.7 920q-6.7 161-7.3 188.8c-0.6 27.8-14.8 234-21 251.9l-34.6-2.4q-23.6-399.4-16.2-438.3 7.5-38.9 79.1 0z"/>
				<path id="&lt;Path&gt;" class="s11" d="m1493.8 788.5c11.9-2.4 14.9 5.2 27 2.7l-2.9 18.6q1.6 3.6 5.3 13.3c13.4 38.9 12.6 34.7 11.3 35.4-1.3 0.7-11.4-13.7-12.6-12.3-1.1 1.3 5.8 24.4 3.8 23.8-2.1-0.6-11.1-21.2-12.2-20.4-1.2 0.8 5.8 23 2.8 23.8-3.1 0.8-9.9-23.8-12.1-22.2-2.1 1.6 5.5 26.6 2.6 26.9-2.4 0.2-11.6-27.6-14.5-36.5-0.4-1.1-1.9-1.4-2.6-0.4-11.6 14.4-13.3 14.8-14.6 13.2-0.9-1.1 5-16.9 9.7-31.9l6.3-18.3z"/>
				<path id="&lt;Path&gt;" class="s12" d="m1394.4 1336.6v18.7c0 3.2-2.6 5.8-5.8 5.8h-89.6c-6.5 0-9-8.5-3.5-12l11.8-7.7c6.7 8.4 27.3 14.2 87.1-4.8z"/>
				<path id="&lt;Path&gt;" class="s14" d="m1246.5 455.4l-93.7 73.5q16.9 14.2 83.8 75-1.6 17-14.8 21.4c-70.2-24.5-107.7-60.4-124.5-80.9-7.7-9.4-9.1-22.3-3.7-33.1q55.5-111.6 176.8-147.6z"/>
				<path id="&lt;Path&gt;" class="s11" d="m1228.2 694q-1.5 2.9-6.4 0 2-15.4 0-68.7l14.5-19.2 17.8 19.2q-24.4 65.8-25.9 68.7z"/>
				<path id="&lt;Path&gt;" class="s12" d="m1396.8 920l-28.7 106.2c-66.2-0.1-165.1-6.2-214.2-39q64.2-298.3 106.8-373l146.4-8.1q101.5 141.4 27.4 418.1-12.7 0.9-32.9 1.5z"/>
				<path id="&lt;Path&gt;" class="s9" d="m1368.9 361.9q59.9-6.6 78.9 16.8c19 23.4 83.3 185.6 86.9 263q3.7 77.5-15.3 168.8-21.2 1.5-30.7 0c-9.5-1.4 2.2-149.8-8.1-173.9-10.2-24.1-56.2-139.5-59.1-150.5l-11.4 60.4c-2.1 11.2-1.2 22.7 2.8 33.3 9.7 26.1 28.3 76.2 35.8 94.7q-143.8 23.2-214.7-11.9l23.1-96.8q-47.5-204.8 20.2-202.7z"/>
				<g id="&lt;Group&gt;">
					<path id="&lt;Path&gt;" class="s15" d="m1271.8 260.4c3.1 8.2 0.2 16.8-6.4 19.2-6.6 2.5-14.4-2.2-17.4-10.5-3-8.2-0.1-16.8 6.4-19.3 6.6-2.4 14.4 2.3 17.4 10.6z"/>
				</g>
				<g id="&lt;Group&gt;">
					<path id="&lt;Path&gt;" class="s15" d="m1369.8 319.7q-1.3 10.1-2.2 22.4c-11 8.9-25.4 13.5-40.3 11.6-4.9-0.6-9.5-1.9-13.9-3.8 0.4-8 0.2-15.4-1-19q-3.4-9.7 57.4-11.2z"/>
				</g>
				<g id="&lt;Group&gt;">
					<path id="&lt;Path&gt;" class="s11" d="m1272.5 307.9q-2.8-5.4-4.7-11.3c-3.5-10.5-5.1-21.7-5.7-31.4-0.1-2.1-0.4-4.1-0.7-6.2-1.1-8.3-0.8-17.1 1.5-26.1 7.2-28.9 33.1-49.9 62.8-51.1 40.1-1.6 72 31.1 70.7 70.1 4.3-2.2 9.1-2.6 13.2-0.6 7.9 3.9 10.4 15.1 5.6 25-4.8 9.9-15.2 14.7-23.1 10.9q-1.7-0.8-3-2c-4.5 33-32.6 57.7-65.2 56-15.9-0.8-30.1-7.7-40.6-18.6q-1.1-0.9-2.2-2.2c-3.4-3.7-6.2-8-8.6-12.5z"/>
				</g>
				<circle id="&lt;Path&gt;" class="s16" cx="1339.9" cy="261.5" r="6.4"/>
				<circle id="&lt;Path&gt;" class="s16" cx="1287.6" cy="261.5" r="6.4"/>
				<g id="&lt;Group&gt;">
					<g id="&lt;Group&gt;">
						<path id="&lt;Path&gt;" class="s15" d="m1314.6 261.4c-0.2 2.1-0.4 4.1-0.9 6.2q-0.3 1.5-0.9 3c-0.4 1-0.8 2-1.5 2.8-0.2 0.3-0.3 0.5-0.5 0.7l-0.6 0.5q-0.3 0.3-0.5 0.6-0.2 0.2-0.4 0.5c-0.6 0.8-1 1.7-1.1 2.6-0.4 1.8 0.3 3.8 1.6 5.3 1.2 1.5 2.9 2.7 4.8 3.5q1.3 0.6 2.8 1 1.5 0.3 3.1 0.5c-2.1 0-4.2-0.3-6.1-1-2-0.7-3.9-1.8-5.3-3.4-1.4-1.6-2.3-3.8-2-6.1 0.1-1.1 0.6-2.1 1.3-3q0.2-0.4 0.5-0.7 0.2-0.3 0.5-0.6c0.2-0.2 0.4-0.3 0.5-0.5 0.2-0.2 0.4-0.4 0.5-0.5 1.2-1.6 1.8-3.5 2.3-5.5 0.5-1.9 0.8-3.9 1-6q0.3-3 0.3-6.1c0.1-2 0.1-4.1 0.1-6.1 0.5 4 0.7 8.2 0.5 12.3z"/>
					</g>
				</g>
				<g id="&lt;Group&gt;">
					<g id="&lt;Group&gt;">
						<path id="&lt;Path&gt;" class="s13" d="m1332.1 247.6c1.4-0.9 2.9-1.6 4.5-2.1 3.2-1.2 6.6-1.6 10-1.3 1.7 0.1 3.4 0.5 5 1 1.6 0.6 3.2 1.3 4.6 2.2 2.9 1.7 5.4 4 7.3 6.7-2.6-2-5.3-3.8-8.1-5.1q-0.6-0.3-1.1-0.5c-0.4-0.2-0.7-0.3-1.1-0.5-0.7-0.2-1.5-0.5-2.2-0.7-1.5-0.4-3-0.7-4.6-0.9-3.1-0.2-6.2 0-9.3 0.8-3 0.7-6 1.9-8.9 3.4 1.1-1.2 2.5-2.1 3.9-3z"/>
					</g>
				</g>
				<g id="&lt;Group&gt;">
					<g id="&lt;Group&gt;">
						<path id="&lt;Path&gt;" class="s13" d="m1293.5 247.2c-3-0.8-6.2-1-9.3-0.8-1.5 0.2-3 0.5-4.5 0.9-0.8 0.2-1.5 0.5-2.2 0.7-0.4 0.2-0.8 0.3-1.1 0.5q-0.6 0.2-1.1 0.5c-2.9 1.3-5.5 3.1-8.2 5.1 2-2.7 4.5-5 7.3-6.7 1.5-0.9 3-1.6 4.6-2.2 1.6-0.5 3.3-0.9 5-1 3.4-0.3 6.9 0.1 10 1.3 1.6 0.5 3.1 1.2 4.6 2.1 1.4 0.9 2.7 1.8 3.9 3q-4.4-2.3-9-3.4z"/>
					</g>
				</g>
				<path id="&lt;Path&gt;" class="s14" d="m1380.1 361.2l16.6 24.4-21 7.3 10.5 22.9-61.6 24.3 8.7-51.1z"/>
				<path id="&lt;Path&gt;" class="s14" d="m1328.2 414.5c0.3 1.5-6.6 8.9-6.6 10.6q0 1.7 3 15l-51.6-28.5 12.4-18.5-15-10 26.2-20.3q31.4 50.3 31.6 51.7z"/>
				<g id="&lt;Group&gt;">
					<path id="&lt;Path&gt;" class="s11" d="m1380.1 361.2q-45.8 58-55.5 78.9-26.9-35.2-28-77.3z"/>
				</g>
				<path id="&lt;Path&gt;" class="s14" d="m1324.7 500.5c0 20.2 0 40.3 0.3 60.5 0.1 20.1 0.4 40.2 1 60.3l0.2 7.6 0.3 7.5 0.3 7.6 0.1 3.7 0.2 3.8c0.3 5 0.5 10.1 0.8 15.1l0.6 7.5 0.5 7.6c-3-20-4.5-40.1-5.6-60.3-0.6-10-0.8-20.1-1.2-30.2-0.1-5-0.2-10.1-0.3-15.1q-0.2-7.6-0.2-15.1c-0.1-10.1-0.1-20.2 0-30.3 0.1-10 0.2-20.1 0.4-30.2 0.5-20.1 1.3-40.3 2.5-60.4z"/>
				<path id="&lt;Path&gt;" class="s14" d="m1418.4 476.7c-0.4-1.6-0.7-3.2-1-4.8-0.4-1.6-0.6-3.3-0.9-4.9-1.1-6.5-1.5-13.1-1.8-19.7v-4.9-5c0.1-1.6 0.1-3.3 0.2-4.9l0.3-4.9c0.2-3.3 0.6-6.6 1-9.9 0.5-3.2 0.9-6.5 1.5-9.7-0.2 3.3-0.5 6.5-0.7 9.8l-0.3 4.9c0 1.7-0.2 3.3-0.2 4.9 0 3.3-0.3 6.6-0.2 9.8v5l0.1 4.9c0.2 6.5 0.6 13 1.4 19.5 0.4 3.3 0.8 6.5 1.4 9.7 0.6 3.3 1.3 6.5 2.3 9.6-1.3-3-2.2-6.2-3.1-9.4z"/>
				<path id="&lt;Path&gt;" class="s13" d="m1265.3 198.1q12.5-43.1 69.8-44.7c88.5 6.2 74.6 83.9 71.7 96.7-2.6-0.6-6.1-0.5-10.4 1.8-1.8 1-3.3 2-4.5 3.1-10.4-3.2-13.6-20.5-19-28.9-7.3-11.3-39.6-5.5-51.8-13.5q-12.3-8-13.5-20.4-47.2 7.4-46.5 57.3-2-0.4-4.6-0.2-2.4-12.7 8.8-51.2z"/>
				<path id="&lt;Path&gt;" class="s8" d="m1334.3 296.5c-1.8 6.6-9.6 11.5-18.9 11.4-9.4-0.1-17.1-5.2-18.7-11.8z"/>
			</g>
			<g id="&lt;Group&gt;">
				<path id="&lt;Path&gt;" class="s10" d="m828 443.3c2.3 0 4.4 0.4 6.4 1l-7 41.9c-11.6-0.3-20.8-9.8-20.8-21.4 0-11.9 9.6-21.5 21.4-21.5z"/>
				<path id="&lt;Path&gt;" class="s17" d="m830.4 474.5q-17.2-0.2-16.1-2.6 1-2.4 17.2-3.9z"/>
				<path id="&lt;Path&gt;" class="s11" d="m729.1 1349.4q-0.8 0.6-19.9 3.1l-49-6.8-14.1-10.1 33.1-28.9 54 33.3q-3.2 8.9-4.1 9.4z"/>
				<path id="&lt;Path&gt;" class="s12" d="m733.2 1340l11.9 7.6c5.5 3.4 3.1 11.9-3.4 11.9l-89.7 0.6c-3.1 0-5.7-2.5-5.7-5.7l-0.2-18.8c59.9 18.7 80.5 12.8 87.1 4.4z"/>
				<g id="&lt;Group&gt;">
					<path id="&lt;Path&gt;" class="s18" d="m506.2 248q-14.8-61.1 20.6-83.9c35.5-22.9 73-20.4 98.6-6.7 25.6 13.7 41 61.5 29.5 88.8l-85-26z"/>
				</g>
				<path id="&lt;Path&gt;" class="s19" d="m511.7 662.4c6.1 1.1 12.2 2 18.2 2.8q9.2 1.3 18.3 2.2c12.2 1.2 24.5 2 36.7 2.2q9.2 0.3 18.4 0 9.2-0.2 18.4-1c6.1-0.5 12.2-1.3 18.2-2.3 6.1-1 12.1-2.3 18-3.9-5.9 1.8-11.9 3.2-17.9 4.3-6.1 1.1-12.2 1.9-18.3 2.5-6.1 0.6-12.2 0.9-18.4 1.1q-9.2 0.3-18.4 0.1c-12.3-0.3-24.5-1.1-36.7-2.5q-9.2-1-18.3-2.3c-6.1-0.9-12.1-1.9-18.2-3.2z"/>
				<path id="&lt;Path&gt;" class="s11" d="m775 482.6c5.1-7.7 8.1-14.3 8.1-18.7l-1.7-7.4c-2.1-9.3 0.1-15.3 3.7-15.7l0.7 0.1q6.1 13.1 11.2 23.8l5.5-5 27.9 35-31.8 15.5z"/>
				<path id="&lt;Path&gt;" class="s11" d="m646.1 1335.6l-11.2-63.4 46.8-4.9 2.8 3.2 7.9 44-22.1 22.2z"/>
				<path id="&lt;Path&gt;" class="s11" d="m395.1 1343q-1-0.1-17.4-10.2l-33.7-36.2-4.6-16.6 43.8-1.7 21 60q-8.1 4.8-9.1 4.7z"/>
				<path id="&lt;Path&gt;" class="s12" d="m404.2 1338.3l4.4 13.3c2.1 6.2-5.1 11.2-10.2 7.2l-69.9-56.1c-2.5-2-2.9-5.6-0.9-8.1l11.8-14.6c34.6 52.2 54.4 60.6 64.8 58.3z"/>
				<path id="&lt;Path&gt;" class="s11" d="m339.4 1280l31.3-56.3 39.4 25.6 0.2 4.3-21.7 39.1-31.2 3.4z"/>
				<path id="&lt;Path&gt;" class="s11" d="m314.4 244q1.7 1.5-7 56.9l-15.3 11.5-13.7-8.3-8.6-14.8c-20.5-38.4-19.5-38.9-18.2-39.8 1.3-1 14.2 12.4 15.2 10.8 1-1.6-10.1-24.7-7.8-24.4 2.2 0.3 15 20.4 16.1 19.4 1.1-1-9.9-23.1-6.8-24.4 3-1.3 14.2 23.3 16.2 21.3 2-2.1-10.1-27-7.2-27.7 2.5-0.7 16.8 26.9 21.2 35.7 0.6 1.1 2.2 1.1 2.8 0 9.8-17 11.5-17.7 13.1-16.2z"/>
				<g id="&lt;Group&gt;">
					<path id="&lt;Path&gt;" class="s14" d="m573.7 636.7h88.7l29.1 652.4h-59.5q-26.8-58.4-47.8-336.2l-14.3-262.6z"/>
				</g>
				<g id="&lt;Group&gt;">
					<path id="&lt;Path&gt;" class="s9" d="m596.4 781.4c-14.5 111.4-33.6 252.8-39.4 266.4q-9.6 22.7-135.6 215.3-25.4-4.4-63.1-30.6 26.3-113.8 112.1-192.6 3.5-49-12.3-185.6-15.7-136.5 50.8-222.3l81 10 1.6-7.2 70.9 1.9 3.3 75.1c-6.2 23.4-69.3 69.6-69.3 69.6z"/>
				</g>
				<g id="&lt;Group&gt;">
					<path id="&lt;Path&gt;" class="s20" d="m597.7 357.8q51 3.3 71.3 30.2 25.6 33.7 41.5 145.8l66.2-55.5 28.5 30.2q-85.3 118.8-100.6 110-15.3-8.9-58.5-46-17.7-106.8-17.7-110.1 0-3.4-30.7-104.6z"/>
				</g>
				<g id="&lt;Group&gt;">
					<path id="&lt;Path&gt;" class="s21" d="m670.6 628.5c-1.2 7.4-7.1 13-14.5 13.9q-40.8 4.7-150.5-2.7-27.8-26.6-38.6-177.6-55.6 14.5-112.4 3.4-56.7-11.2-77.3-161.6l32.6-16.9q59.2 107.5 67.7 112.3c8.4 4.8 84.5-29 103.9-35q19.3-6.1 62.8-8.5h27c8.3 0.1 25.1 0.7 38 3.8 4.7 1.1 9.1 3.3 12.9 6.4 31.1 25.4 51.3 62.1 55.6 102.5 6.7 62-2.9 133-7.2 160z"/>
				</g>
				<g id="&lt;Group&gt;">
					<path id="&lt;Path&gt;" class="s11" d="m526.8 357.1q10.1-0.9 17.5-1.3h27c8.3 0.1 25.1 0.7 38 3.8 4.7 1.1 9.2 3.3 13 6.4 7.5 6.2 14.3 13 20.5 20.3-53.2 10.1-94.1-12.5-116-29.2z"/>
				</g>
				<g id="&lt;Group&gt;">
					<path id="&lt;Path&gt;" class="s11" d="m550.4 315.8q63.5 1.5 60 11.7c-2.1 6.1-1.1 22.8 0 35.5l-57-1.2q0.4-19.8-3-46z"/>
				</g>
				<g id="&lt;Group&gt;">
					<path id="&lt;Path&gt;" class="s15" d="m610.4 327.5c-1.3 3.7-1.4 11.5-1.1 19.8-4.5 2-9.4 3.3-14.5 4-15.6 2-30.5-2.8-42.1-12.1q-0.9-12.8-2.3-23.4 63.5 1.5 60 11.7z"/>
				</g>
				<g id="&lt;Group&gt;">
					<path id="&lt;Path&gt;" class="s18" d="m546 270.7c-24 7-20.7 41.5 10.1 66.5q30.9 25.1 23.6 65.1-6.8-12.3-19-16.5 30.5 55.6 0 95.2c-11.4-41.5-35.4-42.5-79.4-85.4-43.9-43-29.5-112.3 1.3-137.9q30.8-25.6 61.2-22.9 26.1 28.9 2.2 35.9z"/>
				</g>
				<g id="&lt;Group&gt;">
					<path id="&lt;Path&gt;" class="s15" d="m661.2 246.5c6.6 2.4 9.5 11.1 6.5 19.3-3.1 8.2-10.8 12.9-17.4 10.5-6.6-2.4-9.5-11.1-6.5-19.3 3.1-8.2 10.9-12.9 17.4-10.5z"/>
				</g>
				<g id="&lt;Group&gt;">
					<path id="&lt;Path&gt;" class="s11" d="m634.6 317q-1.1 1.3-2.2 2.2c-10.5 10.8-24.7 17.8-40.6 18.6-32.5 1.7-60.6-23-65.1-56q-1.3 1.2-3 2c-7.9 3.9-18.2-1-23-10.9-4.9-9.9-2.4-21 5.5-24.9 4.2-2 8.9-1.6 13.3 0.6-1.4-39 30.5-71.6 70.5-70 29.7 1.1 55.6 22.2 62.8 51 2.3 9 2.6 17.7 1.4 26.1-0.3 2-0.5 4.1-0.6 6.2-0.6 9.6-2.2 20.8-5.7 31.3q-1.9 5.9-4.7 11.3c-2.4 4.5-5.2 8.7-8.6 12.5z"/>
				</g>
				<circle id="&lt;Path&gt;" class="s16" cx="575.9" cy="258.2" r="6.4"/>
				<circle id="&lt;Path&gt;" class="s16" cx="628.1" cy="258.2" r="6.4"/>
				<g id="&lt;Group&gt;">
					<path id="&lt;Path&gt;" class="s18" d="m587.6 247.3q-4.4-2.3-9-3.5c-3-0.7-6.2-1-9.2-0.7-1.6 0.1-3.1 0.5-4.6 0.9-0.8 0.2-1.5 0.5-2.2 0.7-0.4 0.1-0.7 0.3-1.1 0.5q-0.6 0.2-1.1 0.4c-2.8 1.4-5.5 3.2-8.1 5.1 1.9-2.6 4.4-4.9 7.3-6.6 1.4-0.9 2.9-1.7 4.6-2.2 1.6-0.5 3.2-0.9 4.9-1 3.4-0.4 6.9 0.1 10 1.2 1.6 0.6 3.1 1.3 4.6 2.2 1.4 0.8 2.7 1.8 3.9 3z"/>
				</g>
				<g id="&lt;Group&gt;">
					<path id="&lt;Path&gt;" class="s18" d="m613.2 247.3c1.2-1.2 2.5-2.2 4-3 1.4-0.9 2.9-1.6 4.5-2.2 3.1-1.1 6.6-1.6 10-1.2 1.7 0.1 3.4 0.5 5 1 1.6 0.5 3.1 1.3 4.5 2.2 2.9 1.7 5.4 4 7.3 6.6-2.6-1.9-5.3-3.7-8.1-5.1q-0.5-0.2-1.1-0.4c-0.3-0.2-0.7-0.4-1.1-0.5-0.7-0.2-1.4-0.5-2.2-0.7-1.5-0.4-3-0.8-4.5-0.9-3.1-0.3-6.2 0-9.3 0.7q-4.6 1.2-9 3.5z"/>
				</g>
				<path id="&lt;Path&gt;" class="s20" d="m467.8 461.2c1.6-1.6 3-3.5 4.4-5.3 1.3-1.8 2.5-3.8 3.6-5.8q1.7-2.9 3-6.1c1-2.1 1.6-4.3 2.3-6.5-0.3 2.3-0.7 4.6-1.4 6.8-0.4 1.1-0.8 2.2-1.2 3.3-0.5 1.1-0.9 2.1-1.5 3.2-1 2.1-2.2 4.1-3.6 6-1 1.6-2.2 3.1-3.5 4.5 1.2 0.2 2.4 0.3 3.6 0.4q2.5 0.1 5-0.2c0.9-0.1 1.7-0.3 2.5-0.5 0.8-0.2 1.7-0.4 2.4-0.7 1.7-0.6 3.2-1.4 4.7-2.3-1.4 1.1-2.8 2.2-4.4 2.9-1.5 0.8-3.2 1.3-5 1.7-1.7 0.4-3.5 0.6-5.2 0.5-1.8 0-3.5-0.1-5.3-0.6l-1.3-0.4z"/>
				<g id="&lt;Group&gt;">
					<path id="&lt;Path&gt;" class="s18" d="m512.2 243l1.3-16.9 6-12.2q23.2-33 24-33.8c0.8-0.8 18.5-11.4 19.6-12q1.1-0.5 25.9 3.6 43.5-9.4 36.2 15c-7.4 24.3-39.2 37-40.9 35.9q5.2-5.4 5.7-21-24.5 28.4-70.5 47z"/>
				</g>
				<path id="&lt;Path&gt;" class="s22" d="m648.1 725.2q-5.4 5.2-10.4 10.7-5.1 5.6-9.9 11.3-4.8 5.7-9.4 11.6c-3.1 3.9-6.2 7.8-9.2 11.8l-0.6-0.6c2.7-2 5.5-3.7 8.4-5.4 2.9-1.6 5.9-3 8.9-4.3q4.5-2 9.3-3.4l2.4-0.7 2.4-0.6 1.2-0.3 1.2-0.2 2.5-0.4-2.4 0.6-1.2 0.2-1.2 0.3-2.4 0.7-2.4 0.7q-1.1 0.4-2.3 0.9c-0.8 0.3-1.5 0.5-2.3 0.8l-2.3 1c-0.7 0.3-1.5 0.6-2.2 1q-4.5 2-8.8 4.5c-2.8 1.6-5.6 3.4-8.2 5.3l-2.5 1.8 1.8-2.4q4.4-6.1 9.1-11.9 4.7-5.9 9.6-11.6c3.3-3.8 6.6-7.4 10.1-11.1 1.7-1.7 3.5-3.5 5.3-5.2 1.8-1.8 3.6-3.5 5.5-5.1z"/>
				<path id="&lt;Path&gt;" class="s22" d="m566.6 772.5l-3.2-2.3c-3.4-2.4-7-4.7-10.7-6.8q-5.5-3.1-11.3-5.8c-1-0.4-1.9-0.8-2.9-1.2l-3-1.2c-0.9-0.4-2-0.7-3-1.1-0.9-0.4-1.9-0.7-3-1l-3-1-3.1-0.8-1.5-0.4-1.6-0.3-3.1-0.7 3.1 0.5 1.6 0.3 1.6 0.3 3.1 0.7 3.1 0.9q6.2 1.7 12 4.3c4 1.6 7.8 3.5 11.6 5.6q4 2.2 7.8 4.7c-3.2-4.2-6.4-8.2-9.7-12.3q-6-7.5-12.3-14.9c-4.1-4.9-8.4-9.7-12.8-14.4q-6.5-7.1-13.5-13.8c2.4 2.1 4.8 4.3 7.2 6.5 2.3 2.2 4.6 4.5 6.8 6.8 4.5 4.6 8.9 9.4 13.2 14.2q6.3 7.3 12.4 14.8 6.1 7.5 11.9 15.3z"/>
				<g id="&lt;Group&gt;" style="opacity: .3;mix-blend-mode: multiply">
					<path id="&lt;Path&gt;" class="s15" d="m588.8 294.9q7.5-2.6 14.5 2 7.6-4.8 13.6-0.3-2.8 11.4-15.3 10.6-12.5-0.8-12.8-12.3z"/>
				</g>
				<g id="&lt;Group&gt;">
					<path id="&lt;Path&gt;" class="s15" d="m582.2 290.9q2.2 1.7 4.5 3.1 2.3 1.4 4.7 2.5c3.3 1.4 6.7 2.5 10.3 2.8 3.5 0.3 7-0.2 10.4-1.2 3.4-1.1 6.6-2.8 9.7-4.8q-2.1 1.8-4.4 3.3c-1.5 1-3.2 1.8-4.9 2.5q-2.6 1-5.4 1.4-2.8 0.3-5.6 0.1c-3.7-0.3-7.3-1.4-10.5-3.1-3.3-1.7-6.3-3.9-8.8-6.6z"/>
				</g>
				<path id="&lt;Path&gt;" class="s15" d="m605.8 254.9c1.8 2.9 3.3 6 4.7 9.1 1.4 3.1 2.6 6.2 3.5 9.5 0.5 1.7 0.9 3.4 1 5.2q0 0.7-0.1 1.4c0 0.3-0.1 0.5-0.1 0.8-0.1 0.3-0.2 0.5-0.4 0.8q-0.1 0.2-0.3 0.4l-0.3 0.3q-0.2 0.2-0.5 0.4c-0.4 0.3-0.7 0.5-1.1 0.7-1.5 1-3.1 1.6-4.7 2.2-1.7 0.5-3.3 1-5 1.3 3.1-1.5 6.1-2.9 8.8-4.8 0.3-0.2 0.6-0.5 0.9-0.8l0.4-0.4 0.2-0.1q0-0.1 0.1-0.2c0.2-0.3 0.2-1.1 0.1-1.9-0.1-1.5-0.5-3.1-1-4.7-0.9-3.2-2-6.4-3-9.5-1.1-3.2-2.2-6.4-3.2-9.7z"/>
				<g id="&lt;Group&gt;">
					<path id="&lt;Path&gt;" class="s6" d="m803.5 425.8h13.9 20.1l-11.7 69.6h-8.4-13.9-8.4l-11.7-69.6z"/>
				</g>
				<path id="&lt;Path&gt;" class="s11" d="m785.1 440.8q14.9-2.6 16 0c1 2.6-12.1 1.2-14.6 8.3q-2.4 7.2-1.4-8.3z"/>
				<path id="&lt;Path&gt;" class="s10" d="m827.1 450.6q3 0 5.7 0.8l-6.2 37c-10.2-0.3-18.4-8.7-18.4-18.9 0-10.5 8.5-18.9 18.9-18.9z"/>
				<path id="&lt;Path&gt;" class="s11" d="m827.7 468c-0.1-0.7-16.2-6-15.4-7.8 0.9-1.9 17 0.9 17.2-0.2 0.1-1.2-15.9-9.2-15.5-11.1 0.5-2.1 17.4 3.6 18.6 2.8 1.1-0.8-14-13.2-11.1-14.8 2.1-1.2 12.3 5.9 17.2 9.3 1.5 1.2 2.3 3.1 1.9 4.9l-6.5 38.7c-0.6 3.4-3.6 5.8-7 5.6l-0.6-0.1z"/>
				<rect id="&lt;Path&gt;" class="s3" x="779.1" y="425" width="62.8" height="7.4" rx="2.2"></rect>
			</g>
			<g id="&lt;Group&gt;">
				<path id="&lt;Path&gt;" class="s17" d="m1916.7 1285.2l-0.8 29.1-35.6 25.8q-16.8-22.7-16.4-25.8 0.3-3.1 0-53.5 40.6 15.4 42.3 15.4 1.7 0 10.5 9z"/>
				<path id="&lt;Path&gt;" class="s17" d="m1703.9 1352.2l-13-37.9 1.6-43.5 9.2-4 41.2 11.4v36.1z"/>
				<path id="&lt;Path&gt;" class="s13" d="m1701.7 587.8l102.6-18.2 75.3 19.6q44.2 21.6 45.4 169c1.1 121.8-5.9 425.4-8.3 527-21.5 2.4-42.8 4-63.2 4.9l-52.1-529.5q-67.8-48.5-99.7-172.8z"/>
				<path id="&lt;Path&gt;" class="s13" d="m1667.4 706.8q-0.9-71.5 26.9-119.5 27.7-48 111.7-7.6l-5.7 97.4-54.7 612.1c-25.5-1.5-46.9-3.5-62.4-5.3q-12.3-126.2-15.8-577.1z"/>
				<path id="&lt;Path&gt;" class="s13" d="m1742.9 1314.3v40c0 3.3-2.6 5.9-6 5.9h-93.7c-6.8 0-9.3-8.8-3.6-12.4l51.3-33.5q21.9 15 52 0z"/>
				<path id="&lt;Path&gt;" class="s13" d="m1915.9 1314.3v40c0 3.3-2.7 5.9-6 5.9h-93.7c-6.8 0-9.4-8.8-3.7-12.4l51.4-33.5q21.8 15 52 0z"/>
				<path id="&lt;Path&gt;" class="s17" d="m1710.8 445.8q-36.9 93.1-61.1 104.2-24.2 11.1-131-158l-34.8-16.9 30.4-38.2 6 5.5q5.5-11.7 12.1-26l0.8-0.1c4 0.4 6.3 7 4 17.1l-1.8 8q-0.3 26.4 99.7 120.6l22.9-73.8z"/>
				<path id="&lt;Path&gt;" class="s17" d="m2040.3 444.7q33.2 47.1 29.4 57.2-3.8 10.1-168.5 143.9-4.4 35.9-23.3 45.4l-24-42.9 136.3-151.4-10.7-15.2z"/>
				<g id="&lt;Group&gt;">
					<path id="&lt;Path&gt;" class="s23" d="m1738 376.3l-45.4 112.4-69.8-47.4q19.4-93.1 41.3-126.7 21.9-33.7 37-38.2z"/>
				</g>
				<g id="&lt;Group&gt;">
					<path id="&lt;Path&gt;" class="s17" d="m1817 224.4l6.9 56.4-55.9-1.9 1.6-64.6z"/>
				</g>
				<g id="&lt;Group&gt;" style="opacity: .6">
					<path id="&lt;Path&gt;" class="s24" d="m1768.9 244l0.7-29.7 48.1 15.4 1.3 11.2c-10.7 3.9-30.9 8.8-50.1 3.1z"/>
				</g>
				<path id="&lt;Path&gt;" class="s25" d="m1738.1 112.3l-5.7 48.5-6.6-3.1-1.3-39.1z"/>
				<g id="&lt;Group&gt;">
					<path id="&lt;Path&gt;" class="s26" d="m1736.9 152.3c2.7 8.6-0.7 17.3-7.5 19.5-6.9 2.2-14.7-3-17.4-11.6-2.7-8.5 0.6-17.2 7.5-19.4 6.9-2.2 14.6 3 17.4 11.5z"/>
				</g>
				<g id="&lt;Group&gt;">
					<path id="&lt;Path&gt;" class="s17" d="m1735.4 201.1q-2.7-5.6-4.3-11.8c-3.2-11-4.3-22.5-4.4-32.4-0.1-2.2-0.2-4.3-0.4-6.4-0.9-8.6-0.1-17.6 2.6-26.7 8.8-29.3 36.3-49.7 66.9-49.5 41.2 0.2 72.5 35.1 69.3 75.1 4.6-2.1 9.5-2.3 13.6 0 8 4.3 10 15.9 4.6 25.8-5.4 9.9-16.3 14.5-24.2 10.1q-1.7-0.9-3-2.2c-6.1 33.7-36.1 57.7-69.5 54.5-16.3-1.5-30.6-9.3-40.9-20.9q-1-1-2.1-2.4c-3.3-4-6-8.4-8.2-13.2z"/>
				</g>
				<path id="&lt;Path&gt;" class="s16" d="m1808.9 145c3.3 0.3 5.8 3.3 5.5 6.6-0.3 3.4-3.3 5.8-6.7 5.5-3.3-0.3-5.8-3.3-5.4-6.6 0.3-3.4 3.3-5.8 6.6-5.5z"/>
				<path id="&lt;Path&gt;" class="s16" d="m1756.6 143.4c3.3 0.4 5.8 3.3 5.4 6.7-0.3 3.3-3.3 5.7-6.6 5.4-3.3-0.3-5.8-3.3-5.5-6.6 0.3-3.3 3.3-5.8 6.7-5.5z"/>
				<path id="&lt;Path&gt;" class="s25" d="m1804.2 132.4c3.1-1.1 6.6-1.5 9.9-1 3.4 0.5 6.7 1.7 9.3 3.8 1.4 0.9 2.5 2.2 3.6 3.3 1 1.3 1.9 2.7 2.7 4.1-1.5-0.8-2.7-1.7-4.1-2.4l-2-1.1c-0.3-0.2-0.6-0.4-0.9-0.5l-1-0.4c-2.7-1.3-5.4-2-8.2-2.5q-4.1-0.6-8.5 0c-2.9 0.4-5.8 1.1-8.9 2.1 2.1-2.5 5-4.3 8.1-5.4z"/>
				<path id="&lt;Path&gt;" class="s25" d="m1762.9 133.9q-4.3-1-8.5-0.8c-2.7 0.2-5.5 0.6-8.3 1.7l-1 0.3c-0.4 0.2-0.7 0.3-1 0.5l-2.1 0.9c-1.4 0.6-2.7 1.4-4.3 2 0.9-1.3 1.9-2.6 3-3.8 1.3-1 2.4-2.3 3.9-3 2.8-1.8 6.2-2.8 9.6-3 3.4-0.2 6.8 0.5 9.9 1.9 2.9 1.4 5.6 3.4 7.5 6.1-3-1.2-5.8-2.2-8.7-2.8z"/>
				<path id="&lt;Path&gt;" class="s25" d="m1721.9 71.9q-20.9-1.5 2.8-16.8c23.6-15.2 84.3-29.7 119.7-6q9.2-15.2 19.6-10.2 10.5 4.9-8.6 14 13.9 1 17.4 8.2c2.6 5.3-5.9 4.7-10.5 4 7.8 2.1 31.9 20 10.4 79.3q-5.3-1.8-43-43.9-62.4 29-52.6 10-73.4 28-59.1-8.4-28.4-0.9 3.9-30.2z"/>
				<g id="&lt;Group&gt;">
					<path id="&lt;Path&gt;" class="s27" d="m1625.6 432.2l69 45.8c2.4 1.6 3.3 4.6 2.1 7.1l-10 22.1c-1.5 3.3-5.7 4.5-8.8 2.4l-70-46.2c-2.4-1.7-3.3-4.8-2-7.4l10.9-21.6c1.6-3.2 5.8-4.2 8.8-2.2z"/>
				</g>
				<path id="&lt;Path&gt;" class="s28" d="m2045.5 451q-43.9 28.1-66 49.1l-64-60.4q-15.9 142.3-37 148.4c-21 6.1-153.1 13.7-184.2 0q-22.9 2.8-11.8-293.6c0.5-13.8 39.8-28.1 62.2-36.6 9.8 4.3 12.9 3 37.7 2.2 16.5-0.5 46.6-0.2 56.3-8.5 16.2 2.8 31.8 7.9 45.6 16.1q65.8 38.7 161.2 183.3z"/>
				<path id="&lt;Path&gt;" class="s8" d="m1846.3 322.4c2.7 4.9 5.4 9.9 8.2 14.9l8.3 14.9c2.8 4.9 5.5 9.9 8.3 14.9q4.2 7.4 8.5 14.7c2.9 4.9 5.7 9.9 8.6 14.7 1.5 2.5 2.9 4.9 4.4 7.3l4.4 7.3 4.5 7.2c0.8 1.2 1.5 2.4 2.3 3.6l2.3 3.6 2.3 3.6 1.2 1.8 1.2 1.8q2.4 3.5 4.7 7c-7.1-8.8-13.7-18.1-20-27.6-6.2-9.6-12.1-19.3-17.9-29.1-5.6-9.9-11.1-19.9-16.4-30-5.2-10.1-10.3-20.3-14.9-30.6z"/>
				<g id="&lt;Group&gt;">
					<path id="&lt;Path&gt;" class="s23" d="m1741.1 259.3l27.7-11.7 12.7 11.6 37.5-16.2 19.7 8.6-36.4 28.7-20.6-18.6-13.7 17.2z"/>
				</g>
				<path id="&lt;Path&gt;" class="s19" d="m1891.9 701.8q-10.6 4-20.9 8.6c-6.8 3.1-13.6 6.4-20.4 9.7q-10.1 5-20 10.4c-6.6 3.5-13.2 7.1-19.7 10.9l-0.6-1.3c5-1.1 9.9-1.8 14.9-2.3 4.9-0.6 9.9-0.8 14.9-0.8q7.5 0 15 0.9l3.7 0.5 3.6 0.7 1.9 0.3 1.8 0.5 3.6 0.9-3.6-0.7-1.9-0.4-1.8-0.3-3.7-0.5-3.7-0.4c-1.2-0.1-2.5-0.2-3.7-0.2-1.3-0.1-2.5-0.2-3.7-0.2l-3.7-0.1c-1.3 0-2.5 0-3.8 0-4.9 0.1-9.9 0.5-14.8 1-4.9 0.6-9.8 1.4-14.6 2.5l-4.5 1 4-2.3c6.5-3.8 13-7.5 19.7-11q10-5.3 20.2-10.3c6.8-3.2 13.7-6.3 20.6-9.2 3.5-1.5 7-2.9 10.5-4.2 3.5-1.3 7.1-2.5 10.7-3.7z"/>
				<path id="&lt;Path&gt;" class="s19" d="m1694.3 698.9c3.5 1.2 7.1 2.4 10.6 3.7 3.6 1.3 7.1 2.7 10.6 4.1 6.9 3 13.8 6.1 20.6 9.3q10.2 5 20.2 10.2c6.6 3.6 13.2 7.2 19.7 11.1l3.9 2.3-4.4-1.1c-4.8-1.1-9.7-1.8-14.6-2.4-5-0.5-9.9-0.9-14.9-1-1.2 0-2.4-0.1-3.7 0h-3.7c-1.2 0.1-2.5 0.2-3.7 0.2-1.2 0.1-2.5 0.1-3.7 0.3l-3.7 0.4-3.7 0.5-1.9 0.3-1.8 0.3-3.6 0.8 3.6-0.9 1.8-0.5 1.8-0.3 3.7-0.7 3.7-0.5q7.5-0.9 14.9-0.9c5 0 10 0.2 15 0.7 5 0.6 9.9 1.3 14.8 2.4l-0.5 1.3c-6.5-3.8-13.1-7.4-19.7-11q-10-5.3-20.1-10.3c-6.7-3.4-13.5-6.6-20.4-9.7q-10.3-4.6-20.8-8.6z"/>
				<path id="&lt;Path&gt;" class="s19" d="m1709.3 613.8c6.1 1.1 12.2 2 18.4 2.8q9.2 1.2 18.5 2.1c12.3 1.3 24.7 2.1 37.1 2.4q9.3 0.2 18.6-0.1 9.3-0.2 18.6-1c6.2-0.6 12.3-1.3 18.5-2.3 6.1-1 12.2-2.3 18.2-3.9-6 1.7-12.1 3.1-18.2 4.3-6.1 1.1-12.3 1.9-18.4 2.5-6.2 0.6-12.4 0.9-18.6 1.1q-9.4 0.3-18.7 0.1c-12.4-0.3-24.8-1.1-37.2-2.5q-9.2-1-18.5-2.3c-6.1-1-12.2-2-18.3-3.2z"/>
				<path id="&lt;Path&gt;" class="s25" d="m1840.6 88.4l38.8-2.2q6.5 25-4.7 61.8-16.7-2.1-29.9 16.4 2.9-22.4-15.1-63.9z"/>
				<g id="&lt;Group&gt;" style="opacity: .5">
					<path id="&lt;Path&gt;" class="s29" d="m1846.1 632.9c0.2 0.8 0.6 1.5 1 2.2l1 2.1 2.2 4.2 3.6 6.9 10.3 18.5c1.5 2.8 15 27.1 18.2 32.5-4-4.9-8.8-9.8-12-15.2-1.7-2.7-3.2-5.4-4.7-8.2q-2.3-4.1-4.5-8.3c-2.8-5.7-5.6-11.3-8.2-17.1q-1.9-4.3-3.7-8.7-0.9-2.2-1.7-4.4c-0.6-1.5-1.2-2.9-1.5-4.5z"/>
				</g>
				<path id="&lt;Path&gt;" class="s8" d="m1838.7 251.6c-2.9 2.7-5.9 5.3-8.8 7.9q-4.5 3.9-9 7.7l-9 7.7-9 7.6-0.7 0.7-0.7-0.7c-3.5-3.5-6.9-6.9-10.4-10.4-3.1-3.1-6.2-6.3-9.3-9.5q-3.1 4-6.2 7.9-3.4 4.5-6.9 8.9l-0.5 0.7-0.7-0.5q-6.7-5-13.3-10.1l-6.6-5.1q-3.3-2.5-6.5-5.1 3.4 2.3 6.9 4.6l6.9 4.7q6.5 4.5 12.9 9.1 3.1-4.3 6.2-8.4 3.4-4.6 6.8-9.1l0.7-1 0.9 0.9c3.5 3.5 6.9 6.9 10.3 10.4 3.2 3.3 6.4 6.5 9.6 9.8l8.5-6.8 9.2-7.4q4.7-3.6 9.3-7.3c3.2-2.4 6.3-4.8 9.4-7.2z"/>
				<path id="&lt;Path&gt;" class="s8" d="m1780.8 260.2c-1.1 14-2.2 28-3 41.9q-1.4 21-2.5 42c-0.3 6.9-0.6 13.9-0.9 20.9l-0.5 10.5-0.4 10.5c-0.5 14-0.8 28-1.1 42-0.5 28-0.4 56 0.3 83.9 0.6 14 0.9 28 1.9 42l0.6 10.4c0.1 1.8 0.2 3.5 0.3 5.3l0.5 5.2q1 10.5 1.8 20.9c-1.6-13.9-3.3-27.8-4.3-41.8-1.3-13.9-1.8-27.9-2.6-41.9q-0.3-10.5-0.6-21c0-3.5-0.2-7-0.2-10.5l-0.1-10.5v-10.5l-0.1-5.3 0.1-5.2 0.2-21.1c0.3-14 0.7-28 1.3-42l0.4-10.5 0.5-10.5c0.4-7 0.7-14 1.2-20.9 0.9-14 1.9-28 3.1-41.9l0.9-10.5 1-10.5q1-10.4 2.2-20.9z"/>
				<g id="&lt;Group&gt;">
					<path id="&lt;Path&gt;" class="s23" d="m1795 355.9h48l-1.7 36.3c-0.4 7.1-4.1 13.6-10 17.4l-2.1 1.4c-7.8 5.1-18 4.8-25.5-0.9-5.5-4.2-8.7-10.7-8.7-17.6z"/>
				</g>
				<g id="&lt;Group&gt;">
					<path id="&lt;Path&gt;" class="s23" d="m1956.1 475.3l67-52.1c3.1-2.4 7.7-1.8 10.1 1.4l15.6 21c2.4 3.1 1.8 7.5-1.3 9.8l-66 50.1c-2.9 2.3-7.2 1.9-9.7-0.9l-16.7-19.1c-2.7-3-2.2-7.7 1-10.2z"/>
				</g>
				<path id="&lt;Path&gt;" class="s11" d="m1916.7 1285.2l-0.8 29.1-35.6 25.8q-16.8-22.7-16.4-25.8 0.3-3.1 0-53.5 40.6 15.4 42.3 15.4 1.7 0 10.5 9z"/>
				<path id="&lt;Path&gt;" class="s11" d="m1703.9 1352.2l-13-37.9 1.6-43.5 9.2-4 41.2 11.4v36.1z"/>
				<path id="&lt;Path&gt;" class="s12" d="m1701.7 587.8l102.6-18.2 75.3 19.6q44.2 21.6 45.4 169c1.1 121.8-5.9 425.4-8.3 527-21.5 2.4-42.8 4-63.2 4.9l-52.1-529.5q-67.8-48.5-99.7-172.8z"/>
				<path id="&lt;Path&gt;" class="s12" d="m1667.4 706.8q-0.9-71.5 26.9-119.5 27.7-48 111.7-7.6l-5.7 97.4-54.7 612.1c-25.5-1.5-46.9-3.5-62.4-5.3q-12.3-126.2-15.8-577.1z"/>
				<path id="&lt;Path&gt;" class="s12" d="m1742.9 1314.3v40c0 3.3-2.6 5.9-6 5.9h-93.7c-6.8 0-9.3-8.8-3.6-12.4l51.3-33.5q21.9 15 52 0z"/>
				<path id="&lt;Path&gt;" class="s12" d="m1915.9 1314.3v40c0 3.3-2.7 5.9-6 5.9h-93.7c-6.8 0-9.4-8.8-3.7-12.4l51.4-33.5q21.8 15 52 0z"/>
				<path id="&lt;Path&gt;" class="s11" d="m1710.8 445.8q-36.9 93.1-61.1 104.2-24.2 11.1-131-158l-34.8-16.9 30.4-38.2 6 5.5q5.5-11.7 12.1-26l0.8-0.1c4 0.4 6.3 7 4 17.1l-1.8 8q-0.3 26.4 99.7 120.6l22.9-73.8z"/>
				<path id="&lt;Path&gt;" class="s11" d="m2040.3 444.7q33.2 47.1 29.4 57.2-3.8 10.1-168.5 143.9-4.4 35.9-23.3 45.4l-24-42.9 136.3-151.4-10.7-15.2z"/>
				<g id="&lt;Group&gt;">
					<path id="&lt;Path&gt;" class="s6" d="m1534 304.5l-13 77.2h-9.3-15.5-9.3l-13-77.2h22.3 15.5z"/>
				</g>
				<rect id="&lt;Path&gt;" class="s3" x="1469.1" y="303.6" width="69.7" height="8.2" rx="2.4"></rect>
				<path id="&lt;Path&gt;" class="s10" d="m1508.3 349.2c0 12.9-10.3 23.4-23.1 23.7l-7.8-46.4c2.2-0.7 4.6-1.1 7.1-1.1 13.1 0 23.8 10.6 23.8 23.8z"/>
				<g id="&lt;Group&gt;">
					<path id="&lt;Path&gt;" class="s20" d="m1738 376.3l-45.4 112.4-69.8-47.4q19.4-93.1 41.3-126.7 21.9-33.7 37-38.2z"/>
				</g>
				<g id="&lt;Group&gt;">
					<path id="&lt;Path&gt;" class="s11" d="m1817 224.4l6.9 56.4-55.9-1.9 1.6-64.6z"/>
				</g>
				<g id="&lt;Group&gt;" style="opacity: .6">
					<path id="&lt;Path&gt;" class="s15" d="m1768.9 244l0.7-29.7 48.1 15.4 1.3 11.2c-10.7 3.9-30.9 8.8-50.1 3.1z"/>
				</g>
				<path id="&lt;Path&gt;" class="s13" d="m1738.1 112.3l-5.7 48.5-6.6-3.1-1.3-39.1z"/>
				<g id="&lt;Group&gt;">
					<path id="&lt;Path&gt;" class="s15" d="m1736.9 152.3c2.7 8.6-0.7 17.3-7.5 19.5-6.9 2.2-14.7-3-17.4-11.6-2.7-8.5 0.6-17.2 7.5-19.4 6.9-2.2 14.6 3 17.4 11.5z"/>
				</g>
				<g id="&lt;Group&gt;">
					<path id="&lt;Path&gt;" class="s11" d="m1735.4 201.1q-2.7-5.6-4.3-11.8c-3.2-11-4.3-22.5-4.4-32.4-0.1-2.2-0.2-4.3-0.4-6.4-0.9-8.6-0.1-17.6 2.6-26.7 8.8-29.3 36.3-49.7 66.9-49.5 41.2 0.2 72.5 35.1 69.3 75.1 4.6-2.1 9.5-2.3 13.6 0 8 4.3 10 15.9 4.6 25.8-5.4 9.9-16.3 14.5-24.2 10.1q-1.7-0.9-3-2.2c-6.1 33.7-36.1 57.7-69.5 54.5-16.3-1.5-30.6-9.3-40.9-20.9q-1-1-2.1-2.4c-3.3-4-6-8.4-8.2-13.2z"/>
				</g>
				<path id="&lt;Path&gt;" class="s16" d="m1808.9 145c3.3 0.3 5.8 3.3 5.5 6.6-0.3 3.4-3.3 5.8-6.7 5.5-3.3-0.3-5.8-3.3-5.4-6.6 0.3-3.4 3.3-5.8 6.6-5.5z"/>
				<path id="&lt;Path&gt;" class="s16" d="m1756.6 143.4c3.3 0.4 5.8 3.3 5.4 6.7-0.3 3.3-3.3 5.7-6.6 5.4-3.3-0.3-5.8-3.3-5.5-6.6 0.3-3.3 3.3-5.8 6.7-5.5z"/>
				<path id="&lt;Path&gt;" class="s13" d="m1804.2 132.4c3.1-1.1 6.6-1.5 9.9-1 3.4 0.5 6.7 1.7 9.3 3.8 1.4 0.9 2.5 2.2 3.6 3.3 1 1.3 1.9 2.7 2.7 4.1-1.5-0.8-2.7-1.7-4.1-2.4l-2-1.1c-0.3-0.2-0.6-0.4-0.9-0.5l-1-0.4c-2.7-1.3-5.4-2-8.2-2.5q-4.1-0.6-8.5 0c-2.9 0.4-5.8 1.1-8.9 2.1 2.1-2.5 5-4.3 8.1-5.4z"/>
				<path id="&lt;Path&gt;" class="s13" d="m1762.9 133.9q-4.3-1-8.5-0.8c-2.7 0.2-5.5 0.6-8.3 1.7l-1 0.3c-0.4 0.2-0.7 0.3-1 0.5l-2.1 0.9c-1.4 0.6-2.7 1.4-4.3 2 0.9-1.3 1.9-2.6 3-3.8 1.3-1 2.4-2.3 3.9-3 2.8-1.8 6.2-2.8 9.6-3 3.4-0.2 6.8 0.5 9.9 1.9 2.9 1.4 5.6 3.4 7.5 6.1-3-1.2-5.8-2.2-8.7-2.8z"/>
				<path id="&lt;Path&gt;" class="s13" d="m1721.9 71.9q-20.9-1.5 2.8-16.8c23.6-15.2 84.3-29.7 119.7-6q9.2-15.2 19.6-10.2 10.5 4.9-8.6 14 13.9 1 17.4 8.2c2.6 5.3-5.9 4.7-10.5 4 7.8 2.1 31.9 20 10.4 79.3q-5.3-1.8-43-43.9-62.4 29-52.6 10-73.4 28-59.1-8.4-28.4-0.9 3.9-30.2z"/>
				<path id="&lt;Path&gt;" class="s8" d="m1802.4 194.9c-1.8 7.6-10.5 13.3-21.1 13.5-10.6 0.2-19.4-5.3-21.5-12.8z"/>
				<g id="&lt;Group&gt;">
					<path id="&lt;Path&gt;" class="s20" d="m1625.6 432.2l69 45.8c2.4 1.6 3.3 4.6 2.1 7.1l-10 22.1c-1.5 3.3-5.7 4.5-8.8 2.4l-70-46.2c-2.4-1.7-3.3-4.8-2-7.4l10.9-21.6c1.6-3.2 5.8-4.2 8.8-2.2z"/>
				</g>
				<path id="&lt;Path&gt;" class="s21" d="m2045.5 451q-43.9 28.1-66 49.1l-64-60.4q-15.9 142.3-37 148.4c-21 6.1-153.1 13.7-184.2 0q-22.9 2.8-11.8-293.6c0.5-13.8 39.8-28.1 62.2-36.6 9.8 4.3 12.9 3 37.7 2.2 16.5-0.5 46.6-0.2 56.3-8.5 16.2 2.8 31.8 7.9 45.6 16.1q65.8 38.7 161.2 183.3z"/>
				<path id="&lt;Path&gt;" class="s20" d="m1846.3 322.4c2.7 4.9 5.4 9.9 8.2 14.9l8.3 14.9c2.8 4.9 5.5 9.9 8.3 14.9q4.2 7.4 8.5 14.7c2.9 4.9 5.7 9.9 8.6 14.7 1.5 2.5 2.9 4.9 4.4 7.3l4.4 7.3 4.5 7.2c0.8 1.2 1.5 2.4 2.3 3.6l2.3 3.6 2.3 3.6 1.2 1.8 1.2 1.8q2.4 3.5 4.7 7c-7.1-8.8-13.7-18.1-20-27.6-6.2-9.6-12.1-19.3-17.9-29.1-5.6-9.9-11.1-19.9-16.4-30-5.2-10.1-10.3-20.3-14.9-30.6z"/>
				<g id="&lt;Group&gt;">
					<path id="&lt;Path&gt;" class="s20" d="m1741.1 259.3l27.7-11.7 12.7 11.6 37.5-16.2 19.7 8.6-36.4 28.7-20.6-18.6-13.7 17.2z"/>
				</g>
				<path id="&lt;Path&gt;" class="s22" d="m1891.9 701.8q-10.6 4-20.9 8.6c-6.8 3.1-13.6 6.4-20.4 9.7q-10.1 5-20 10.4c-6.6 3.5-13.2 7.1-19.7 10.9l-0.6-1.3c5-1.1 9.9-1.8 14.9-2.3 4.9-0.6 9.9-0.8 14.9-0.8q7.5 0 15 0.9l3.7 0.5 3.6 0.7 1.9 0.3 1.8 0.5 3.6 0.9-3.6-0.7-1.9-0.4-1.8-0.3-3.7-0.5-3.7-0.4c-1.2-0.1-2.5-0.2-3.7-0.2-1.3-0.1-2.5-0.2-3.7-0.2l-3.7-0.1c-1.3 0-2.5 0-3.8 0-4.9 0.1-9.9 0.5-14.8 1-4.9 0.6-9.8 1.4-14.6 2.5l-4.5 1 4-2.3c6.5-3.8 13-7.5 19.7-11q10-5.3 20.2-10.3c6.8-3.2 13.7-6.3 20.6-9.2 3.5-1.5 7-2.9 10.5-4.2 3.5-1.3 7.1-2.5 10.7-3.7z"/>
				<path id="&lt;Path&gt;" class="s22" d="m1694.3 698.9c3.5 1.2 7.1 2.4 10.6 3.7 3.6 1.3 7.1 2.7 10.6 4.1 6.9 3 13.8 6.1 20.6 9.3q10.2 5 20.2 10.2c6.6 3.6 13.2 7.2 19.7 11.1l3.9 2.3-4.4-1.1c-4.8-1.1-9.7-1.8-14.6-2.4-5-0.5-9.9-0.9-14.9-1-1.2 0-2.4-0.1-3.7 0h-3.7c-1.2 0.1-2.5 0.2-3.7 0.2-1.2 0.1-2.5 0.1-3.7 0.3l-3.7 0.4-3.7 0.5-1.9 0.3-1.8 0.3-3.6 0.8 3.6-0.9 1.8-0.5 1.8-0.3 3.7-0.7 3.7-0.5q7.5-0.9 14.9-0.9c5 0 10 0.2 15 0.7 5 0.6 9.9 1.3 14.8 2.4l-0.5 1.3c-6.5-3.8-13.1-7.4-19.7-11q-10-5.3-20.1-10.3c-6.7-3.4-13.5-6.6-20.4-9.7q-10.3-4.6-20.8-8.6z"/>
				<path id="&lt;Path&gt;" class="s22" d="m1709.3 613.8c6.1 1.1 12.2 2 18.4 2.8q9.2 1.2 18.5 2.1c12.3 1.3 24.7 2.1 37.1 2.4q9.3 0.2 18.6-0.1 9.3-0.2 18.6-1c6.2-0.6 12.3-1.3 18.5-2.3 6.1-1 12.2-2.3 18.2-3.9-6 1.7-12.1 3.1-18.2 4.3-6.1 1.1-12.3 1.9-18.4 2.5-6.2 0.6-12.4 0.9-18.6 1.1q-9.4 0.3-18.7 0.1c-12.4-0.3-24.8-1.1-37.2-2.5q-9.2-1-18.5-2.3c-6.1-1-12.2-2-18.3-3.2z"/>
				<path id="&lt;Path&gt;" class="s13" d="m1840.6 88.4l38.8-2.2q6.5 25-4.7 61.8-16.7-2.1-29.9 16.4 2.9-22.4-15.1-63.9z"/>
				<path id="&lt;Path&gt;" class="s11" d="m1486.1 377l-0.6 0.1c-3.8 0.2-7.1-2.5-7.8-6.2l-7.2-42.9c-0.4-2.1 0.4-4.2 2.2-5.5 5.3-3.8 16.7-11.6 19-10.3 3.2 1.7-13.5 15.5-12.3 16.4 1.3 0.9 20.1-5.5 20.6-3.1 0.4 2.1-17.3 11-17.1 12.3 0.2 1.2 18-1.8 19 0.3 0.9 1.9-17 7.8-17.1 8.6z"/>
				<path id="&lt;Path&gt;" class="s11" d="m1532.2 325.7c-2.7-8-17.2-6.4-16.1-9.2q1.1-2.9 17.7 0 1.1 17.1-1.6 9.2z"/>
				<path id="&lt;Path&gt;" class="s11" d="m1480.6 346.6q17.9 1.7 19.1 4.4 1.2 2.7-17.8 2.9z"/>
				<path id="&lt;Path&gt;" class="s30" d="m1846.1 632.9c0.2 0.8 0.6 1.5 1 2.2l1 2.1 2.2 4.2 3.6 6.9 10.3 18.5c1.5 2.8 15 27.1 18.2 32.5-4-4.9-8.8-9.8-12-15.2-1.7-2.7-3.2-5.4-4.7-8.2q-2.3-4.1-4.5-8.3c-2.8-5.7-5.6-11.3-8.2-17.1q-1.9-4.3-3.7-8.7-0.9-2.2-1.7-4.4c-0.6-1.5-1.2-2.9-1.5-4.5z"/>
				<path id="&lt;Path&gt;" class="s20" d="m1838.7 251.6c-2.9 2.7-5.9 5.3-8.8 7.9q-4.5 3.9-9 7.7l-9 7.7-9 7.6-0.7 0.7-0.7-0.7c-3.5-3.5-6.9-6.9-10.4-10.4-3.1-3.1-6.2-6.3-9.3-9.5q-3.1 4-6.2 7.9-3.4 4.5-6.9 8.9l-0.5 0.7-0.7-0.5q-6.7-5-13.3-10.1l-6.6-5.1q-3.3-2.5-6.5-5.1 3.4 2.3 6.9 4.6l6.9 4.7q6.5 4.5 12.9 9.1 3.1-4.3 6.2-8.4 3.4-4.6 6.8-9.1l0.7-1 0.9 0.9c3.5 3.5 6.9 6.9 10.3 10.4 3.2 3.3 6.4 6.5 9.6 9.8l8.5-6.8 9.2-7.4q4.7-3.6 9.3-7.3c3.2-2.4 6.3-4.8 9.4-7.2z"/>
				<path id="&lt;Path&gt;" class="s20" d="m1780.8 260.2c-1.1 14-2.2 28-3 41.9q-1.4 21-2.5 42c-0.3 6.9-0.6 13.9-0.9 20.9l-0.5 10.5-0.4 10.5c-0.5 14-0.8 28-1.1 42-0.5 28-0.4 56 0.3 83.9 0.6 14 0.9 28 1.9 42l0.6 10.4c0.1 1.8 0.2 3.5 0.3 5.3l0.5 5.2q1 10.5 1.8 20.9c-1.6-13.9-3.3-27.8-4.3-41.8-1.3-13.9-1.8-27.9-2.6-41.9q-0.3-10.5-0.6-21c0-3.5-0.2-7-0.2-10.5l-0.1-10.5v-10.5l-0.1-5.3 0.1-5.2 0.2-21.1c0.3-14 0.7-28 1.3-42l0.4-10.5 0.5-10.5c0.4-7 0.7-14 1.2-20.9 0.9-14 1.9-28 3.1-41.9l0.9-10.5 1-10.5q1-10.4 2.2-20.9z"/>
				<g id="&lt;Group&gt;">
					<path id="&lt;Path&gt;" class="s20" d="m1795 355.9h48l-1.7 36.3c-0.4 7.1-4.1 13.6-10 17.4l-2.1 1.4c-7.8 5.1-18 4.8-25.5-0.9-5.5-4.2-8.7-10.7-8.7-17.6z"/>
				</g>
				<g id="&lt;Group&gt;">
					<path id="&lt;Path&gt;" class="s20" d="m1956.1 475.3l67-52.1c3.1-2.4 7.7-1.8 10.1 1.4l15.6 21c2.4 3.1 1.8 7.5-1.3 9.8l-66 50.1c-2.9 2.3-7.2 1.9-9.7-0.9l-16.7-19.1c-2.7-3-2.2-7.7 1-10.2z"/>
				</g>
			</g>
			<path id="&lt;Path&gt;" class="s15" d="m1776.5 155.9c-1.4 4-2.8 8-3.9 12.1-0.6 2-1 4-1.2 6-0.1 0.9-0.1 2 0.2 2.4q0 0.1 0 0.1l0.3 0.3 0.5 0.5c0.4 0.3 0.8 0.7 1.2 0.9 3.3 2.4 7.2 4.3 11.1 6.1-2.2-0.3-4.2-0.9-6.3-1.6-2-0.7-4.1-1.6-6-2.7-0.5-0.3-0.9-0.7-1.4-1q-0.3-0.3-0.7-0.6l-0.3-0.2q-0.2-0.3-0.4-0.6c-0.3-0.3-0.3-0.7-0.5-1 0-0.3-0.1-0.7-0.2-1q-0.1-0.9 0-1.8c0.1-2.3 0.6-4.4 1.2-6.5 1.2-4.2 2.7-8.3 4.5-12.2 1.7-3.9 3.7-7.7 6-11.4-1.3 4.1-2.7 8.1-4.1 12.2z"/>
		</g>
	</g>
</svg>